STARTFONT 2.1
COMMENT
COMMENT Converted from OpenType font "Hack Bold Italic Nerd Font Complete.ttf" by "otf2bdf 3.0".
COMMENT
FONT -FreeType-Hack Nerd Font-Bold-I-Normal--25-180-100-100-P-184-ISO10646-1
SIZE 18 100 100
FONTBOUNDINGBOX 56 37 -18 -10
STARTPROPERTIES 19
FOUNDRY "FreeType"
FAMILY_NAME "Hack Nerd Font"
WEIGHT_NAME "Bold"
SLANT "I"
SETWIDTH_NAME "Normal"
ADD_STYLE_NAME ""
PIXEL_SIZE 25
POINT_SIZE 180
RESOLUTION_X 100
RESOLUTION_Y 100
SPACING "P"
AVERAGE_WIDTH 184
CHARSET_REGISTRY "ISO10646"
CHARSET_ENCODING "1"
FONT_ASCENT 23
FONT_DESCENT 5
COPYRIGHT "Copyright (c) 2018 Source Foundry Authors / Copyright (c) 2003 by Bitstream, Inc. All Rights Reserved."
_OTF_FONTFILE "Hack Bold Italic Nerd Font Complete.ttf"
_OTF_PSNAME "HackNerdFontComplete-Bold Italic"
ENDPROPERTIES
CHARS 5265
STARTCHAR 0000
ENCODING 0
SWIDTH 0 0
DWIDTH 0 0
BBX 0 0 0 0
BITMAP
ENDCHAR
STARTCHAR 000D
ENCODING 13
SWIDTH 600 0
DWIDTH 15 0
BBX 0 0 0 0
BITMAP
ENDCHAR
STARTCHAR 0020
ENCODING 32
SWIDTH 600 0
DWIDTH 15 0
BBX 0 0 0 0
BITMAP
ENDCHAR
STARTCHAR 0021
ENCODING 33
SWIDTH 600 0
DWIDTH 15 0
BBX 6 18 6 0
BITMAP
1C
3C
3C
3C
38
38
38
38
30
30
30
20
00
00
60
F0
F0
E0
ENDCHAR
STARTCHAR 0022
ENCODING 34
SWIDTH 600 0
DWIDTH 15 0
BBX 9 7 3 11
BITMAP
E380
E380
E380
E380
E380
E380
E380
ENDCHAR
STARTCHAR 0023
ENCODING 35
SWIDTH 600 0
DWIDTH 15 0
BBX 15 18 0 0
BITMAP
039C
0718
0738
0738
3FFE
7FFE
7FFE
0E70
0C70
1C60
1CE0
FFFC
FFFC
FFF8
39C0
39C0
31C0
7380
ENDCHAR
STARTCHAR 0024
ENCODING 36
SWIDTH 600 0
DWIDTH 15 0
BBX 13 23 0 -4
BITMAP
00E0
00E0
00C0
03F0
0FF8
1FF8
1E88
3D80
3D80
1F00
1FC0
0FF0
03F0
0370
0378
4270
62F0
7FE0
FFC0
0E00
0E00
0E00
0E00
ENDCHAR
STARTCHAR 0025
ENCODING 37
SWIDTH 600 0
DWIDTH 15 0
BBX 15 17 0 0
BITMAP
3C00
7F00
E300
C300
C380
E302
7F1E
3CF8
07C0
3E78
F0FC
81CE
0186
0186
01CE
00FC
0078
ENDCHAR
STARTCHAR 0026
ENCODING 38
SWIDTH 600 0
DWIDTH 15 0
BBX 15 18 0 0
BITMAP
01F8
07F8
0FF8
0F08
0E00
0E00
0F00
0F00
3F80
7F8E
F3CE
E3DC
E1FC
E1F8
F0F0
FFF0
7FF8
3F78
ENDCHAR
STARTCHAR 0027
ENCODING 39
SWIDTH 600 0
DWIDTH 15 0
BBX 3 7 6 11
BITMAP
E0
E0
E0
E0
E0
E0
E0
ENDCHAR
STARTCHAR 0028
ENCODING 40
SWIDTH 600 0
DWIDTH 15 0
BBX 9 22 3 -3
BITMAP
0380
0700
0700
0E00
1E00
1C00
3C00
3800
7800
7000
7000
7000
F000
F000
F000
F000
7000
7000
7000
7000
3800
3800
ENDCHAR
STARTCHAR 0029
ENCODING 41
SWIDTH 600 0
DWIDTH 15 0
BBX 9 22 3 -3
BITMAP
0E00
0700
0700
0700
0780
0380
0380
0380
0380
0380
0780
0780
0700
0700
0F00
0E00
1E00
1C00
3800
3800
7000
E000
ENDCHAR
STARTCHAR 002A
ENCODING 42
SWIDTH 600 0
DWIDTH 15 0
BBX 13 13 1 4
BITMAP
0200
0200
0200
0600
7770
FFF8
1FC0
0F80
0D80
1DC0
18C0
3060
1040
ENDCHAR
STARTCHAR 002B
ENCODING 43
SWIDTH 600 0
DWIDTH 15 0
BBX 13 13 1 1
BITMAP
0700
0700
0700
0700
0700
FFF8
FFF8
FFF8
0700
0700
0700
0700
0700
ENDCHAR
STARTCHAR 002C
ENCODING 44
SWIDTH 600 0
DWIDTH 15 0
BBX 5 9 5 -5
BITMAP
70
F8
F8
78
18
38
30
E0
C0
ENDCHAR
STARTCHAR 002D
ENCODING 45
SWIDTH 600 0
DWIDTH 15 0
BBX 11 4 2 6
BITMAP
7FE0
7FE0
7FC0
FFC0
ENDCHAR
STARTCHAR 002E
ENCODING 46
SWIDTH 600 0
DWIDTH 15 0
BBX 5 4 5 0
BITMAP
70
F8
F8
70
ENDCHAR
STARTCHAR 002F
ENCODING 47
SWIDTH 600 0
DWIDTH 15 0
BBX 13 20 1 -2
BITMAP
0038
0030
0070
0060
00E0
00C0
01C0
0180
0380
0300
0700
0600
0E00
1C00
1C00
3800
3800
7000
7000
E000
ENDCHAR
STARTCHAR 0030
ENCODING 48
SWIDTH 600 0
DWIDTH 15 0
BBX 14 18 1 0
BITMAP
03E0
0FF0
1FF8
3C38
391C
7B1C
731C
7318
7338
E738
E638
E638
E070
E0F0
F1E0
7FE0
7FC0
1F00
ENDCHAR
STARTCHAR 0031
ENCODING 49
SWIDTH 600 0
DWIDTH 15 0
BBX 11 18 1 0
BITMAP
01E0
07C0
0FC0
1FC0
3BC0
13C0
0380
0380
0780
0780
0780
0700
0700
0F00
0F00
FFE0
FFE0
FFE0
ENDCHAR
STARTCHAR 0032
ENCODING 50
SWIDTH 600 0
DWIDTH 15 0
BBX 14 18 0 0
BITMAP
07E0
1FF8
1FFC
183C
003C
003C
0038
0070
00F0
01E0
03C0
0F80
1E00
3C00
7800
FFF0
FFF0
FFE0
ENDCHAR
STARTCHAR 0033
ENCODING 51
SWIDTH 600 0
DWIDTH 15 0
BBX 14 18 0 0
BITMAP
0FE0
1FF8
1FF8
103C
003C
0078
07F0
07C0
0FE0
00F0
0070
0078
0078
0070
C0F0
FFE0
FFC0
7F00
ENDCHAR
STARTCHAR 0034
ENCODING 52
SWIDTH 600 0
DWIDTH 15 0
BBX 14 18 0 0
BITMAP
007C
0078
00F8
01F8
03F8
0778
0E70
0E70
1C70
38F0
70F0
7FFC
7FF8
FFF8
01E0
01E0
01C0
01C0
ENDCHAR
STARTCHAR 0035
ENCODING 53
SWIDTH 600 0
DWIDTH 15 0
BBX 14 18 0 0
BITMAP
0FFC
0FFC
0FFC
1C00
1C00
1C00
1FC0
1FF0
3FF0
20F8
0078
0078
0078
0070
40F0
FFE0
FFC0
7F00
ENDCHAR
STARTCHAR 0036
ENCODING 54
SWIDTH 600 0
DWIDTH 15 0
BBX 13 18 1 0
BITMAP
01F8
07F8
0FF8
1E08
3C00
3800
7BC0
7FE0
7FF0
F8F0
F070
F070
F070
F0F0
F1E0
7FE0
3FC0
1F00
ENDCHAR
STARTCHAR 0037
ENCODING 55
SWIDTH 600 0
DWIDTH 15 0
BBX 14 18 1 0
BITMAP
3FFC
3FFC
3FF8
0078
00F0
00F0
01E0
01C0
03C0
0780
0780
0F00
0F00
1E00
3C00
3C00
7800
F800
ENDCHAR
STARTCHAR 0038
ENCODING 56
SWIDTH 600 0
DWIDTH 15 0
BBX 13 18 1 0
BITMAP
07C0
1FF0
1FF8
3C78
3838
3838
3870
1FE0
0F80
3FE0
70E0
E0F0
E0F0
E0F0
F1E0
FFE0
7FC0
3F00
ENDCHAR
STARTCHAR 0039
ENCODING 57
SWIDTH 600 0
DWIDTH 15 0
BBX 13 18 1 0
BITMAP
07C0
1FE0
3FF0
7C70
7878
7078
7078
7078
78F8
7FF0
3FF0
1EF0
00E0
01E0
83C0
FF80
FF00
FC00
ENDCHAR
STARTCHAR 003A
ENCODING 58
SWIDTH 600 0
DWIDTH 15 0
BBX 5 14 6 0
BITMAP
38
78
78
78
30
00
00
00
00
60
F0
F0
F0
E0
ENDCHAR
STARTCHAR 003B
ENCODING 59
SWIDTH 600 0
DWIDTH 15 0
BBX 8 20 4 -6
BITMAP
0E
1E
1F
1E
1C
00
00
00
00
00
3C
3C
3C
3C
0C
18
38
70
E0
80
ENDCHAR
STARTCHAR 003C
ENCODING 60
SWIDTH 600 0
DWIDTH 15 0
BBX 13 13 1 1
BITMAP
0018
00F8
03F8
1FE0
7F00
F800
F000
FE00
3FC0
07F8
01F8
0038
0008
ENDCHAR
STARTCHAR 003D
ENCODING 61
SWIDTH 600 0
DWIDTH 15 0
BBX 13 9 1 4
BITMAP
FFF8
FFF8
FFF8
0000
0000
0000
FFF8
FFF8
FFF8
ENDCHAR
STARTCHAR 003E
ENCODING 62
SWIDTH 600 0
DWIDTH 15 0
BBX 13 13 1 1
BITMAP
C000
F800
FE00
3FC0
07F0
00F8
0078
03F8
1FE0
FF00
FC00
E000
8000
ENDCHAR
STARTCHAR 003F
ENCODING 63
SWIDTH 600 0
DWIDTH 15 0
BBX 10 19 5 0
BITMAP
3F00
FF80
FFC0
C3C0
81C0
0180
0380
0700
1E00
3800
3800
7000
7000
0000
0000
7000
F000
F000
6000
ENDCHAR
STARTCHAR 0040
ENCODING 64
SWIDTH 600 0
DWIDTH 15 0
BBX 15 21 0 -4
BITMAP
01F0
07FC
0FFE
1E0E
3C06
38F6
73FE
63FE
E71C
E60C
C60C
C61C
C61C
C7F8
C3D8
E000
7000
7830
3FF0
1FF0
07C0
ENDCHAR
STARTCHAR 0041
ENCODING 65
SWIDTH 600 0
DWIDTH 15 0
BBX 14 18 -1 0
BITMAP
00F8
01F8
01F8
03F8
03B8
03B8
0738
0738
0F38
0E38
1E38
1FF8
3FF8
3FFC
783C
783C
F03C
F03C
ENDCHAR
STARTCHAR 0042
ENCODING 66
SWIDTH 600 0
DWIDTH 15 0
BBX 14 18 0 0
BITMAP
1FF0
1FFC
1FFC
1C3C
3C1C
3C1C
3C3C
3FF8
3FC0
7FF0
7878
7838
703C
7038
F078
FFF8
FFF0
FFC0
ENDCHAR
STARTCHAR 0043
ENCODING 67
SWIDTH 600 0
DWIDTH 15 0
BBX 14 18 1 0
BITMAP
01FC
07F8
0FF8
1E08
3C08
3C00
7800
7800
7000
F000
F000
F000
F000
F020
7860
7FE0
3FC0
0F80
ENDCHAR
STARTCHAR 0044
ENCODING 68
SWIDTH 600 0
DWIDTH 15 0
BBX 14 18 0 0
BITMAP
1FE0
1FF8
1FF8
1C7C
1C3C
3C3C
3C3C
3C3C
383C
383C
783C
7838
7878
7078
70F0
FFE0
FFC0
FF00
ENDCHAR
STARTCHAR 0045
ENCODING 69
SWIDTH 600 0
DWIDTH 15 0
BBX 15 18 0 0
BITMAP
0FFE
0FFE
1FFE
1E00
1E00
1C00
1C00
3FF8
3FF8
3FF8
3800
3800
7800
7800
7800
7FF0
7FF0
FFF0
ENDCHAR
STARTCHAR 0046
ENCODING 70
SWIDTH 600 0
DWIDTH 15 0
BBX 14 18 1 0
BITMAP
1FFC
1FFC
1FFC
3C00
3C00
3C00
3800
3FF0
7FF0
7FF0
7800
7000
7000
F000
F000
F000
E000
E000
ENDCHAR
STARTCHAR 0047
ENCODING 71
SWIDTH 600 0
DWIDTH 15 0
BBX 14 18 1 0
BITMAP
01FC
07F8
0FF8
1E08
3C00
3C00
7800
7800
71F8
F1F8
F1F0
F070
F070
F070
78F0
7FE0
3FE0
0F80
ENDCHAR
STARTCHAR 0048
ENCODING 72
SWIDTH 600 0
DWIDTH 15 0
BBX 15 18 0 0
BITMAP
1E1E
1E1E
1E1E
1C1C
1C1C
3C3C
3C3C
3FFC
3FF8
3FF8
7878
7878
7878
7078
7070
F0F0
F0F0
F0F0
ENDCHAR
STARTCHAR 0049
ENCODING 73
SWIDTH 600 0
DWIDTH 15 0
BBX 15 18 0 0
BITMAP
0FFE
0FFC
1FFC
01C0
01C0
03C0
03C0
03C0
0380
0380
0780
0780
0780
0700
0700
7FF0
7FF0
FFE0
ENDCHAR
STARTCHAR 004A
ENCODING 74
SWIDTH 600 0
DWIDTH 15 0
BBX 14 18 0 0
BITMAP
03FC
03FC
07FC
0038
0038
0078
0078
0078
0070
0070
00F0
00F0
00F0
80E0
E1E0
FFC0
FFC0
3F00
ENDCHAR
STARTCHAR 004B
ENCODING 75
SWIDTH 600 0
DWIDTH 15 0
BBX 17 18 0 0
BITMAP
1E0F80
1E1E00
1C3C00
1C7800
3CF000
3DE000
3FC000
3F8000
3FC000
7FC000
7DE000
79E000
70E000
70F000
F0F000
F07000
F07800
E03800
ENDCHAR
STARTCHAR 004C
ENCODING 76
SWIDTH 600 0
DWIDTH 15 0
BBX 12 18 1 0
BITMAP
1E00
1E00
1E00
1C00
1C00
3C00
3C00
3C00
3800
3800
7800
7800
7800
7800
7000
FFF0
FFF0
FFE0
ENDCHAR
STARTCHAR 004D
ENCODING 77
SWIDTH 600 0
DWIDTH 15 0
BBX 17 18 -1 0
BITMAP
0F0F80
0F0F00
1F1F00
1F1F00
1F3F00
1FB700
1FFE00
3BEE00
39EE00
39EE00
39CE00
39DE00
701C00
701C00
701C00
701C00
703C00
E03800
ENDCHAR
STARTCHAR 004E
ENCODING 78
SWIDTH 600 0
DWIDTH 15 0
BBX 15 18 0 0
BITMAP
1E0E
1E0E
1E0E
1F1E
3F1C
3B1C
3B1C
3B1C
3BBC
7BB8
71B8
71B8
71B8
71F8
F1F0
E0F0
E0F0
E0F0
ENDCHAR
STARTCHAR 004F
ENCODING 79
SWIDTH 600 0
DWIDTH 15 0
BBX 13 18 1 0
BITMAP
07C0
0FF0
1FF8
3C78
7878
7838
7038
F078
F078
F078
F078
E070
E0F0
F0F0
F1E0
FFC0
7F80
1F00
ENDCHAR
STARTCHAR 0050
ENCODING 80
SWIDTH 600 0
DWIDTH 15 0
BBX 15 18 0 0
BITMAP
0FF0
1FFC
1FFC
1E1E
1C1E
1C1E
3C1C
3C3C
3FFC
3FF8
3FE0
7800
7800
7800
7000
7000
F000
F000
ENDCHAR
STARTCHAR 0051
ENCODING 81
SWIDTH 600 0
DWIDTH 15 0
BBX 13 22 1 -4
BITMAP
07C0
0FF0
1FF8
3C78
7878
7838
7038
F078
F078
F078
F078
E070
E0F0
F0F0
F1E0
FFE0
7FC0
1F80
0380
03C0
01E0
01F0
ENDCHAR
STARTCHAR 0052
ENCODING 82
SWIDTH 600 0
DWIDTH 15 0
BBX 14 18 0 0
BITMAP
1FF0
1FF8
1FFC
1E3C
1C3C
3C3C
3C3C
3C78
3FF0
3FC0
7FE0
78E0
78F0
7870
7070
7078
F078
F038
ENDCHAR
STARTCHAR 0053
ENCODING 83
SWIDTH 600 0
DWIDTH 15 0
BBX 14 18 0 0
BITMAP
03F8
0FFC
1FFC
1E0C
3C00
3C00
3E00
1F80
1FE0
07F0
00F8
0078
0078
8078
E0F8
FFF0
FFE0
3F80
ENDCHAR
STARTCHAR 0054
ENCODING 84
SWIDTH 600 0
DWIDTH 15 0
BBX 14 18 2 0
BITMAP
7FFC
FFF8
FFF8
0700
0700
0F00
0F00
0F00
0E00
0E00
1E00
1E00
1E00
1C00
1C00
3C00
3C00
3C00
ENDCHAR
STARTCHAR 0055
ENCODING 85
SWIDTH 600 0
DWIDTH 15 0
BBX 15 18 1 0
BITMAP
3C1E
381C
383C
783C
783C
7838
7038
7078
F078
F078
F070
E070
E0F0
E0F0
F1E0
FFE0
7FC0
3F00
ENDCHAR
STARTCHAR 0056
ENCODING 86
SWIDTH 600 0
DWIDTH 15 0
BBX 14 18 2 0
BITMAP
F03C
703C
7078
7078
7070
70F0
70E0
71E0
71C0
71C0
73C0
7380
7780
7700
7700
7E00
7E00
7E00
ENDCHAR
STARTCHAR 0057
ENCODING 87
SWIDTH 600 0
DWIDTH 15 0
BBX 16 18 1 0
BITMAP
700F
700E
700E
F00E
E39C
E79C
E79C
E7B8
EFB8
EDB8
FDB0
F9F0
F9F0
F9F0
F1E0
F1E0
E1E0
E1C0
ENDCHAR
STARTCHAR 0058
ENCODING 88
SWIDTH 600 0
DWIDTH 15 0
BBX 18 18 -2 0
BITMAP
0F03C0
070780
078700
038F00
03DE00
03FC00
01F800
01F800
00F000
01F000
03F000
07F000
07F800
0F3800
1E3C00
3C1C00
781C00
F81E00
ENDCHAR
STARTCHAR 0059
ENCODING 89
SWIDTH 600 0
DWIDTH 15 0
BBX 15 18 2 0
BITMAP
E03E
F03C
7078
70F0
78E0
39E0
3BC0
3F80
1F80
1F00
1E00
1E00
1E00
1C00
1C00
3C00
3C00
3C00
ENDCHAR
STARTCHAR 005A
ENCODING 90
SWIDTH 600 0
DWIDTH 15 0
BBX 17 18 -1 0
BITMAP
0FFF80
0FFF00
0FFF00
001F00
003E00
007C00
00F800
00F000
01E000
03C000
078000
0F8000
1F0000
3E0000
7C0000
7FFC00
7FFC00
FFF800
ENDCHAR
STARTCHAR 005B
ENCODING 91
SWIDTH 600 0
DWIDTH 15 0
BBX 12 24 3 -3
BITMAP
0FF0
1FE0
1C00
1C00
1C00
1C00
1C00
1800
3800
3800
3800
3800
3800
3000
7000
7000
7000
7000
7000
7000
E000
E000
FF00
FF00
ENDCHAR
STARTCHAR 005C
ENCODING 92
SWIDTH 600 0
DWIDTH 15 0
BBX 13 20 1 -2
BITMAP
E000
7000
3000
3800
3800
1C00
1C00
0E00
0E00
0700
0700
0300
0380
0180
01C0
00C0
00E0
0060
0070
0078
ENDCHAR
STARTCHAR 005D
ENCODING 93
SWIDTH 600 0
DWIDTH 15 0
BBX 12 24 3 -3
BITMAP
0FF0
1FF0
00E0
00E0
00E0
00E0
00E0
00E0
00C0
01C0
01C0
01C0
01C0
01C0
0180
0380
0380
0380
0380
0380
0380
0300
FF00
FF00
ENDCHAR
STARTCHAR 005E
ENCODING 94
SWIDTH 600 0
DWIDTH 15 0
BBX 13 7 1 11
BITMAP
0700
0F80
1FC0
3DE0
38E0
7070
E038
ENDCHAR
STARTCHAR 005F
ENCODING 95
SWIDTH 600 0
DWIDTH 15 0
BBX 13 3 1 -5
BITMAP
FFF8
FFF8
FFF8
ENDCHAR
STARTCHAR 0060
ENCODING 96
SWIDTH 600 0
DWIDTH 15 0
BBX 6 5 5 15
BITMAP
E0
F0
70
38
1C
ENDCHAR
STARTCHAR 0061
ENCODING 97
SWIDTH 600 0
DWIDTH 15 0
BBX 13 14 1 0
BITMAP
0FE0
3FF0
3FF8
2078
0FF8
3FF8
7FF8
F870
F0F0
E0F0
F1F0
FFF0
FEE0
7CE0
ENDCHAR
STARTCHAR 0062
ENCODING 98
SWIDTH 600 0
DWIDTH 15 0
BBX 13 19 1 0
BITMAP
1E00
1E00
1C00
1C00
3C00
3DE0
3FF0
3FF8
3C78
7838
7838
7038
7078
7078
F070
F8F0
FFE0
EFE0
E780
ENDCHAR
STARTCHAR 0063
ENCODING 99
SWIDTH 600 0
DWIDTH 15 0
BBX 12 14 2 0
BITMAP
07E0
1FF0
3FF0
7C20
F000
F000
E000
E000
E000
E000
F040
FFC0
7FC0
1F80
ENDCHAR
STARTCHAR 0064
ENCODING 100
SWIDTH 600 0
DWIDTH 15 0
BBX 15 19 1 0
BITMAP
001E
001C
003C
003C
003C
0F38
1FB8
3FF8
78F8
7078
F078
F070
E070
E0F0
F0F0
F1F0
FFE0
7EE0
3CE0
ENDCHAR
STARTCHAR 0065
ENCODING 101
SWIDTH 600 0
DWIDTH 15 0
BBX 13 14 1 0
BITMAP
07C0
1FF0
3FF0
7878
7038
FFF8
FFF8
FFF8
E000
F000
F030
7FE0
7FE0
1FC0
ENDCHAR
STARTCHAR 0066
ENCODING 102
SWIDTH 600 0
DWIDTH 15 0
BBX 13 19 2 0
BITMAP
01F8
07F8
07F0
0F00
0F00
7FF0
FFF0
FFE0
1E00
1E00
1E00
1C00
1C00
3C00
3C00
3C00
3C00
3800
7800
ENDCHAR
STARTCHAR 0067
ENCODING 103
SWIDTH 600 0
DWIDTH 15 0
BBX 15 19 0 -5
BITMAP
079E
0FDC
1FFC
3C7C
383C
7838
7838
7838
7078
7878
78F8
7FF0
3F70
1EF0
00F0
41E0
7FE0
FFC0
7F00
ENDCHAR
STARTCHAR 0068
ENCODING 104
SWIDTH 600 0
DWIDTH 15 0
BBX 13 19 1 0
BITMAP
1E00
1E00
1E00
1C00
1C00
3DE0
3FF0
3FF8
3C78
3878
7870
7870
78F0
70F0
70F0
F0E0
F0E0
F1E0
E1E0
ENDCHAR
STARTCHAR 0069
ENCODING 105
SWIDTH 600 0
DWIDTH 15 0
BBX 10 20 3 0
BITMAP
0700
0700
0F00
0F00
0000
0000
7E00
FE00
FE00
1C00
1C00
3C00
3C00
3C00
3800
3800
7800
7FC0
3FC0
1FC0
ENDCHAR
STARTCHAR 006A
ENCODING 106
SWIDTH 600 0
DWIDTH 15 0
BBX 13 25 0 -5
BITMAP
0038
0078
0078
0078
0000
0000
07F0
0FF0
0FF0
00E0
00E0
01E0
01E0
01E0
01C0
01C0
03C0
03C0
03C0
0380
0780
0780
FF00
FF00
FC00
ENDCHAR
STARTCHAR 006B
ENCODING 107
SWIDTH 600 0
DWIDTH 15 0
BBX 15 19 1 0
BITMAP
1E00
1E00
1E00
1C00
1C00
3C3E
3CF8
3DF0
3BE0
3F80
7F80
7F80
7F80
7BC0
71C0
F1E0
F1E0
F0F0
E0F0
ENDCHAR
STARTCHAR 006C
ENCODING 108
SWIDTH 600 0
DWIDTH 15 0
BBX 10 19 3 0
BITMAP
FF00
FE00
FE00
1E00
1E00
1C00
1C00
1C00
3C00
3C00
3800
3800
7800
7800
7800
7800
7FC0
7F80
3F80
ENDCHAR
STARTCHAR 006D
ENCODING 109
SWIDTH 600 0
DWIDTH 15 0
BBX 15 14 0 0
BITMAP
3BBC
3FFE
3FFE
39CE
71CE
739C
739C
739C
739C
E39C
E738
E738
E738
E738
ENDCHAR
STARTCHAR 006E
ENCODING 110
SWIDTH 600 0
DWIDTH 15 0
BBX 13 14 1 0
BITMAP
3DE0
3FF0
3FF8
3C78
3878
7870
7870
78F0
70F0
70F0
F0E0
F0E0
F1E0
E1E0
ENDCHAR
STARTCHAR 006F
ENCODING 111
SWIDTH 600 0
DWIDTH 15 0
BBX 13 14 1 0
BITMAP
07C0
1FF0
3FF0
7C78
7878
F078
F078
F078
F078
F0F0
F0F0
7FE0
7FC0
1F00
ENDCHAR
STARTCHAR 0070
ENCODING 112
SWIDTH 600 0
DWIDTH 15 0
BBX 14 19 0 -5
BITMAP
1CF0
1DF8
1FFC
1E3C
3C1C
3C1C
3C1C
383C
383C
7838
7C78
7FF0
77F0
73C0
F000
F000
F000
E000
E000
ENDCHAR
STARTCHAR 0071
ENCODING 113
SWIDTH 600 0
DWIDTH 15 0
BBX 13 19 1 -5
BITMAP
0F38
1FB8
3FB8
78F8
7078
F070
F070
E070
E0F0
E0F0
F1E0
FFE0
7FE0
3DE0
01E0
01C0
01C0
01C0
03C0
ENDCHAR
STARTCHAR 0072
ENCODING 114
SWIDTH 600 0
DWIDTH 15 0
BBX 13 14 2 0
BITMAP
38F8
3BF0
3FF0
3E10
7C00
7800
7800
7000
7000
F000
F000
F000
E000
E000
ENDCHAR
STARTCHAR 0073
ENCODING 115
SWIDTH 600 0
DWIDTH 15 0
BBX 12 14 1 0
BITMAP
07E0
1FF0
3FF0
3C10
3800
3C00
1F80
0FE0
01E0
00E0
40E0
FFE0
FFC0
3F00
ENDCHAR
STARTCHAR 0074
ENCODING 116
SWIDTH 600 0
DWIDTH 15 0
BBX 12 18 2 0
BITMAP
0700
0700
0F00
0F00
FFF0
FFF0
FFF0
1E00
1E00
1E00
1C00
1C00
3C00
3C00
3C00
3FC0
3FC0
0FC0
ENDCHAR
STARTCHAR 0075
ENCODING 117
SWIDTH 600 0
DWIDTH 15 0
BBX 13 14 1 0
BITMAP
3C38
3C78
3878
3878
7870
7870
78F0
70F0
70F0
F0E0
F1E0
FFE0
7FE0
3DE0
ENDCHAR
STARTCHAR 0076
ENCODING 118
SWIDTH 600 0
DWIDTH 15 0
BBX 13 14 2 0
BITMAP
F078
F070
F0F0
70E0
71E0
71C0
73C0
7380
7380
7700
7700
7F00
3E00
3E00
ENDCHAR
STARTCHAR 0077
ENCODING 119
SWIDTH 600 0
DWIDTH 15 0
BBX 15 14 1 0
BITMAP
E00E
E00E
E01C
E01C
E71C
E738
EF38
ED30
ED70
F970
F9E0
F9E0
F1E0
F1C0
ENDCHAR
STARTCHAR 0078
ENCODING 120
SWIDTH 600 0
DWIDTH 15 0
BBX 16 14 -1 0
BITMAP
1E0F
0F1E
0F3C
0778
07F0
03E0
03E0
03C0
07E0
0FE0
1EF0
3C70
7878
F83C
ENDCHAR
STARTCHAR 0079
ENCODING 121
SWIDTH 600 0
DWIDTH 15 0
BBX 17 19 -1 -5
BITMAP
1E0780
1E0F00
0E0E00
0E1E00
0E3C00
0F3C00
0F7800
077000
07F000
07E000
07E000
07C000
03C000
038000
070000
0F0000
7E0000
FE0000
F80000
ENDCHAR
STARTCHAR 007A
ENCODING 122
SWIDTH 600 0
DWIDTH 15 0
BBX 14 14 1 0
BITMAP
3FFC
3FF8
3FF8
00F0
01E0
03C0
0780
0F00
1E00
3C00
7800
FFE0
FFE0
FFE0
ENDCHAR
STARTCHAR 007B
ENCODING 123
SWIDTH 600 0
DWIDTH 15 0
BBX 13 24 1 -5
BITMAP
00F8
01F8
03F8
0380
0780
0780
0700
0700
0700
0F00
1E00
FE00
F800
FC00
1E00
1E00
1C00
1C00
1C00
1C00
3C00
3F80
1F80
0F80
ENDCHAR
STARTCHAR 007C
ENCODING 124
SWIDTH 600 0
DWIDTH 15 0
BBX 3 25 6 -6
BITMAP
E0
E0
E0
E0
E0
E0
E0
E0
E0
E0
E0
00
00
00
E0
E0
E0
E0
E0
E0
E0
E0
E0
E0
E0
ENDCHAR
STARTCHAR 007D
ENCODING 125
SWIDTH 600 0
DWIDTH 15 0
BBX 14 24 0 -5
BITMAP
07C0
0FE0
0FE0
01E0
00E0
01E0
01C0
01C0
01C0
01C0
01E0
01FC
007C
03F8
03C0
0780
0780
0700
0700
0700
0F00
7E00
FE00
F800
ENDCHAR
STARTCHAR 007E
ENCODING 126
SWIDTH 600 0
DWIDTH 15 0
BBX 13 7 1 4
BITMAP
3838
7E38
7E38
E738
E7F8
E3F0
E1E0
ENDCHAR
STARTCHAR 00A0
ENCODING 160
SWIDTH 600 0
DWIDTH 15 0
BBX 0 0 0 0
BITMAP
ENDCHAR
STARTCHAR 00A1
ENCODING 161
SWIDTH 600 0
DWIDTH 15 0
BBX 7 19 4 0
BITMAP
0E
1E
1E
1C
00
00
00
18
38
38
38
78
78
78
70
70
F0
F0
F0
ENDCHAR
STARTCHAR 00A2
ENCODING 162
SWIDTH 600 0
DWIDTH 15 0
BBX 12 21 1 -3
BITMAP
0040
00C0
00C0
00C0
07F0
1FF0
3FF0
3990
7980
7180
F100
E300
E300
F300
7320
7FC0
3FC0
0F80
0600
0600
0C00
ENDCHAR
STARTCHAR 00A3
ENCODING 163
SWIDTH 600 0
DWIDTH 15 0
BBX 15 18 0 0
BITMAP
007E
01FE
03FE
03C2
0780
0780
0700
0700
3FF0
3FF0
3FF0
0E00
0E00
1E00
1E00
FFF8
FFF0
FFF0
ENDCHAR
STARTCHAR 00A4
ENCODING 164
SWIDTH 600 0
DWIDTH 15 0
BBX 12 12 2 2
BITMAP
4020
6060
FFF0
3FC0
39C0
30C0
30C0
39C0
3FC0
FFF0
6060
4020
ENDCHAR
STARTCHAR 00A5
ENCODING 165
SWIDTH 600 0
DWIDTH 15 0
BBX 16 18 0 0
BITMAP
3C0F
3C1E
3C1E
1E3C
1E78
1E70
7EFE
7FFC
8FC0
0780
FFFC
FFFC
FFF8
0700
0F00
0F00
0F00
0E00
ENDCHAR
STARTCHAR 00A6
ENCODING 166
SWIDTH 600 0
DWIDTH 15 0
BBX 3 22 6 -4
BITMAP
E0
E0
E0
E0
E0
E0
E0
E0
E0
00
00
00
00
E0
E0
E0
E0
E0
E0
E0
E0
E0
ENDCHAR
STARTCHAR 00A7
ENCODING 167
SWIDTH 600 0
DWIDTH 15 0
BBX 12 21 1 -3
BITMAP
07E0
0FF0
1FF0
1C10
1C00
1C00
0F00
1F80
3BE0
70E0
7070
7860
3CE0
1FC0
0780
03C0
01C0
43C0
7FC0
FF80
7E00
ENDCHAR
STARTCHAR 00A8
ENCODING 168
SWIDTH 600 0
DWIDTH 15 0
BBX 8 3 5 16
BITMAP
67
E7
E7
ENDCHAR
STARTCHAR 00A9
ENCODING 169
SWIDTH 600 0
DWIDTH 15 0
BBX 15 15 0 2
BITMAP
07C0
1FF0
3838
63CC
6FC4
CC26
DC06
DC06
DC06
CC26
6FC4
63CC
3838
1FF0
07C0
ENDCHAR
STARTCHAR 00AA
ENCODING 170
SWIDTH 600 0
DWIDTH 15 0
BBX 10 13 3 6
BITMAP
1F80
3FC0
21C0
0FC0
7FC0
7180
E380
E380
7F80
3380
0000
FF00
FF00
ENDCHAR
STARTCHAR 00AB
ENCODING 171
SWIDTH 600 0
DWIDTH 15 0
BBX 12 11 1 2
BITMAP
0210
0630
0C70
3CE0
73C0
E300
E780
71C0
38E0
1860
0840
ENDCHAR
STARTCHAR 00AC
ENCODING 172
SWIDTH 600 0
DWIDTH 15 0
BBX 13 6 1 5
BITMAP
FFF8
FFF8
FFF8
0038
0038
0038
ENDCHAR
STARTCHAR 00AD
ENCODING 173
SWIDTH 600 0
DWIDTH 15 0
BBX 8 4 3 5
BITMAP
7F
FF
FF
FF
ENDCHAR
STARTCHAR 00AE
ENCODING 174
SWIDTH 600 0
DWIDTH 15 0
BBX 15 15 0 2
BITMAP
07C0
1FF0
3838
600C
6FCC
CCE6
CCE6
CF86
CCC6
CCC6
6C64
600C
3838
1FF0
07C0
ENDCHAR
STARTCHAR 00AF
ENCODING 175
SWIDTH 600 0
DWIDTH 15 0
BBX 8 3 5 17
BITMAP
7F
FF
FF
ENDCHAR
STARTCHAR 00B0
ENCODING 176
SWIDTH 600 0
DWIDTH 15 0
BBX 9 8 3 10
BITMAP
1C00
7F00
6300
E180
C180
6300
7F00
3C00
ENDCHAR
STARTCHAR 00B1
ENCODING 177
SWIDTH 600 0
DWIDTH 15 0
BBX 13 15 1 0
BITMAP
0700
0700
0700
0700
FFF8
FFF8
FFF8
0700
0700
0700
0700
0000
FFF8
FFF8
FFF8
ENDCHAR
STARTCHAR 00B2
ENCODING 178
SWIDTH 600 0
DWIDTH 15 0
BBX 10 10 3 14
BITMAP
1F00
3F80
21C0
0180
0300
0600
1C00
3000
FF80
FF00
ENDCHAR
STARTCHAR 00B3
ENCODING 179
SWIDTH 600 0
DWIDTH 15 0
BBX 10 10 3 14
BITMAP
1F80
3FC0
01C0
0F80
1F00
0380
0180
0380
7F00
FE00
ENDCHAR
STARTCHAR 00B4
ENCODING 180
SWIDTH 600 0
DWIDTH 15 0
BBX 8 5 7 15
BITMAP
0F
1E
38
70
E0
ENDCHAR
STARTCHAR 00B5
ENCODING 181
SWIDTH 600 0
DWIDTH 15 0
BBX 15 19 -1 -5
BITMAP
0F1E
0E1E
1E1E
1E1C
1E1C
1C3C
1C3C
1C3C
3C38
3C78
3C78
3FFC
3FFC
7F3C
7800
7800
7000
7000
F000
ENDCHAR
STARTCHAR 00B6
ENCODING 182
SWIDTH 600 0
DWIDTH 15 0
BBX 14 21 1 -3
BITMAP
0FFC
1FF8
3F18
7F18
FF38
FF30
FF30
FE30
7E30
3E70
0670
0E60
0E60
0C60
0CE0
0CE0
1CC0
1CC0
18C0
19C0
19C0
ENDCHAR
STARTCHAR 00B7
ENCODING 183
SWIDTH 600 0
DWIDTH 15 0
BBX 4 4 6 7
BITMAP
E0
E0
F0
E0
ENDCHAR
STARTCHAR 00B8
ENCODING 184
SWIDTH 600 0
DWIDTH 15 0
BBX 6 5 2 -5
BITMAP
18
0C
0C
F8
F0
ENDCHAR
STARTCHAR 00B9
ENCODING 185
SWIDTH 600 0
DWIDTH 15 0
BBX 8 10 4 14
BITMAP
3E
7E
0C
0C
1C
1C
18
18
FF
FF
ENDCHAR
STARTCHAR 00BA
ENCODING 186
SWIDTH 600 0
DWIDTH 15 0
BBX 10 13 3 5
BITMAP
0F00
3F80
31C0
71C0
61C0
61C0
61C0
7380
3F00
1C00
0000
FF80
FF00
ENDCHAR
STARTCHAR 00BB
ENCODING 187
SWIDTH 600 0
DWIDTH 15 0
BBX 13 11 1 2
BITMAP
2100
3180
39C0
3CE0
1E78
0E30
1E70
39E0
7380
C300
8200
ENDCHAR
STARTCHAR 00BC
ENCODING 188
SWIDTH 600 0
DWIDTH 15 0
BBX 14 24 0 -3
BITMAP
0700
3E00
3600
0600
0E00
0E00
0C00
0C00
0C00
7F80
FF0C
00FC
0FC0
7C00
403C
0038
0058
00D8
01B8
0330
07FC
07F8
0030
0070
ENDCHAR
STARTCHAR 00BD
ENCODING 189
SWIDTH 600 0
DWIDTH 15 0
BBX 14 24 0 -3
BITMAP
0700
3E00
3600
0600
0E00
0E00
0C00
0C00
0C00
7F80
FF0C
01F8
1F80
70F8
01FC
010C
000C
001C
0038
0070
00C0
0380
07FC
07F8
ENDCHAR
STARTCHAR 00BE
ENCODING 190
SWIDTH 600 0
DWIDTH 15 0
BBX 13 24 1 -3
BITMAP
3E00
3F80
4380
0380
1F00
1E00
0300
0300
8700
FF00
FC18
01F8
1F80
F800
8038
0070
00F0
01B0
0370
0660
0FF8
0FF0
0060
00E0
ENDCHAR
STARTCHAR 00BF
ENCODING 191
SWIDTH 600 0
DWIDTH 15 0
BBX 10 19 1 0
BITMAP
01C0
03C0
03C0
0180
0000
03C0
0380
0380
0780
0F00
1E00
3C00
7800
F000
F040
F0C0
FFC0
7FC0
3F00
ENDCHAR
STARTCHAR 00C0
ENCODING 192
SWIDTH 600 0
DWIDTH 15 0
BBX 14 22 -1 0
BITMAP
01E0
00E0
0070
0000
00F8
01F8
01F8
03F8
03B8
03B8
0738
0738
0F38
0E38
1E38
1FF8
3FF8
3FFC
783C
783C
F03C
F03C
ENDCHAR
STARTCHAR 00C1
ENCODING 193
SWIDTH 600 0
DWIDTH 15 0
BBX 15 23 -1 0
BITMAP
000E
001C
0030
0060
0000
00F8
01F8
01F8
03F8
03B8
03B8
0738
0738
0F38
0E38
1E38
1FF8
3FF8
3FFC
783C
783C
F03C
F03C
ENDCHAR
STARTCHAR 00C2
ENCODING 194
SWIDTH 600 0
DWIDTH 15 0
BBX 15 22 -1 0
BITMAP
00F8
01DC
038E
0000
00F8
01F8
01F8
03F8
03B8
03B8
0738
0738
0F38
0E38
1E38
1FF8
3FF8
3FFC
783C
783C
F03C
F03C
ENDCHAR
STARTCHAR 00C3
ENCODING 195
SWIDTH 600 0
DWIDTH 15 0
BBX 15 23 -1 0
BITMAP
00C2
01E6
033C
031C
0000
00F8
01F8
01F8
03F8
03B8
03B8
0738
0738
0F38
0E38
1E38
1FF8
3FF8
3FFC
783C
783C
F03C
F03C
ENDCHAR
STARTCHAR 00C4
ENCODING 196
SWIDTH 600 0
DWIDTH 15 0
BBX 15 23 -1 0
BITMAP
01CE
01CE
01DC
0000
0000
00F8
01F8
01F8
03F8
03B8
03B8
0738
0738
0F38
0E38
1E38
1FF8
3FF8
3FFC
783C
783C
F03C
F03C
ENDCHAR
STARTCHAR 00C5
ENCODING 197
SWIDTH 600 0
DWIDTH 15 0
BBX 14 23 -1 0
BITMAP
00F0
01F8
019C
018C
019C
01F8
01F8
01F8
03F8
03B8
07B8
0738
0738
0F38
0E38
1E38
1FF8
3FF8
3FFC
783C
703C
F03C
E03C
ENDCHAR
STARTCHAR 00C6
ENCODING 198
SWIDTH 600 0
DWIDTH 15 0
BBX 18 18 -2 0
BITMAP
00FFC0
01FFC0
01FF80
01DC00
03BC00
03B800
073800
073F00
0E3F00
0E7F00
1E7000
1FF000
1FF000
3FF000
387000
70FE00
70FE00
F0FE00
ENDCHAR
STARTCHAR 00C7
ENCODING 199
SWIDTH 600 0
DWIDTH 15 0
BBX 14 23 1 -5
BITMAP
01FC
07F8
0FF8
1E08
3C08
3C00
7800
7800
7000
F000
F000
F000
F000
F000
7820
7FE0
7FC0
1FC0
0600
0300
0300
3F00
3E00
ENDCHAR
STARTCHAR 00C8
ENCODING 200
SWIDTH 600 0
DWIDTH 15 0
BBX 15 22 0 0
BITMAP
03C0
00C0
0060
0000
0FFE
0FFE
1FFE
1E00
1E00
1C00
1C00
3FF8
3FF8
3FF8
3800
3800
7800
7800
7800
7FF0
7FF0
FFF0
ENDCHAR
STARTCHAR 00C9
ENCODING 201
SWIDTH 600 0
DWIDTH 15 0
BBX 15 23 0 0
BITMAP
001C
0038
0070
00E0
0000
0FFE
0FFE
1FFE
1E00
1E00
1C00
1C00
3FF8
3FF8
3FF8
3800
3800
7800
7800
7800
7FF0
7FF0
FFF0
ENDCHAR
STARTCHAR 00CA
ENCODING 202
SWIDTH 600 0
DWIDTH 15 0
BBX 15 22 0 0
BITMAP
00F8
01F8
070C
0000
0FFE
0FFE
1FFE
1E00
1E00
1C00
1C00
3FF8
3FF8
3FF8
3800
3800
7800
7800
7800
7FF0
7FF0
FFF0
ENDCHAR
STARTCHAR 00CB
ENCODING 203
SWIDTH 600 0
DWIDTH 15 0
BBX 15 23 0 0
BITMAP
039C
039C
039C
0000
0000
0FFE
0FFE
1FFE
1E00
1E00
1C00
1C00
3FF8
3FF8
3FF8
3800
3800
7800
7800
7800
7FF0
7FF0
FFF0
ENDCHAR
STARTCHAR 00CC
ENCODING 204
SWIDTH 600 0
DWIDTH 15 0
BBX 15 22 0 0
BITMAP
03C0
01C0
00E0
0000
0FFE
0FFC
1FFC
01C0
01C0
03C0
03C0
03C0
0380
0380
0780
0780
0780
0700
0700
7FF0
7FF0
FFE0
ENDCHAR
STARTCHAR 00CD
ENCODING 205
SWIDTH 600 0
DWIDTH 15 0
BBX 15 23 0 0
BITMAP
003C
0078
00E0
01C0
0000
0FFE
0FFC
1FFC
01C0
01C0
03C0
03C0
03C0
0380
0380
0780
0780
0780
0700
0700
7FF0
7FF0
FFE0
ENDCHAR
STARTCHAR 00CE
ENCODING 206
SWIDTH 600 0
DWIDTH 15 0
BBX 15 22 0 0
BITMAP
01F0
03F8
071C
0000
0FFE
0FFC
1FFC
01C0
01C0
03C0
03C0
03C0
0380
0380
0780
0780
0780
0700
0700
7FF0
7FF0
FFE0
ENDCHAR
STARTCHAR 00CF
ENCODING 207
SWIDTH 600 0
DWIDTH 15 0
BBX 15 23 0 0
BITMAP
039C
039C
0398
0000
0000
0FFE
0FFC
1FFC
01C0
01C0
03C0
03C0
03C0
0380
0380
0780
0780
0780
0700
0700
7FF0
7FF0
FFE0
ENDCHAR
STARTCHAR 00D0
ENCODING 208
SWIDTH 600 0
DWIDTH 15 0
BBX 15 18 0 0
BITMAP
0FE0
0FF8
1FFC
1E3C
1C1C
1C1E
3C1E
7F9E
FF1C
FF3C
383C
383C
7838
7878
78F0
7FF0
7FE0
FF80
ENDCHAR
STARTCHAR 00D1
ENCODING 209
SWIDTH 600 0
DWIDTH 15 0
BBX 15 23 0 0
BITMAP
01C6
03E4
037C
0238
0000
1E0E
1E0E
1E0E
1F1E
3F1C
3B1C
3B1C
3B1C
3BBC
7BB8
71B8
71B8
71B8
71F8
F1F0
E0F0
E0F0
E0F0
ENDCHAR
STARTCHAR 00D2
ENCODING 210
SWIDTH 600 0
DWIDTH 15 0
BBX 13 23 1 0
BITMAP
0780
0180
00C0
0000
0000
07C0
0FF0
1FF8
3C78
7878
7838
7038
F078
F078
F078
F078
E070
E0F0
F0F0
F1E0
FFC0
7F80
1F00
ENDCHAR
STARTCHAR 00D3
ENCODING 211
SWIDTH 600 0
DWIDTH 15 0
BBX 13 23 1 0
BITMAP
0078
00E0
01C0
0180
0000
07C0
0FF0
1FF8
3C78
7878
7838
7038
F078
F078
F078
F078
E070
E0F0
F0F0
F1E0
FFC0
7F80
1F00
ENDCHAR
STARTCHAR 00D4
ENCODING 212
SWIDTH 600 0
DWIDTH 15 0
BBX 13 23 1 0
BITMAP
03E0
0770
0E38
0000
0000
07C0
0FF0
1FF8
3C78
7878
7838
7038
F078
F078
F078
F078
E070
E0F0
F0F0
F1E0
FFC0
7F80
1F00
ENDCHAR
STARTCHAR 00D5
ENCODING 213
SWIDTH 600 0
DWIDTH 15 0
BBX 13 23 1 0
BITMAP
0398
07F8
0C70
0000
0000
07C0
0FF0
1FF8
3C78
7878
7838
7038
F078
F078
F078
F078
E070
E0F0
F0F0
F1E0
FFC0
7F80
1F00
ENDCHAR
STARTCHAR 00D6
ENCODING 214
SWIDTH 600 0
DWIDTH 15 0
BBX 13 23 1 0
BITMAP
0738
0738
0770
0000
0000
07C0
0FF0
1FF8
3C78
7878
7838
7038
F078
F078
F078
F078
E070
E0F0
F0F0
F1E0
FFC0
7F80
1F00
ENDCHAR
STARTCHAR 00D7
ENCODING 215
SWIDTH 600 0
DWIDTH 15 0
BBX 13 12 1 2
BITMAP
2020
7070
F8F8
3DE0
1FC0
0F80
0F80
1FC0
3DE0
78F0
F078
2020
ENDCHAR
STARTCHAR 00D8
ENCODING 216
SWIDTH 600 0
DWIDTH 15 0
BBX 19 18 -2 0
BITMAP
00FCE0
01FFC0
03FF80
078F00
0F0F00
0F1F00
0E3F00
1E7F00
1EEF00
1FCF00
1FCF00
1F8E00
1F1E00
1E1E00
1E3C00
3FF800
7FF000
E7E000
ENDCHAR
STARTCHAR 00D9
ENCODING 217
SWIDTH 600 0
DWIDTH 15 0
BBX 15 23 1 0
BITMAP
0780
0380
01C0
0000
0000
3C1E
381C
383C
783C
783C
7838
7038
7078
F078
F078
F070
E070
E0F0
E0F0
F1E0
FFE0
7FC0
3F00
ENDCHAR
STARTCHAR 00DA
ENCODING 218
SWIDTH 600 0
DWIDTH 15 0
BBX 15 23 1 0
BITMAP
0078
00E0
01C0
0180
0000
3C1E
381C
383C
783C
783C
7838
7038
7078
F078
F078
F070
E070
E0F0
E0F0
F1E0
FFE0
7FC0
3F00
ENDCHAR
STARTCHAR 00DB
ENCODING 219
SWIDTH 600 0
DWIDTH 15 0
BBX 15 23 1 0
BITMAP
03E0
07F0
0E38
0000
0000
3C1E
381C
383C
783C
783C
7838
7038
7078
F078
F078
F070
E070
E0F0
E0F0
F1E0
FFE0
7FC0
3F00
ENDCHAR
STARTCHAR 00DC
ENCODING 220
SWIDTH 600 0
DWIDTH 15 0
BBX 15 23 1 0
BITMAP
0738
0738
0730
0000
0000
3C1E
381C
383C
783C
783C
7838
7038
7078
F078
F078
F070
E070
E0F0
E0F0
F1E0
FFE0
7FC0
3F00
ENDCHAR
STARTCHAR 00DD
ENCODING 221
SWIDTH 600 0
DWIDTH 15 0
BBX 15 23 2 0
BITMAP
0070
00E0
0180
0300
0000
E03E
F03C
7078
70F0
78E0
39E0
3BC0
3F80
1F80
1F00
1E00
1E00
1E00
1C00
1C00
3C00
3C00
3C00
ENDCHAR
STARTCHAR 00DE
ENCODING 222
SWIDTH 600 0
DWIDTH 15 0
BBX 14 18 0 0
BITMAP
0E00
1E00
1E00
1FE0
1FF8
1FFC
3C3C
3C3C
3C3C
383C
3878
7FF8
7FF0
7FC0
7000
7000
F000
F000
ENDCHAR
STARTCHAR 00DF
ENCODING 223
SWIDTH 600 0
DWIDTH 15 0
BBX 14 19 0 0
BITMAP
01F0
07F8
0FFC
0F1C
1E1C
1E7C
1CF0
1DE0
3DC0
3DE0
3CF0
38F8
387C
783C
783C
7C3C
77F8
77F8
F7E0
ENDCHAR
STARTCHAR 00E0
ENCODING 224
SWIDTH 600 0
DWIDTH 15 0
BBX 13 21 1 0
BITMAP
0E00
0700
0380
0380
01C0
0000
0000
0FE0
3FF0
3FF8
2078
0FF8
3FF8
7FF8
F870
F0F0
E0F0
E1F0
F3F0
FFE0
3CE0
ENDCHAR
STARTCHAR 00E1
ENCODING 225
SWIDTH 600 0
DWIDTH 15 0
BBX 14 21 1 0
BITMAP
003C
0078
00F0
00E0
0380
0000
0000
0FE0
3FF0
3FF8
2078
01F8
3FF8
7FF8
F870
F0F0
E0F0
E1F0
F3F0
FFE0
7CE0
ENDCHAR
STARTCHAR 00E2
ENCODING 226
SWIDTH 600 0
DWIDTH 15 0
BBX 13 21 1 0
BITMAP
00E0
01E0
03E0
0630
1C38
0000
0000
0FE0
3FF0
3FF8
2078
0FF8
3FF8
7FF8
F870
F0F0
E0F0
E1F0
F3F0
FFE0
3CE0
ENDCHAR
STARTCHAR 00E3
ENCODING 227
SWIDTH 600 0
DWIDTH 15 0
BBX 13 19 1 0
BITMAP
0718
0FF8
0C70
0000
0000
0FE0
3FF0
3FF8
2078
0FF8
3FF8
7FF8
F870
F0F0
E0F0
E1F0
F3F0
FFE0
3CE0
ENDCHAR
STARTCHAR 00E4
ENCODING 228
SWIDTH 600 0
DWIDTH 15 0
BBX 13 19 1 0
BITMAP
0738
0730
0E70
0000
0000
0FE0
3FF0
3FF8
2078
0FF8
3FF8
7FF8
F870
F0F0
E0F0
E1F0
F3F0
FFE0
3CE0
ENDCHAR
STARTCHAR 00E5
ENCODING 229
SWIDTH 600 0
DWIDTH 15 0
BBX 13 23 1 0
BITMAP
01C0
03E0
0630
0630
0630
0630
03E0
01C0
0000
0FE0
3FF0
3FF8
2078
0FF8
3FF8
7FF8
F870
F0F0
E0F0
E1F0
F3F0
FFE0
3CE0
ENDCHAR
STARTCHAR 00E6
ENCODING 230
SWIDTH 600 0
DWIDTH 15 0
BBX 15 14 0 0
BITMAP
1E3C
3F7E
3FFE
23CE
01CE
1FFE
7FFE
FFFC
E380
C780
C784
FFF8
FDF8
78F0
ENDCHAR
STARTCHAR 00E7
ENCODING 231
SWIDTH 600 0
DWIDTH 15 0
BBX 12 19 2 -5
BITMAP
07E0
1FF0
3FF0
7C20
F000
F000
E000
E000
E000
E000
F040
FFC0
7FC0
3F80
0600
0600
0600
3E00
7C00
ENDCHAR
STARTCHAR 00E8
ENCODING 232
SWIDTH 600 0
DWIDTH 15 0
BBX 13 21 1 0
BITMAP
0E00
0700
0380
0380
01C0
0000
0000
07C0
1FF0
3FF0
7878
7038
FFF8
FFF8
FFF8
E000
F000
F030
7FE0
7FE0
1FC0
ENDCHAR
STARTCHAR 00E9
ENCODING 233
SWIDTH 600 0
DWIDTH 15 0
BBX 14 21 1 0
BITMAP
003C
0070
00E0
01C0
0380
0000
0000
07C0
1FF0
3FF0
7878
7038
FFF8
FFF8
FFF8
E000
F000
F030
7FE0
7FE0
1FC0
ENDCHAR
STARTCHAR 00EA
ENCODING 234
SWIDTH 600 0
DWIDTH 15 0
BBX 13 21 1 0
BITMAP
01C0
03E0
07E0
0E70
1C30
0000
0000
07C0
1FF0
3FF0
7878
7038
FFF8
FFF8
FFF8
E000
F000
F030
7FE0
7FE0
1FC0
ENDCHAR
STARTCHAR 00EB
ENCODING 235
SWIDTH 600 0
DWIDTH 15 0
BBX 13 19 1 0
BITMAP
0E70
0E70
0E70
0000
0000
07C0
1FF0
3FF0
7878
7038
FFF8
FFF8
FFF8
E000
F000
F030
7FE0
7FE0
1FC0
ENDCHAR
STARTCHAR 00EC
ENCODING 236
SWIDTH 600 0
DWIDTH 15 0
BBX 10 20 3 0
BITMAP
7000
3800
1C00
0C00
0E00
0000
7E00
FE00
FE00
1C00
1C00
1C00
3C00
3C00
3800
3800
7800
7FC0
3FC0
1FC0
ENDCHAR
STARTCHAR 00ED
ENCODING 237
SWIDTH 600 0
DWIDTH 15 0
BBX 11 20 3 0
BITMAP
01E0
03C0
0700
0E00
0C00
0000
FE00
FC00
FC00
3C00
3C00
3C00
3800
3800
7800
7800
7800
7FC0
7F80
3F80
ENDCHAR
STARTCHAR 00EE
ENCODING 238
SWIDTH 600 0
DWIDTH 15 0
BBX 10 21 3 0
BITMAP
0E00
1F00
3B00
3380
E180
0000
0000
FE00
FC00
FC00
1C00
3C00
3C00
3800
3800
7800
7800
7800
7FC0
7F80
3F80
ENDCHAR
STARTCHAR 00EF
ENCODING 239
SWIDTH 600 0
DWIDTH 15 0
BBX 10 19 3 0
BITMAP
39C0
3B80
7380
0000
0000
FE00
FE00
FC00
1C00
1C00
3C00
3C00
3800
3800
7800
7800
7FC0
7FC0
1F80
ENDCHAR
STARTCHAR 00F0
ENCODING 240
SWIDTH 600 0
DWIDTH 15 0
BBX 14 19 1 0
BITMAP
0788
03FC
03E0
0FC0
18E0
00F0
0FF0
1FF0
3FF8
7878
7078
F078
F078
F078
F0F0
F0F0
7FE0
7FC0
1F00
ENDCHAR
STARTCHAR 00F1
ENCODING 241
SWIDTH 600 0
DWIDTH 15 0
BBX 13 19 1 0
BITMAP
0718
0FF0
08E0
0000
0000
3DE0
3FF0
3FF8
3C78
3878
7870
7870
78F0
70F0
70F0
F0E0
F0E0
F1E0
E1E0
ENDCHAR
STARTCHAR 00F2
ENCODING 242
SWIDTH 600 0
DWIDTH 15 0
BBX 13 21 1 0
BITMAP
0E00
0F00
0700
0380
01C0
0000
0000
07C0
1FF0
3FF0
7C78
7878
F078
F078
F078
F078
F0F0
F0F0
7FE0
7FC0
1F00
ENDCHAR
STARTCHAR 00F3
ENCODING 243
SWIDTH 600 0
DWIDTH 15 0
BBX 14 21 1 0
BITMAP
003C
0078
00E0
01C0
0380
0000
0000
07C0
1FF0
3FF0
7C78
7878
F078
F078
F078
F078
F0F0
F0F0
7FE0
7FC0
1F00
ENDCHAR
STARTCHAR 00F4
ENCODING 244
SWIDTH 600 0
DWIDTH 15 0
BBX 13 21 1 0
BITMAP
01C0
03E0
0760
0E70
1C30
0000
0000
07C0
1FF0
3FF0
7C78
7878
F078
F078
F078
F078
F0F0
F0F0
7FE0
7FC0
1F00
ENDCHAR
STARTCHAR 00F5
ENCODING 245
SWIDTH 600 0
DWIDTH 15 0
BBX 13 19 1 0
BITMAP
0718
0FF0
08E0
0000
0000
07C0
1FF0
3FF0
7C78
7878
F078
F078
F078
F078
F0F0
F0F0
7FE0
7FC0
1F00
ENDCHAR
STARTCHAR 00F6
ENCODING 246
SWIDTH 600 0
DWIDTH 15 0
BBX 13 19 1 0
BITMAP
0670
0E70
0E70
0000
0000
07C0
1FF0
3FF0
7C78
7878
F078
F078
F078
F078
F0F0
F0F0
7FE0
7FC0
1F00
ENDCHAR
STARTCHAR 00F7
ENCODING 247
SWIDTH 600 0
DWIDTH 15 0
BBX 13 14 1 1
BITMAP
0700
0700
0700
0700
0000
0000
FFF8
FFF8
FFF8
0000
0700
0700
0700
0700
ENDCHAR
STARTCHAR 00F8
ENCODING 248
SWIDTH 600 0
DWIDTH 15 0
BBX 17 16 -1 -1
BITMAP
000100
01F380
07FF00
0FFE00
1F1E00
1E3E00
3C7E00
3CFE00
3F9E00
3F1E00
3E3C00
3C3C00
3FF800
7FF000
E7C000
400000
ENDCHAR
STARTCHAR 00F9
ENCODING 249
SWIDTH 600 0
DWIDTH 15 0
BBX 13 21 1 0
BITMAP
0E00
0F00
0700
0380
01C0
0000
0000
3C38
3C78
3878
3878
7870
7870
78F0
70F0
70F0
F0E0
F1E0
FFE0
7FE0
3DE0
ENDCHAR
STARTCHAR 00FA
ENCODING 250
SWIDTH 600 0
DWIDTH 15 0
BBX 14 21 1 0
BITMAP
003C
0078
00E0
01C0
0380
0000
0000
3C38
3C78
3878
3878
7870
7870
78F0
70F0
70F0
F0E0
F1E0
FFE0
7FE0
3DE0
ENDCHAR
STARTCHAR 00FB
ENCODING 251
SWIDTH 600 0
DWIDTH 15 0
BBX 13 21 1 0
BITMAP
01C0
03E0
0760
0670
1C30
0000
0000
3C38
3C78
3878
3878
7870
7870
78F0
70F0
70F0
F0E0
F1E0
FFE0
7FE0
3DE0
ENDCHAR
STARTCHAR 00FC
ENCODING 252
SWIDTH 600 0
DWIDTH 15 0
BBX 13 19 1 0
BITMAP
0770
0E70
0E70
0000
0000
3C38
3C78
3878
3878
7870
7870
78F0
70F0
70F0
F0E0
F1E0
FFE0
7FE0
3DE0
ENDCHAR
STARTCHAR 00FD
ENCODING 253
SWIDTH 600 0
DWIDTH 15 0
BBX 17 26 -1 -5
BITMAP
000F00
001E00
001C00
003800
007000
00E000
000000
1E0780
1E0F00
0E0E00
0E1E00
0E3C00
0F3C00
0F7800
077000
07F000
07E000
07E000
07C000
03C000
038000
070000
0F0000
7E0000
FE0000
F80000
ENDCHAR
STARTCHAR 00FE
ENCODING 254
SWIDTH 600 0
DWIDTH 15 0
BBX 14 24 0 -5
BITMAP
0F00
0F00
0E00
0E00
1E00
1EF0
1FF8
1FFC
1E3C
3C1C
3C1C
3C1C
383C
383C
7838
7C78
7FF0
77F0
73C0
F000
F000
F000
E000
E000
ENDCHAR
STARTCHAR 00FF
ENCODING 255
SWIDTH 600 0
DWIDTH 15 0
BBX 17 24 -1 -5
BITMAP
01CE00
01CE00
019C00
000000
000000
1E0780
1E0F00
0E0E00
0E1E00
0E3C00
0F3C00
0F7800
077000
07F000
07E000
07E000
07C000
03C000
038000
070000
0F0000
7E0000
FE0000
F80000
ENDCHAR
STARTCHAR 0100
ENCODING 256
SWIDTH 600 0
DWIDTH 15 0
BBX 15 23 -1 0
BITMAP
01FE
01FE
01FE
0000
0000
00F8
01F8
01F8
03F8
03B8
03B8
0738
0738
0F38
0E38
1E38
1FF8
3FF8
3FFC
783C
783C
F03C
F03C
ENDCHAR
STARTCHAR 0101
ENCODING 257
SWIDTH 600 0
DWIDTH 15 0
BBX 13 19 1 0
BITMAP
07F0
0FF0
0FF0
0000
0000
0FE0
3FF0
3FF8
2078
0FF8
3FF8
7FF8
F870
F0F0
E0F0
F1F0
FFF0
FEE0
3CE0
ENDCHAR
STARTCHAR 0102
ENCODING 258
SWIDTH 600 0
DWIDTH 15 0
BBX 15 23 -1 0
BITMAP
0186
0186
00FC
0078
0000
00F8
01F8
01F8
03F8
03B8
03B8
0738
0738
0F38
0E38
1E38
1FF8
3FF8
3FFC
783C
783C
F03C
F03C
ENDCHAR
STARTCHAR 0103
ENCODING 259
SWIDTH 600 0
DWIDTH 15 0
BBX 13 19 1 0
BITMAP
0C38
07F0
03C0
0000
0000
0FE0
3FF0
3FF8
2078
0FF8
3FF8
7FF8
F870
F0F0
E0F0
F1F0
FFF0
FEE0
3CE0
ENDCHAR
STARTCHAR 0104
ENCODING 260
SWIDTH 600 0
DWIDTH 15 0
BBX 14 23 -1 -5
BITMAP
00F8
01F8
01F8
03F8
03B8
03B8
0738
0738
0F38
0E38
1E38
1FF8
3FF8
3FFC
783C
783C
F03C
F03C
0030
0060
0060
00FC
0078
ENDCHAR
STARTCHAR 0105
ENCODING 261
SWIDTH 600 0
DWIDTH 15 0
BBX 13 19 1 -5
BITMAP
0FE0
3FF0
3FF8
3078
0078
1FF8
7FF8
FFF0
F070
E0F0
F1F0
FFF0
FEE0
7CE0
0180
0300
0300
03E0
03E0
ENDCHAR
STARTCHAR 0106
ENCODING 262
SWIDTH 600 0
DWIDTH 15 0
BBX 14 23 1 0
BITMAP
003C
0038
0070
00C0
0000
01FC
07F8
0FF8
1E08
3C08
3C00
7800
7800
7000
F000
F000
F000
F000
F020
7860
7FE0
3FC0
0F80
ENDCHAR
STARTCHAR 0107
ENCODING 263
SWIDTH 600 0
DWIDTH 15 0
BBX 13 21 2 0
BITMAP
0038
0070
00E0
01C0
0380
0000
0000
07E0
1FF0
3FF0
7C20
F000
F000
E000
E000
E000
E000
F040
FFC0
7FC0
1F80
ENDCHAR
STARTCHAR 0108
ENCODING 264
SWIDTH 600 0
DWIDTH 15 0
BBX 14 23 1 0
BITMAP
00F8
01F8
039C
060C
0000
01FC
07F8
0FF8
1E08
3C08
3800
7800
7800
7000
F000
F000
F000
F000
F020
7860
7FE0
3FC0
1F80
ENDCHAR
STARTCHAR 0109
ENCODING 265
SWIDTH 600 0
DWIDTH 15 0
BBX 13 19 2 0
BITMAP
01C0
07E0
0E70
1008
0000
07E0
1FF0
3FF0
7C20
7000
F000
E000
E000
E000
E000
F040
FFC0
7FC0
3F00
ENDCHAR
STARTCHAR 010A
ENCODING 266
SWIDTH 600 0
DWIDTH 15 0
BBX 14 23 1 0
BITMAP
00F0
00F0
00E0
0000
0000
01FC
07F8
0FF8
1E08
3C08
3C00
7800
7800
7000
F000
F000
F000
F000
F020
7860
7FE0
3FC0
1F80
ENDCHAR
STARTCHAR 010B
ENCODING 267
SWIDTH 600 0
DWIDTH 15 0
BBX 12 19 2 0
BITMAP
03C0
03C0
0380
0000
0000
07E0
1FF0
3FF0
7C20
F000
F000
E000
E000
E000
E000
F040
FFC0
7FC0
1F80
ENDCHAR
STARTCHAR 010C
ENCODING 268
SWIDTH 600 0
DWIDTH 15 0
BBX 14 23 1 0
BITMAP
071C
03B8
01F0
0000
0000
01FC
07F8
0FF8
1E08
3C08
3C00
7800
7800
7000
F000
F000
F000
F000
F020
7860
7FE0
3FC0
0F80
ENDCHAR
STARTCHAR 010D
ENCODING 269
SWIDTH 600 0
DWIDTH 15 0
BBX 13 21 2 0
BITMAP
0C18
0E30
0660
07C0
0380
0000
0000
07E0
1FF0
3FF0
7C20
F000
F000
E000
E000
E000
E000
F040
FFC0
7FC0
1F80
ENDCHAR
STARTCHAR 010E
ENCODING 270
SWIDTH 600 0
DWIDTH 15 0
BBX 14 22 0 0
BITMAP
061C
0770
03E0
0000
1FE0
1FF8
1FF8
1C7C
1C3C
3C3C
3C3C
3C3C
383C
383C
783C
7838
7878
7078
70F0
FFE0
FFC0
FF00
ENDCHAR
STARTCHAR 010F
ENCODING 271
SWIDTH 600 0
DWIDTH 15 0
BBX 19 19 1 0
BITMAP
001FE0
001DC0
003FC0
003F80
003F00
0F3800
1FB800
3FF800
78F800
707800
F07800
F07000
E07000
E0F000
F0F000
F1F000
FFE000
7EE000
3CE000
ENDCHAR
STARTCHAR 0110
ENCODING 272
SWIDTH 600 0
DWIDTH 15 0
BBX 14 18 0 0
BITMAP
1FE0
1FF8
1FF8
1C7C
1C3C
3C3C
3C3C
FF3C
FF3C
FF3C
783C
7838
7878
7078
70F0
FFE0
FFC0
FF00
ENDCHAR
STARTCHAR 0111
ENCODING 273
SWIDTH 600 0
DWIDTH 15 0
BBX 16 19 1 0
BITMAP
001E
01FF
01FF
003C
003C
0F38
1FB8
3FF8
78F8
7078
F070
F070
E070
E0F0
F0F0
F1F0
FFE0
7EE0
3CE0
ENDCHAR
STARTCHAR 0112
ENCODING 274
SWIDTH 600 0
DWIDTH 15 0
BBX 15 23 0 0
BITMAP
01FC
03FC
03FC
0000
0000
0FFE
0FFE
1FFE
1E00
1E00
1C00
1C00
3FF8
3FF8
3FF8
3800
3800
7800
7800
7800
7FF0
7FF0
FFF0
ENDCHAR
STARTCHAR 0113
ENCODING 275
SWIDTH 600 0
DWIDTH 15 0
BBX 13 19 1 0
BITMAP
07F0
0FF0
0FF0
0000
0000
07C0
1FF0
3FF0
7878
7038
FFF8
FFF8
FFF8
E000
F000
F030
7FE0
7FE0
1FC0
ENDCHAR
STARTCHAR 0114
ENCODING 276
SWIDTH 600 0
DWIDTH 15 0
BBX 15 23 0 0
BITMAP
030E
018C
01F8
00F0
0000
0FFE
0FFE
1FFE
1E00
1E00
1C00
1C00
3FF8
3FF8
3FF8
3800
3800
7800
7800
7800
7FF0
7FF0
FFF0
ENDCHAR
STARTCHAR 0115
ENCODING 277
SWIDTH 600 0
DWIDTH 15 0
BBX 13 20 1 0
BITMAP
0418
0630
07F0
03C0
0000
0000
07C0
1FF0
3FF0
7878
7038
FFF8
FFF8
FFF8
E000
F000
F030
7FE0
7FE0
1FC0
ENDCHAR
STARTCHAR 0116
ENCODING 278
SWIDTH 600 0
DWIDTH 15 0
BBX 15 23 0 0
BITMAP
0070
0070
00F0
0000
0000
0FFE
0FFE
1FFE
1E00
1E00
1C00
1C00
3FF8
3FF8
3FF8
3800
3800
7800
7800
7800
7FF0
7FF0
FFF0
ENDCHAR
STARTCHAR 0117
ENCODING 279
SWIDTH 600 0
DWIDTH 15 0
BBX 13 19 1 0
BITMAP
01C0
01C0
03C0
0000
0000
07C0
1FF0
3FF0
7878
7038
FFF8
FFF8
FFF8
E000
F000
F030
7FE0
7FE0
1FC0
ENDCHAR
STARTCHAR 0118
ENCODING 280
SWIDTH 600 0
DWIDTH 15 0
BBX 15 23 0 -5
BITMAP
0FFE
0FFE
1FFE
1E00
1E00
1C00
1C00
3FF8
3FF8
3FF8
3800
3800
7800
7800
7800
7FF0
7FF0
FFF0
00C0
0180
0180
03F0
01E0
ENDCHAR
STARTCHAR 0119
ENCODING 281
SWIDTH 600 0
DWIDTH 15 0
BBX 13 19 1 -5
BITMAP
07C0
1FE0
3FF0
7C78
7838
F038
FFF8
FFF8
FFF8
E000
F010
7FE0
7FE0
1FE0
0180
0300
0300
07E0
03C0
ENDCHAR
STARTCHAR 011A
ENCODING 282
SWIDTH 600 0
DWIDTH 15 0
BBX 15 22 0 0
BITMAP
038E
01DC
00F8
0000
0FFE
0FFE
1FFE
1E00
1E00
1C00
1C00
3FF8
3FF8
3FF8
3800
3800
7800
7800
7800
7FF0
7FF0
FFF0
ENDCHAR
STARTCHAR 011B
ENCODING 283
SWIDTH 600 0
DWIDTH 15 0
BBX 13 21 1 0
BITMAP
0C18
0E30
0660
07E0
03C0
0000
0000
07C0
1FF0
3FF0
7878
7038
FFF8
FFF8
FFF8
E000
F000
F030
7FE0
7FE0
1FC0
ENDCHAR
STARTCHAR 011C
ENCODING 284
SWIDTH 600 0
DWIDTH 15 0
BBX 15 23 1 0
BITMAP
00F8
01DC
018C
0306
0000
01F8
07FC
0FFC
1E08
3C08
3800
7800
7800
71F8
F1F8
F1F8
F070
F070
F070
7870
7FF0
3FE0
1F80
ENDCHAR
STARTCHAR 011D
ENCODING 285
SWIDTH 600 0
DWIDTH 15 0
BBX 15 26 0 -5
BITMAP
0070
00F0
01F8
0398
071C
0000
0000
079E
0FDC
1FFC
3C7C
3C3C
7838
7838
7838
7078
7878
78F0
7FF0
3F70
1EF0
00F0
41E0
7FE0
FFC0
7F00
ENDCHAR
STARTCHAR 011E
ENCODING 286
SWIDTH 600 0
DWIDTH 15 0
BBX 14 23 1 0
BITMAP
061C
03F8
01E0
0000
0000
01FC
07F8
0FF8
1E08
3C00
3C00
7800
7800
71F8
F1F8
F1F0
F070
F070
F070
78F0
7FE0
3FE0
0F80
ENDCHAR
STARTCHAR 011F
ENCODING 287
SWIDTH 600 0
DWIDTH 15 0
BBX 15 25 0 -5
BITMAP
020C
0318
03F8
01F0
0000
0000
079E
0FDC
1FFC
3C7C
3C3C
7838
7838
7838
7078
7878
78F8
7FF0
3F70
1EF0
00F0
41E0
7FE0
FFC0
7F00
ENDCHAR
STARTCHAR 0120
ENCODING 288
SWIDTH 600 0
DWIDTH 15 0
BBX 14 23 1 0
BITMAP
00E0
00E0
00E0
0000
0000
01FC
07F8
0FF8
1E08
3C00
3C00
7800
7800
71F8
F1F8
F1F0
F070
F070
F070
78F0
7FE0
3FE0
0F80
ENDCHAR
STARTCHAR 0121
ENCODING 289
SWIDTH 600 0
DWIDTH 15 0
BBX 15 25 0 -5
BITMAP
00E0
00E0
00E0
0000
0000
0000
079E
0FDC
1FFC
3C7C
3C3C
7838
7838
7838
7078
7878
78F8
7FF0
3F70
1EF0
00F0
41E0
7FE0
FFC0
7F00
ENDCHAR
STARTCHAR 0122
ENCODING 290
SWIDTH 600 0
DWIDTH 15 0
BBX 14 24 1 -6
BITMAP
01FC
07F8
0FF8
1E08
3C00
3C00
7800
7800
71F8
F1F8
F1F0
F070
F070
F070
78F0
7FE0
3FE0
0F80
0000
0000
0700
0E00
0E00
1C00
ENDCHAR
STARTCHAR 0123
ENCODING 291
SWIDTH 600 0
DWIDTH 15 0
BBX 15 24 0 -5
BITMAP
0070
00E0
01E0
03C0
0000
079E
0FDC
1FFC
3C7C
3C3C
7838
7838
7838
7078
7878
78F8
7FF0
3F70
1EF0
00F0
41E0
7FE0
FFC0
7F00
ENDCHAR
STARTCHAR 0124
ENCODING 292
SWIDTH 600 0
DWIDTH 15 0
BBX 15 23 0 0
BITMAP
00F0
01F8
0398
060C
0000
1E1E
1E1E
1E1E
1C1C
1C1C
3C3C
3C3C
3FFC
3FFC
3FF8
7878
7878
7878
7078
7070
F0F0
F0F0
F0F0
ENDCHAR
STARTCHAR 0125
ENCODING 293
SWIDTH 600 0
DWIDTH 15 0
BBX 15 23 1 0
BITMAP
00F8
01DC
038E
0000
1E00
1E00
1E00
1C00
1C00
3DE0
3FF0
3FF8
3C78
3878
7870
7870
78F0
70F0
70F0
F0E0
F0E0
F1E0
E1E0
ENDCHAR
STARTCHAR 0126
ENCODING 294
SWIDTH 600 0
DWIDTH 15 0
BBX 16 18 0 0
BITMAP
1E1E
1E1E
1E1E
7FFF
7FFF
3C1C
3C3C
3FFC
3FFC
3FF8
7878
7878
7878
7078
7070
F0F0
F0F0
F0F0
ENDCHAR
STARTCHAR 0127
ENCODING 295
SWIDTH 600 0
DWIDTH 15 0
BBX 13 19 0 0
BITMAP
0F00
0E00
3FE0
7FC0
1E00
1EF0
1DF8
1FF8
3E78
3C78
3C78
3878
3878
7870
7870
78F0
70F0
70F0
F0E0
ENDCHAR
STARTCHAR 0128
ENCODING 296
SWIDTH 600 0
DWIDTH 15 0
BBX 15 23 0 0
BITMAP
0184
03EC
027C
0638
0000
0FFE
0FFC
1FFC
01C0
01C0
03C0
03C0
03C0
0380
0380
0780
0780
0780
0700
0700
7FF0
7FF0
FFE0
ENDCHAR
STARTCHAR 0129
ENCODING 297
SWIDTH 600 0
DWIDTH 15 0
BBX 10 19 3 0
BITMAP
38C0
7CC0
6780
4300
0000
7E00
FE00
FE00
1C00
1C00
3C00
3C00
3800
3800
7800
7800
7FC0
3FC0
1FC0
ENDCHAR
STARTCHAR 012A
ENCODING 298
SWIDTH 600 0
DWIDTH 15 0
BBX 15 23 0 0
BITMAP
03FC
03FC
03FC
0000
0000
0FFE
0FFC
1FFC
01C0
01C0
03C0
03C0
03C0
0380
0380
0780
0780
0780
0700
0700
7FF0
7FF0
FFE0
ENDCHAR
STARTCHAR 012B
ENCODING 299
SWIDTH 600 0
DWIDTH 15 0
BBX 10 18 3 0
BITMAP
7F80
7F80
7F80
0000
FE00
FE00
FC00
1C00
3C00
3C00
3C00
3800
3800
7800
7800
7FC0
7FC0
1F80
ENDCHAR
STARTCHAR 012C
ENCODING 300
SWIDTH 600 0
DWIDTH 15 0
BBX 15 23 0 0
BITMAP
030C
031C
01F8
00E0
0000
0FFE
0FFC
1FFC
01C0
01C0
03C0
03C0
03C0
0380
0380
0780
0780
0780
0700
0700
7FF0
7FF0
FFE0
ENDCHAR
STARTCHAR 012D
ENCODING 301
SWIDTH 600 0
DWIDTH 15 0
BBX 10 19 3 0
BITMAP
30C0
3FC0
1F00
0000
0000
7E00
FE00
FE00
1C00
1C00
3C00
3C00
3C00
3800
3800
7800
7FC0
3FC0
1FC0
ENDCHAR
STARTCHAR 012E
ENCODING 302
SWIDTH 600 0
DWIDTH 15 0
BBX 15 23 0 -5
BITMAP
0FFE
0FFC
1FFC
01C0
01C0
03C0
03C0
03C0
0380
0380
0780
0780
0780
0700
0700
7FF0
7FF0
FFE0
0600
0C00
0C00
0F80
0780
ENDCHAR
STARTCHAR 012F
ENCODING 303
SWIDTH 600 0
DWIDTH 15 0
BBX 10 25 3 -5
BITMAP
0F00
0E00
0E00
1E00
0000
0000
FE00
FE00
FC00
1C00
3C00
3C00
3C00
3800
3800
7800
7800
7FC0
7FC0
1F80
0600
0C00
0C00
0F80
0F00
ENDCHAR
STARTCHAR 0130
ENCODING 304
SWIDTH 600 0
DWIDTH 15 0
BBX 15 23 0 0
BITMAP
00F0
00E0
00E0
0000
0000
0FFE
0FFC
1FFC
01C0
01C0
03C0
03C0
03C0
0380
0380
0780
0780
0780
0700
0700
7FF0
7FF0
FFE0
ENDCHAR
STARTCHAR 0131
ENCODING 305
SWIDTH 600 0
DWIDTH 15 0
BBX 10 14 3 0
BITMAP
7E00
FE00
FE00
1C00
1C00
3C00
3C00
3C00
3800
3800
7800
7FC0
3FC0
1FC0
ENDCHAR
STARTCHAR 0132
ENCODING 306
SWIDTH 600 0
DWIDTH 15 0
BBX 16 18 0 0
BITMAP
0E0F
0E0E
1E0E
1E1E
1E1E
1C1E
1C1C
3C3C
3C3C
3C3C
383C
0038
0078
00F0
7FF0
7FE0
7FC0
FF00
ENDCHAR
STARTCHAR 0133
ENCODING 307
SWIDTH 600 0
DWIDTH 15 0
BBX 16 24 0 -5
BITMAP
0F0F
0E0F
1E0E
1E0E
0000
1C1E
1C1E
3C1C
3C1C
3C3C
383C
383C
7838
7838
7878
7078
7078
F070
F070
00F0
1FF0
1FE0
1FC0
1F00
ENDCHAR
STARTCHAR 0134
ENCODING 308
SWIDTH 600 0
DWIDTH 15 0
BBX 17 23 0 0
BITMAP
001E00
003F00
006300
00C180
000000
03FC00
03FC00
07FC00
003800
003800
007800
007800
007800
007000
007000
00F000
00F000
00F000
80E000
C1E000
FFC000
FF8000
7F0000
ENDCHAR
STARTCHAR 0135
ENCODING 309
SWIDTH 600 0
DWIDTH 15 0
BBX 15 26 0 -5
BITMAP
0038
0078
00FC
01CC
038E
0000
0000
07F0
07F0
0FF0
00E0
00E0
01E0
01E0
01E0
01C0
01C0
03C0
03C0
03C0
0380
0780
0780
FF00
FF00
FC00
ENDCHAR
STARTCHAR 0136
ENCODING 310
SWIDTH 600 0
DWIDTH 15 0
BBX 17 24 0 -6
BITMAP
1E0F80
1E1E00
1C3C00
1C7800
3CF000
3DE000
3FC000
3F8000
3FC000
7FC000
7DE000
79E000
70E000
70F000
F0F000
F07000
F07800
E03800
000000
000000
078000
0F0000
0E0000
1C0000
ENDCHAR
STARTCHAR 0137
ENCODING 311
SWIDTH 600 0
DWIDTH 15 0
BBX 15 25 1 -6
BITMAP
1E00
1E00
1E00
1C00
1C00
3C3E
3CF8
3DF0
3BE0
3F80
7F80
7F80
7F80
7BC0
71C0
F1E0
F1E0
F0F0
E0F0
0000
0000
0F00
0E00
1C00
1800
ENDCHAR
STARTCHAR 0138
ENCODING 312
SWIDTH 600 0
DWIDTH 15 0
BBX 15 14 1 0
BITMAP
3C3E
3C78
3CF0
39E0
3B80
7F80
7F80
7F80
7BC0
71C0
F1E0
F1E0
F0F0
E0F0
ENDCHAR
STARTCHAR 0139
ENCODING 313
SWIDTH 600 0
DWIDTH 15 0
BBX 13 23 1 0
BITMAP
0078
00F0
01C0
0380
0000
1E00
1E00
1E00
1C00
1C00
3C00
3C00
3C00
3800
3800
7800
7800
7800
7800
7000
FFF0
FFF0
FFE0
ENDCHAR
STARTCHAR 013A
ENCODING 314
SWIDTH 600 0
DWIDTH 15 0
BBX 11 23 3 0
BITMAP
01E0
0380
0700
0800
FF00
FE00
FE00
1E00
1E00
1E00
1C00
1C00
3C00
3C00
3800
3800
7800
7800
7800
7800
7FC0
7F80
3F80
ENDCHAR
STARTCHAR 013B
ENCODING 315
SWIDTH 600 0
DWIDTH 15 0
BBX 12 24 1 -6
BITMAP
1E00
1E00
1E00
1C00
1C00
3C00
3C00
3C00
3800
3800
7800
7800
7800
7800
7000
FFF0
FFF0
FFE0
0000
0000
0F00
1E00
1C00
3800
ENDCHAR
STARTCHAR 013C
ENCODING 316
SWIDTH 600 0
DWIDTH 15 0
BBX 10 25 3 -6
BITMAP
FF00
FE00
FE00
1E00
1E00
1C00
1C00
1C00
3C00
3C00
3800
3800
7800
7800
7800
7800
7FC0
7F80
3F80
0000
0000
7800
7000
E000
C000
ENDCHAR
STARTCHAR 013D
ENCODING 317
SWIDTH 600 0
DWIDTH 15 0
BBX 14 18 1 0
BITMAP
1E3C
1E38
1E70
1C70
1CE0
3C00
3C00
3C00
3800
3800
7800
7800
7800
7800
7000
FFF0
FFF0
FFE0
ENDCHAR
STARTCHAR 013E
ENCODING 318
SWIDTH 600 0
DWIDTH 15 0
BBX 13 19 3 0
BITMAP
FF78
FE70
FEE0
1EE0
1FC0
1C00
1C00
1C00
3C00
3C00
3800
3800
7800
7800
7800
7800
7FC0
7F80
3F80
ENDCHAR
STARTCHAR 013F
ENCODING 319
SWIDTH 600 0
DWIDTH 15 0
BBX 12 18 1 0
BITMAP
1E00
1E00
1E00
1C00
1C00
3C00
3C00
3CE0
38E0
39E0
7800
7800
7800
7800
7000
FFF0
FFF0
FFE0
ENDCHAR
STARTCHAR 0140
ENCODING 320
SWIDTH 600 0
DWIDTH 15 0
BBX 12 19 2 0
BITMAP
7F00
7F00
FF00
0E00
0E00
1E00
1E00
1E00
1CF0
1CE0
3CE0
3C00
3C00
3800
3800
3C00
3FC0
3FC0
1FC0
ENDCHAR
STARTCHAR 0141
ENCODING 321
SWIDTH 600 0
DWIDTH 15 0
BBX 14 18 -1 0
BITMAP
0780
0780
0780
0700
0730
0F70
0FE0
0FC0
0F00
1E00
3E00
FE00
7E00
1E00
1C00
3FFC
3FFC
3FF8
ENDCHAR
STARTCHAR 0142
ENCODING 322
SWIDTH 600 0
DWIDTH 15 0
BBX 14 19 1 0
BITMAP
1FC0
3FC0
3FC0
0388
039C
07F8
07E0
07C0
0700
1F00
3F00
FF00
CE00
8E00
1E00
1E00
1FF0
1FF0
07F0
ENDCHAR
STARTCHAR 0143
ENCODING 323
SWIDTH 600 0
DWIDTH 15 0
BBX 15 23 0 0
BITMAP
003C
0038
0070
00E0
0000
1E0E
1E0E
1E0E
1F1E
3F1C
3B1C
3B1C
3B1C
3BBC
7BB8
71B8
71B8
71B8
71F8
F1F0
E0F0
E0F0
E0F0
ENDCHAR
STARTCHAR 0144
ENCODING 324
SWIDTH 600 0
DWIDTH 15 0
BBX 14 21 1 0
BITMAP
003C
0070
00E0
01C0
0380
0000
0000
3DE0
3FF0
3FF8
3C78
3878
7870
7870
78F0
70F0
70F0
F0E0
F0E0
F1E0
E1E0
ENDCHAR
STARTCHAR 0145
ENCODING 325
SWIDTH 600 0
DWIDTH 15 0
BBX 15 24 0 -6
BITMAP
1E0E
1E0E
1E0E
1F1E
3F1C
3B1C
3B1C
3B1C
3BBC
7BB8
71B8
71B8
71B8
71F8
F1F0
E0F0
E0F0
E0F0
0000
0000
0F00
0E00
1C00
3800
ENDCHAR
STARTCHAR 0146
ENCODING 326
SWIDTH 600 0
DWIDTH 15 0
BBX 13 20 1 -6
BITMAP
3DE0
3FF0
3FF8
3C78
3878
7870
7870
78F0
70F0
70F0
F0E0
F0E0
F1E0
E1E0
0000
0000
0E00
1C00
1800
3800
ENDCHAR
STARTCHAR 0147
ENCODING 327
SWIDTH 600 0
DWIDTH 15 0
BBX 15 22 0 0
BITMAP
030E
01B8
01F0
0000
1E0E
1E0E
1E0E
1F1E
3F1C
3B1C
3B1C
3B1C
3BBC
7BB8
71B8
71B8
71B8
71F8
F1F0
E0F0
E0F0
E0F0
ENDCHAR
STARTCHAR 0148
ENCODING 328
SWIDTH 600 0
DWIDTH 15 0
BBX 13 21 1 0
BITMAP
0C18
0630
0760
03E0
03C0
0000
0000
3DE0
3FF0
3FF8
3C78
3878
7870
7870
78F0
70F0
70F0
F0E0
F0E0
F1E0
E1E0
ENDCHAR
STARTCHAR 0149
ENCODING 329
SWIDTH 600 0
DWIDTH 15 0
BBX 16 19 0 0
BITMAP
1E00
1E00
3C00
3C00
3800
7FBC
77FE
E7FF
078F
070F
0F0E
0F0E
0F1E
0E1E
0E1E
1E1C
1E1C
1E3C
1C3C
ENDCHAR
STARTCHAR 014A
ENCODING 330
SWIDTH 600 0
DWIDTH 15 0
BBX 15 23 0 -5
BITMAP
1E78
1DFC
1DFE
1E1E
3C1E
3C1E
3C1C
381C
383C
783C
783C
783C
7038
7078
F078
F078
F078
E070
00F0
00F0
07E0
07E0
0780
ENDCHAR
STARTCHAR 014B
ENCODING 331
SWIDTH 600 0
DWIDTH 15 0
BBX 13 19 1 -5
BITMAP
3DF0
3FF0
3FF8
3C78
3878
7870
7870
78F0
70F0
70F0
70F0
F0E0
F0E0
F1E0
01E0
03C0
0FC0
0F80
0F00
ENDCHAR
STARTCHAR 014C
ENCODING 332
SWIDTH 600 0
DWIDTH 15 0
BBX 13 23 1 0
BITMAP
07F8
07F8
07F8
0000
0000
07C0
0FF0
1FF8
3C78
7878
7838
7038
F078
F078
F078
F078
F070
E0F0
F0F0
F1E0
FFC0
7FC0
1F00
ENDCHAR
STARTCHAR 014D
ENCODING 333
SWIDTH 600 0
DWIDTH 15 0
BBX 13 19 1 0
BITMAP
07F0
0FF0
0FF0
0000
0000
07C0
1FF0
3FF0
7C78
7878
F078
F078
F078
F078
F0F0
F1F0
7FE0
7FC0
1F00
ENDCHAR
STARTCHAR 014E
ENCODING 334
SWIDTH 600 0
DWIDTH 15 0
BBX 13 23 1 0
BITMAP
0618
07F0
03E0
0000
0000
07C0
0FF0
1FF8
3C78
7878
7838
7038
F078
F078
F078
F078
E070
E0F0
F0F0
F1E0
FFC0
7F80
1F00
ENDCHAR
STARTCHAR 014F
ENCODING 335
SWIDTH 600 0
DWIDTH 15 0
BBX 13 20 1 0
BITMAP
0418
0630
07F0
03C0
0000
0000
07C0
1FF0
3FF0
7C78
7878
F078
F078
F078
F078
F0F0
F0F0
7FE0
7FC0
1F00
ENDCHAR
STARTCHAR 0150
ENCODING 336
SWIDTH 600 0
DWIDTH 15 0
BBX 15 23 1 0
BITMAP
01EE
03B8
0E70
0000
0000
07C0
0FF0
1FF8
3C78
7878
7838
7038
F078
F078
F078
F078
F070
E0F0
F0F0
F1E0
FFC0
7FC0
1F00
ENDCHAR
STARTCHAR 0151
ENCODING 337
SWIDTH 600 0
DWIDTH 15 0
BBX 14 21 1 0
BITMAP
039C
0338
0730
0E70
0CE0
0000
0000
07C0
1FF0
3FF0
7C78
7878
F078
F078
F078
F078
F0F0
F1F0
7FE0
7FC0
1F00
ENDCHAR
STARTCHAR 0152
ENCODING 338
SWIDTH 600 0
DWIDTH 15 0
BBX 16 18 0 0
BITMAP
07FF
0FFF
1FFF
3CE0
38E0
78E0
78E0
70FE
71FC
71FC
F1C0
F1C0
F1C0
F3C0
F380
FFF8
7FF8
1FF8
ENDCHAR
STARTCHAR 0153
ENCODING 339
SWIDTH 600 0
DWIDTH 15 0
BBX 15 14 0 0
BITMAP
0F3C
3FFE
3FFE
71C6
71C6
E1FE
E3FE
E3FE
E380
E380
E784
FFFC
FFFC
7CF8
ENDCHAR
STARTCHAR 0154
ENCODING 340
SWIDTH 600 0
DWIDTH 15 0
BBX 14 23 0 0
BITMAP
003C
0070
00E0
01C0
0000
1FF0
1FF8
1FFC
1E3C
1C3C
3C3C
3C3C
3C78
3FF0
3FC0
7FE0
78E0
78F0
7870
7070
7078
F078
F038
ENDCHAR
STARTCHAR 0155
ENCODING 341
SWIDTH 600 0
DWIDTH 15 0
BBX 13 21 2 0
BITMAP
0078
00F0
01E0
0180
0700
0000
0000
38F8
3BF0
3FF0
3E10
7C00
7800
7800
7000
7000
F000
F000
F000
E000
E000
ENDCHAR
STARTCHAR 0156
ENCODING 342
SWIDTH 600 0
DWIDTH 15 0
BBX 14 24 0 -6
BITMAP
1FF0
1FF8
1FFC
1E3C
1C3C
3C3C
3C3C
3C78
3FF0
3FC0
7FE0
78E0
78F0
78F0
7070
7078
F078
F038
0000
0000
0780
0700
0E00
1C00
ENDCHAR
STARTCHAR 0157
ENCODING 343
SWIDTH 600 0
DWIDTH 15 0
BBX 15 20 0 -6
BITMAP
0F3E
0FFE
0FFE
0F82
0F00
1E00
1E00
1E00
1E00
1C00
1C00
3C00
3C00
3C00
0000
0000
3C00
3800
7000
E000
ENDCHAR
STARTCHAR 0158
ENCODING 344
SWIDTH 600 0
DWIDTH 15 0
BBX 14 22 0 0
BITMAP
071C
03B8
03F0
0000
1FF0
1FF8
1FFC
1E3C
1C3C
3C3C
3C3C
3C78
3FF0
3FC0
7FE0
78E0
78F0
7870
7070
7078
F078
F038
ENDCHAR
STARTCHAR 0159
ENCODING 345
SWIDTH 600 0
DWIDTH 15 0
BBX 13 21 2 0
BITMAP
0C18
0E30
0660
07C0
0380
0000
0000
38F8
3BF0
3FF0
3E10
7C00
7800
7800
7000
7000
F000
F000
F000
E000
E000
ENDCHAR
STARTCHAR 015A
ENCODING 346
SWIDTH 600 0
DWIDTH 15 0
BBX 14 23 0 0
BITMAP
003C
0038
0060
00C0
0000
03F8
0FFC
1FFC
1E0C
3C00
3C00
3E00
1F80
1FE0
07F0
00F8
0078
0078
8078
E0F8
FFF0
FFE0
3F80
ENDCHAR
STARTCHAR 015B
ENCODING 347
SWIDTH 600 0
DWIDTH 15 0
BBX 14 21 1 0
BITMAP
003C
0070
00E0
01C0
0380
0000
0000
07E0
1FF0
3FF0
3C10
3800
3C00
3F80
0FE0
01E0
00E0
40E0
FFE0
FFC0
3F00
ENDCHAR
STARTCHAR 015C
ENCODING 348
SWIDTH 600 0
DWIDTH 15 0
BBX 14 23 0 0
BITMAP
00F0
01F8
0318
060C
0000
03F0
0FFC
1FFC
1E0C
3C04
3C00
3E00
3F80
1FE0
07F0
01F8
0078
0078
8078
E0F0
FFF0
FFE0
3F80
ENDCHAR
STARTCHAR 015D
ENCODING 349
SWIDTH 600 0
DWIDTH 15 0
BBX 13 19 1 0
BITMAP
01E0
07E0
0E70
1008
0000
07E0
1FF0
3FF0
3C10
3800
3C00
1F80
0FE0
01E0
00E0
40E0
FFE0
FFC0
7F00
ENDCHAR
STARTCHAR 015E
ENCODING 350
SWIDTH 600 0
DWIDTH 15 0
BBX 14 23 0 -5
BITMAP
03F8
0FFC
1FFC
1E0C
3C00
3C00
3E00
1F80
1FE0
07F0
00F8
0078
0078
8078
E0F8
FFF0
FFE0
3F80
0200
0300
0300
3E00
3C00
ENDCHAR
STARTCHAR 015F
ENCODING 351
SWIDTH 600 0
DWIDTH 15 0
BBX 12 19 1 -5
BITMAP
07E0
1FF0
3FF0
3C30
3800
3C00
3F80
1FE0
03E0
00E0
80E0
F3E0
FFC0
7F00
0400
0600
0600
7C00
7800
ENDCHAR
STARTCHAR 0160
ENCODING 352
SWIDTH 600 0
DWIDTH 15 0
BBX 14 23 0 0
BITMAP
030C
03B8
01F0
0000
0000
03F8
0FFC
1FFC
1E0C
3C00
3C00
3E00
1F80
1FE0
07F0
00F8
0078
0078
8078
E0F8
FFF0
FFE0
3F80
ENDCHAR
STARTCHAR 0161
ENCODING 353
SWIDTH 600 0
DWIDTH 15 0
BBX 13 21 1 0
BITMAP
0C18
0638
0770
03E0
03C0
0000
0000
07E0
1FF0
3FF0
3C30
3800
3C00
3F80
0FE0
01E0
00E0
80E0
FFE0
FFC0
7F00
ENDCHAR
STARTCHAR 0162
ENCODING 354
SWIDTH 600 0
DWIDTH 15 0
BBX 14 23 2 -5
BITMAP
7FFC
FFF8
FFF8
0700
0700
0F00
0F00
0F00
0E00
0E00
1E00
1E00
1E00
1C00
1C00
3C00
3C00
3C00
1800
0C00
0C00
F800
F000
ENDCHAR
STARTCHAR 0163
ENCODING 355
SWIDTH 600 0
DWIDTH 15 0
BBX 12 23 2 -5
BITMAP
0700
0700
0F00
0F00
FFF0
FFF0
FFF0
1E00
1E00
1E00
1C00
1C00
3C00
3C00
3C00
3FC0
3FC0
0FC0
0200
0300
0300
3F00
3E00
ENDCHAR
STARTCHAR 0164
ENCODING 356
SWIDTH 600 0
DWIDTH 15 0
BBX 14 22 2 0
BITMAP
0C38
0EE0
07C0
0000
7FFC
FFF8
FFF8
0700
0700
0F00
0F00
0F00
0E00
0E00
1E00
1E00
1E00
1C00
1C00
3C00
3C00
3C00
ENDCHAR
STARTCHAR 0165
ENCODING 357
SWIDTH 600 0
DWIDTH 15 0
BBX 15 20 2 0
BITMAP
001E
001C
0038
0738
0F70
0F00
FFF0
FFF0
FFF0
1E00
1E00
1E00
1C00
1C00
3C00
3C00
3C00
3FC0
3FC0
0FC0
ENDCHAR
STARTCHAR 0166
ENCODING 358
SWIDTH 600 0
DWIDTH 15 0
BBX 14 18 2 0
BITMAP
7FFC
7FF8
FFF8
0700
0700
0F00
0F00
0F00
0E00
7FC0
FFC0
FFC0
1E00
1E00
1C00
3C00
3C00
3C00
ENDCHAR
STARTCHAR 0167
ENCODING 359
SWIDTH 600 0
DWIDTH 15 0
BBX 12 18 2 0
BITMAP
0700
0700
0F00
0F00
FFF0
FFF0
FFF0
1E00
7F80
7F80
7F80
1C00
3C00
3C00
3C00
3FC0
3FC0
1FC0
ENDCHAR
STARTCHAR 0168
ENCODING 360
SWIDTH 600 0
DWIDTH 15 0
BBX 15 23 1 0
BITMAP
0388
07F8
0C70
0000
0000
3C1E
381C
383C
783C
783C
7838
7038
7078
F078
F078
F070
E070
E0F0
E0F0
F1E0
FFE0
7FC0
3F00
ENDCHAR
STARTCHAR 0169
ENCODING 361
SWIDTH 600 0
DWIDTH 15 0
BBX 13 19 1 0
BITMAP
0718
0FF0
0CE0
0000
0000
3C38
3C78
3878
3878
7870
7870
78F0
70F0
70F0
F0E0
F1E0
FFE0
7FE0
3DE0
ENDCHAR
STARTCHAR 016A
ENCODING 362
SWIDTH 600 0
DWIDTH 15 0
BBX 15 23 1 0
BITMAP
07F8
07F8
07F8
0000
0000
3C1E
381C
383C
783C
783C
7838
7038
7078
F078
F078
F070
E070
E0F0
E0F0
F1E0
FFE0
7FC0
3F00
ENDCHAR
STARTCHAR 016B
ENCODING 363
SWIDTH 600 0
DWIDTH 15 0
BBX 13 18 1 0
BITMAP
07F0
0FF0
0FF0
0000
3C38
3C78
3878
3878
7870
7870
78F0
70F0
70F0
F0E0
F1E0
FFE0
7FE0
3DE0
ENDCHAR
STARTCHAR 016C
ENCODING 364
SWIDTH 600 0
DWIDTH 15 0
BBX 15 23 1 0
BITMAP
0618
07F0
03E0
0000
0000
3C1E
381C
383C
783C
783C
7838
7038
7078
F078
F078
F070
E070
E0F0
E0F0
F1E0
FFE0
7FC0
3F00
ENDCHAR
STARTCHAR 016D
ENCODING 365
SWIDTH 600 0
DWIDTH 15 0
BBX 13 20 1 0
BITMAP
0418
0630
07F0
03C0
0000
0000
3C38
3C78
3878
3878
7870
7870
78F0
70F0
70F0
F0E0
F1E0
FFE0
7FE0
3DE0
ENDCHAR
STARTCHAR 016E
ENCODING 366
SWIDTH 600 0
DWIDTH 15 0
BBX 15 23 1 0
BITMAP
03C0
07E0
0630
0630
0670
3FFE
39DC
383C
783C
783C
7838
7038
7078
F078
F078
F070
E070
E0F0
E0F0
F1E0
FFE0
7FC0
3F00
ENDCHAR
STARTCHAR 016F
ENCODING 367
SWIDTH 600 0
DWIDTH 15 0
BBX 13 23 1 0
BITMAP
0180
07E0
0660
0420
0660
07E0
03C0
0000
0000
3C38
3C78
3878
3878
7870
7870
78F0
70F0
70F0
F0E0
F1E0
FFE0
7FE0
3DE0
ENDCHAR
STARTCHAR 0170
ENCODING 368
SWIDTH 600 0
DWIDTH 15 0
BBX 15 23 1 0
BITMAP
01EE
03B8
0E70
0000
0000
3C1E
381C
383C
783C
783C
7838
7038
7078
F078
F078
F070
E070
E0F0
E0F0
F1E0
FFE0
7FC0
3F00
ENDCHAR
STARTCHAR 0171
ENCODING 369
SWIDTH 600 0
DWIDTH 15 0
BBX 15 21 1 0
BITMAP
03DE
0398
0738
0670
0CE0
0000
0000
3C38
3C78
3878
3878
7870
7870
78F0
70F0
70F0
F0E0
F1E0
FFE0
7FE0
3DE0
ENDCHAR
STARTCHAR 0172
ENCODING 370
SWIDTH 600 0
DWIDTH 15 0
BBX 15 23 1 -5
BITMAP
3C1E
381C
383C
783C
783C
7838
7038
7078
F078
F078
F070
E070
E0F0
E0F0
F1E0
FFE0
7FC0
3F00
1800
3000
3000
7E00
3C00
ENDCHAR
STARTCHAR 0173
ENCODING 371
SWIDTH 600 0
DWIDTH 15 0
BBX 13 19 1 -5
BITMAP
3C38
3C78
3878
3878
7870
7870
78F0
70F0
70F0
F0E0
F1E0
FFE0
7FE0
3DE0
00C0
0180
0180
01F0
00F0
ENDCHAR
STARTCHAR 0174
ENCODING 372
SWIDTH 600 0
DWIDTH 15 0
BBX 16 23 1 0
BITMAP
01F0
03B0
0E18
0000
0000
700F
700E
700E
F00E
E39C
E79C
E79C
E7B8
EFB8
EDB8
FDB0
F9F0
F9F0
F9F0
F1E0
F1E0
E1E0
E1C0
ENDCHAR
STARTCHAR 0175
ENCODING 373
SWIDTH 600 0
DWIDTH 15 0
BBX 15 20 1 0
BITMAP
01E0
03E0
0770
0E30
1C18
0000
E00E
E00E
E01C
E01C
E71C
E738
EF38
EF30
EF70
F970
F9E0
F9E0
F1E0
F1C0
ENDCHAR
STARTCHAR 0176
ENCODING 374
SWIDTH 600 0
DWIDTH 15 0
BBX 15 23 2 0
BITMAP
07E0
0EE0
1C30
0000
0000
E03E
F03C
7078
70F0
78E0
39E0
3BC0
3F80
1F80
1F00
1E00
1E00
1E00
1C00
1C00
3C00
3C00
3C00
ENDCHAR
STARTCHAR 0177
ENCODING 375
SWIDTH 600 0
DWIDTH 15 0
BBX 17 25 -1 -5
BITMAP
007800
00F800
01DC00
018C00
030600
000000
1E0780
1E0F00
0E0E00
0E1E00
0E3C00
0F3C00
0F7800
077000
07F000
07E000
07E000
07C000
03C000
038000
070000
0F0000
7E0000
FE0000
F80000
ENDCHAR
STARTCHAR 0178
ENCODING 376
SWIDTH 600 0
DWIDTH 15 0
BBX 15 23 2 0
BITMAP
0E70
0E70
0EE0
0000
0000
E03E
F03C
7078
70F0
78E0
39E0
3BC0
3F80
1F80
1F00
1E00
1E00
1E00
1C00
1C00
3C00
3C00
3C00
ENDCHAR
STARTCHAR 0179
ENCODING 377
SWIDTH 600 0
DWIDTH 15 0
BBX 17 23 -1 0
BITMAP
000E00
001C00
003000
006000
000000
0FFF80
0FFF00
0FFF00
001F00
003E00
007C00
00F800
00F000
01E000
03C000
078000
0F8000
1F0000
3E0000
7C0000
7FFC00
7FFC00
FFF800
ENDCHAR
STARTCHAR 017A
ENCODING 378
SWIDTH 600 0
DWIDTH 15 0
BBX 14 20 1 0
BITMAP
003C
0070
00E0
01C0
0380
0000
3FFC
3FF8
3FF8
00F0
01E0
03C0
0780
0F00
1E00
3C00
7800
FFE0
FFE0
FFE0
ENDCHAR
STARTCHAR 017B
ENCODING 379
SWIDTH 600 0
DWIDTH 15 0
BBX 17 23 -1 0
BITMAP
003800
007800
007800
000000
000000
0FFF80
0FFF00
0FFF00
001F00
003E00
007C00
00F800
00F000
01E000
03C000
078000
0F8000
1F0000
3E0000
7C0000
7FFC00
7FFC00
FFF800
ENDCHAR
STARTCHAR 017C
ENCODING 380
SWIDTH 600 0
DWIDTH 15 0
BBX 14 19 1 0
BITMAP
01E0
01C0
01C0
0000
0000
3FFC
3FF8
3FF8
00F0
01E0
03C0
0780
0F00
1E00
3C00
7800
FFE0
FFE0
FFE0
ENDCHAR
STARTCHAR 017D
ENCODING 381
SWIDTH 600 0
DWIDTH 15 0
BBX 17 22 -1 0
BITMAP
018700
00DC00
00F800
000000
0FFF80
0FFF00
0FFF00
001F00
003E00
007C00
00F800
00F000
01E000
03C000
078000
0F8000
1F0000
3E0000
7C0000
7FFC00
7FFC00
FFF800
ENDCHAR
STARTCHAR 017E
ENCODING 382
SWIDTH 600 0
DWIDTH 15 0
BBX 14 20 1 0
BITMAP
0E1C
0730
0360
03E0
01C0
0000
3FFC
3FF8
3FF8
00F0
01E0
03C0
0780
0F00
1E00
3C00
7800
FFE0
FFE0
FFE0
ENDCHAR
STARTCHAR 017F
ENCODING 383
SWIDTH 600 0
DWIDTH 15 0
BBX 13 22 2 -3
BITMAP
01F8
03F8
07F8
0780
0700
7F00
FF00
FF00
0F00
0E00
0E00
1E00
1E00
1E00
1C00
1C00
3C00
3C00
3C00
3800
3800
7800
ENDCHAR
STARTCHAR 0192
ENCODING 402
SWIDTH 600 0
DWIDTH 15 0
BBX 13 24 1 -5
BITMAP
00F8
01F8
01F8
03C0
0380
0380
0380
0380
3FF0
3FF0
3FF0
0700
0700
0700
0700
0F00
0E00
0E00
0E00
0E00
9E00
FC00
FC00
F800
ENDCHAR
STARTCHAR 01A0
ENCODING 416
SWIDTH 600 0
DWIDTH 15 0
BBX 17 19 0 0
BITMAP
000180
03E180
0FF980
1FFF00
3C7F00
3C3C00
783C00
783C00
783C00
F03800
F07800
F07800
F07800
F07000
F0F000
F1E000
7FE000
7FC000
1F0000
ENDCHAR
STARTCHAR 01A1
ENCODING 417
SWIDTH 600 0
DWIDTH 15 0
BBX 15 14 1 0
BITMAP
0FC6
1FE6
3FF6
78FC
F078
F078
E070
E070
E0F0
E0F0
F1E0
FFE0
7FC0
3F00
ENDCHAR
STARTCHAR 01A4
ENCODING 420
SWIDTH 600 0
DWIDTH 15 0
BBX 15 18 1 0
BITMAP
3FF8
7FFC
7FFE
7E1E
FE1E
1E1E
1C1E
1C3C
3FFC
3FF8
3FE0
3800
3800
3800
7800
7800
7800
7000
ENDCHAR
STARTCHAR 01AF
ENCODING 431
SWIDTH 600 0
DWIDTH 15 0
BBX 18 19 0 0
BITMAP
0000C0
3C1E80
3C1D80
381F80
783F00
783C00
783800
783800
703800
F07800
F07800
F07000
F07000
E07000
E0F000
F1E000
FFE000
7FC000
3F0000
ENDCHAR
STARTCHAR 01B0
ENCODING 432
SWIDTH 600 0
DWIDTH 15 0
BBX 15 15 1 0
BITMAP
0006
7876
7876
78F6
70FE
70FC
F0E0
F0E0
F1E0
E1E0
E1E0
F3E0
FFC0
FDC0
79C0
ENDCHAR
STARTCHAR 01E6
ENCODING 486
SWIDTH 600 0
DWIDTH 15 0
BBX 14 23 1 0
BITMAP
071C
03B8
01F0
0000
0000
01FC
07F8
0FF8
1E08
3C00
3C00
7800
7800
71F8
F1F8
F1F0
F070
F070
F070
78F0
7FE0
3FE0
0F80
ENDCHAR
STARTCHAR 01E7
ENCODING 487
SWIDTH 600 0
DWIDTH 15 0
BBX 15 26 0 -5
BITMAP
060C
0318
03B0
01F0
01E0
0000
0000
079E
0FDC
1FFC
3C7C
3C3C
7838
7838
7838
7078
7878
78F8
7FF0
3F70
1EF0
00F0
41E0
7FE0
FFC0
7F00
ENDCHAR
STARTCHAR 01FE
ENCODING 510
SWIDTH 600 0
DWIDTH 15 0
BBX 19 23 -2 0
BITMAP
000F00
001C00
003800
003000
000080
00F8E0
01FFC0
03FF80
078F00
0F0F00
0F1F00
0F3F00
1E7F00
1EEF00
1FCF00
1FCF00
1F8E00
1F1E00
1E1E00
1E3C00
3FF800
7FF800
E3E000
ENDCHAR
STARTCHAR 01FF
ENCODING 511
SWIDTH 600 0
DWIDTH 15 0
BBX 17 22 -1 -1
BITMAP
001F00
001C00
003800
007000
00E000
000000
000100
01F380
07FF00
0FFE00
1F1E00
1E3E00
3C7E00
3CFE00
3F9E00
3F1E00
3E3C00
3C3C00
3FF800
7FF000
E7C000
400000
ENDCHAR
STARTCHAR 0218
ENCODING 536
SWIDTH 600 0
DWIDTH 15 0
BBX 14 24 0 -6
BITMAP
03F8
0FFC
1FFC
1E0C
3C00
3C00
3E00
1F80
1FE0
07F0
00F8
0078
0078
8078
E0F8
FFF0
FFE0
3F80
0000
0000
1E00
1C00
3800
3000
ENDCHAR
STARTCHAR 0219
ENCODING 537
SWIDTH 600 0
DWIDTH 15 0
BBX 12 20 1 -6
BITMAP
07E0
1FF0
3FF0
3C10
3800
3C00
3F80
0FE0
01E0
00E0
40E0
FFE0
FFC0
7F00
0000
0000
3C00
3800
7000
6000
ENDCHAR
STARTCHAR 021A
ENCODING 538
SWIDTH 600 0
DWIDTH 15 0
BBX 14 23 2 -5
BITMAP
7FFC
FFF8
FFF8
0700
0700
0F00
0F00
0F00
0E00
0E00
1E00
1E00
1E00
1C00
1C00
3C00
3C00
3C00
1800
0C00
0C00
FC00
F000
ENDCHAR
STARTCHAR 021B
ENCODING 539
SWIDTH 600 0
DWIDTH 15 0
BBX 12 23 2 -5
BITMAP
0700
0700
0F00
0F00
FFF0
FFF0
FFF0
1E00
1E00
1E00
1C00
1C00
3C00
3C00
3C00
3FC0
3FC0
1FC0
0200
0300
0300
3F00
3E00
ENDCHAR
STARTCHAR 02B9
ENCODING 697
SWIDTH 600 0
DWIDTH 15 0
BBX 4 6 6 14
BITMAP
70
70
60
E0
C0
C0
ENDCHAR
STARTCHAR 02BB
ENCODING 699
SWIDTH 600 0
DWIDTH 15 0
BBX 7 8 5 11
BITMAP
0E
1C
3C
38
78
70
F0
F0
ENDCHAR
STARTCHAR 02BC
ENCODING 700
SWIDTH 600 0
DWIDTH 15 0
BBX 6 8 5 11
BITMAP
3C
3C
3C
38
78
70
E0
E0
ENDCHAR
STARTCHAR 02BD
ENCODING 701
SWIDTH 600 0
DWIDTH 15 0
BBX 4 6 6 15
BITMAP
F0
F0
E0
C0
E0
60
ENDCHAR
STARTCHAR 02BE
ENCODING 702
SWIDTH 600 0
DWIDTH 15 0
BBX 5 7 7 12
BITMAP
20
70
38
18
30
60
C0
ENDCHAR
STARTCHAR 02BF
ENCODING 703
SWIDTH 600 0
DWIDTH 15 0
BBX 4 7 7 12
BITMAP
30
60
C0
80
C0
E0
60
ENDCHAR
STARTCHAR 02C0
ENCODING 704
SWIDTH 600 0
DWIDTH 15 0
BBX 7 11 4 8
BITMAP
7C
7E
8E
06
06
0E
7C
70
60
60
E0
ENDCHAR
STARTCHAR 02C1
ENCODING 705
SWIDTH 600 0
DWIDTH 15 0
BBX 8 11 4 8
BITMAP
1F
3F
71
E0
E0
E0
7C
38
18
38
38
ENDCHAR
STARTCHAR 02C6
ENCODING 710
SWIDTH 600 0
DWIDTH 15 0
BBX 9 5 4 15
BITMAP
0E00
1F00
3F00
7380
E180
ENDCHAR
STARTCHAR 02C7
ENCODING 711
SWIDTH 600 0
DWIDTH 15 0
BBX 9 5 5 15
BITMAP
C180
6300
7600
3E00
3C00
ENDCHAR
STARTCHAR 02C8
ENCODING 712
SWIDTH 600 0
DWIDTH 15 0
BBX 3 7 6 12
BITMAP
60
60
60
E0
E0
C0
C0
ENDCHAR
STARTCHAR 02C9
ENCODING 713
SWIDTH 600 0
DWIDTH 15 0
BBX 8 3 5 17
BITMAP
7F
FF
FF
ENDCHAR
STARTCHAR 02CC
ENCODING 716
SWIDTH 600 0
DWIDTH 15 0
BBX 3 7 6 -2
BITMAP
60
60
60
E0
E0
C0
C0
ENDCHAR
STARTCHAR 02CD
ENCODING 717
SWIDTH 600 0
DWIDTH 15 0
BBX 8 3 1 -5
BITMAP
FF
FF
FF
ENDCHAR
STARTCHAR 02CE
ENCODING 718
SWIDTH 600 0
DWIDTH 15 0
BBX 6 5 6 -7
BITMAP
E0
70
70
38
1C
ENDCHAR
STARTCHAR 02CF
ENCODING 719
SWIDTH 600 0
DWIDTH 15 0
BBX 8 5 6 -7
BITMAP
0F
1C
38
70
E0
ENDCHAR
STARTCHAR 02D0
ENCODING 720
SWIDTH 600 0
DWIDTH 15 0
BBX 7 14 4 0
BITMAP
3E
1C
1C
08
08
00
00
00
00
10
20
30
70
F8
ENDCHAR
STARTCHAR 02D1
ENCODING 721
SWIDTH 600 0
DWIDTH 15 0
BBX 5 5 5 9
BITMAP
F8
70
70
20
20
ENDCHAR
STARTCHAR 02D8
ENCODING 728
SWIDTH 600 0
DWIDTH 15 0
BBX 9 4 5 16
BITMAP
C180
E300
7F00
3C00
ENDCHAR
STARTCHAR 02D9
ENCODING 729
SWIDTH 600 0
DWIDTH 15 0
BBX 4 3 7 16
BITMAP
70
70
F0
ENDCHAR
STARTCHAR 02DA
ENCODING 730
SWIDTH 600 0
DWIDTH 15 0
BBX 7 7 6 15
BITMAP
78
FC
CC
C6
CC
FC
78
ENDCHAR
STARTCHAR 02DB
ENCODING 731
SWIDTH 600 0
DWIDTH 15 0
BBX 5 5 3 -5
BITMAP
30
60
C0
F8
78
ENDCHAR
STARTCHAR 02DC
ENCODING 732
SWIDTH 600 0
DWIDTH 15 0
BBX 9 4 5 16
BITMAP
7180
FB00
DF00
8E00
ENDCHAR
STARTCHAR 02DD
ENCODING 733
SWIDTH 600 0
DWIDTH 15 0
BBX 10 5 5 15
BITMAP
39C0
3380
7300
E700
CE00
ENDCHAR
STARTCHAR 0300
ENCODING 768
SWIDTH 0 0
DWIDTH 0 0
BBX 7 5 -11 15
BITMAP
F0
78
38
1C
0E
ENDCHAR
STARTCHAR 0301
ENCODING 769
SWIDTH 0 0
DWIDTH 0 0
BBX 8 5 -8 15
BITMAP
0F
1E
38
70
E0
ENDCHAR
STARTCHAR 0302
ENCODING 770
SWIDTH 0 0
DWIDTH 0 0
BBX 9 5 -11 15
BITMAP
0E00
1F00
3F00
7380
E180
ENDCHAR
STARTCHAR 0303
ENCODING 771
SWIDTH 0 0
DWIDTH 0 0
BBX 9 4 -10 16
BITMAP
7180
F900
DF00
8E00
ENDCHAR
STARTCHAR 0304
ENCODING 772
SWIDTH 0 0
DWIDTH 0 0
BBX 8 3 -10 17
BITMAP
FF
FF
FF
ENDCHAR
STARTCHAR 0305
ENCODING 773
SWIDTH 0 0
DWIDTH 0 0
BBX 15 3 -15 17
BITMAP
FFFE
FFFE
FFFE
ENDCHAR
STARTCHAR 0306
ENCODING 774
SWIDTH 0 0
DWIDTH 0 0
BBX 9 4 -10 16
BITMAP
C180
C300
7F00
3C00
ENDCHAR
STARTCHAR 0307
ENCODING 775
SWIDTH 0 0
DWIDTH 0 0
BBX 4 3 -8 16
BITMAP
70
70
F0
ENDCHAR
STARTCHAR 0308
ENCODING 776
SWIDTH 0 0
DWIDTH 0 0
BBX 8 3 -10 16
BITMAP
F7
E7
E7
ENDCHAR
STARTCHAR 0309
ENCODING 777
SWIDTH 0 0
DWIDTH 0 0
BBX 5 6 -10 15
BITMAP
F0
F8
18
18
30
60
ENDCHAR
STARTCHAR 030A
ENCODING 778
SWIDTH 0 0
DWIDTH 0 0
BBX 7 7 -9 15
BITMAP
78
FC
CC
86
CC
FC
78
ENDCHAR
STARTCHAR 030B
ENCODING 779
SWIDTH 0 0
DWIDTH 0 0
BBX 10 5 -10 15
BITMAP
39C0
3380
6300
E600
CE00
ENDCHAR
STARTCHAR 030C
ENCODING 780
SWIDTH 0 0
DWIDTH 0 0
BBX 9 5 -10 15
BITMAP
C180
E300
6600
7E00
3C00
ENDCHAR
STARTCHAR 030D
ENCODING 781
SWIDTH 0 0
DWIDTH 0 0
BBX 3 5 -9 15
BITMAP
60
60
E0
C0
C0
ENDCHAR
STARTCHAR 030E
ENCODING 782
SWIDTH 0 0
DWIDTH 0 0
BBX 11 5 -13 15
BITMAP
70E0
60C0
60C0
60C0
E1C0
ENDCHAR
STARTCHAR 030F
ENCODING 783
SWIDTH 0 0
DWIDTH 0 0
BBX 9 5 -11 15
BITMAP
EE00
6600
6700
7300
3380
ENDCHAR
STARTCHAR 0310
ENCODING 784
SWIDTH 0 0
DWIDTH 0 0
BBX 8 3 -9 19
BITMAP
FF
FE
7C
ENDCHAR
STARTCHAR 0311
ENCODING 785
SWIDTH 0 0
DWIDTH 0 0
BBX 8 3 -10 17
BITMAP
3E
7F
C3
ENDCHAR
STARTCHAR 0312
ENCODING 786
SWIDTH 0 0
DWIDTH 0 0
BBX 6 4 -10 11
BITMAP
1C
38
70
F0
ENDCHAR
STARTCHAR 0313
ENCODING 787
SWIDTH 0 0
DWIDTH 0 0
BBX 5 6 -10 15
BITMAP
78
70
70
30
F0
C0
ENDCHAR
STARTCHAR 0314
ENCODING 788
SWIDTH 0 0
DWIDTH 0 0
BBX 4 6 -9 15
BITMAP
F0
E0
E0
C0
E0
60
ENDCHAR
STARTCHAR 0315
ENCODING 789
SWIDTH 0 0
DWIDTH 0 0
BBX 5 5 -8 15
BITMAP
78
78
70
E0
E0
ENDCHAR
STARTCHAR 0316
ENCODING 790
SWIDTH 0 0
DWIDTH 0 0
BBX 6 5 -9 -7
BITMAP
F0
70
38
18
1C
ENDCHAR
STARTCHAR 0317
ENCODING 791
SWIDTH 0 0
DWIDTH 0 0
BBX 8 5 -10 -7
BITMAP
0F
1E
3C
30
E0
ENDCHAR
STARTCHAR 0318
ENCODING 792
SWIDTH 0 0
DWIDTH 0 0
BBX 5 7 -11 -10
BITMAP
18
18
F8
F8
F0
30
30
ENDCHAR
STARTCHAR 0319
ENCODING 793
SWIDTH 0 0
DWIDTH 0 0
BBX 6 7 -11 -10
BITMAP
30
30
7C
7C
78
60
E0
ENDCHAR
STARTCHAR 031A
ENCODING 794
SWIDTH 0 0
DWIDTH 0 0
BBX 8 7 -11 17
BITMAP
7F
7E
FE
06
0E
0E
0C
ENDCHAR
STARTCHAR 031B
ENCODING 795
SWIDTH 0 0
DWIDTH 0 0
BBX 5 5 -10 9
BITMAP
18
18
98
F8
70
ENDCHAR
STARTCHAR 031C
ENCODING 796
SWIDTH 0 0
DWIDTH 0 0
BBX 3 6 -11 -6
BITMAP
20
E0
C0
80
C0
C0
ENDCHAR
STARTCHAR 031D
ENCODING 797
SWIDTH 0 0
DWIDTH 0 0
BBX 7 5 -12 -8
BITMAP
18
18
FE
FE
FE
ENDCHAR
STARTCHAR 031E
ENCODING 798
SWIDTH 0 0
DWIDTH 0 0
BBX 7 5 -13 -10
BITMAP
7E
FE
FE
38
30
ENDCHAR
STARTCHAR 031F
ENCODING 799
SWIDTH 0 0
DWIDTH 0 0
BBX 7 7 -12 -10
BITMAP
18
18
FE
FE
FE
30
70
ENDCHAR
STARTCHAR 0320
ENCODING 800
SWIDTH 0 0
DWIDTH 0 0
BBX 7 3 -11 -5
BITMAP
FE
FE
FE
ENDCHAR
STARTCHAR 0321
ENCODING 801
SWIDTH 0 0
DWIDTH 0 0
BBX 8 7 -9 -5
BITMAP
0F
0E
0E
1E
7C
FC
F0
ENDCHAR
STARTCHAR 0322
ENCODING 802
SWIDTH 0 0
DWIDTH 0 0
BBX 6 7 -13 -5
BITMAP
70
F0
F0
F0
FC
FC
3C
ENDCHAR
STARTCHAR 0323
ENCODING 803
SWIDTH 0 0
DWIDTH 0 0
BBX 4 3 -12 -6
BITMAP
F0
F0
E0
ENDCHAR
STARTCHAR 0324
ENCODING 804
SWIDTH 0 0
DWIDTH 0 0
BBX 8 3 -14 -6
BITMAP
E7
E7
E7
ENDCHAR
STARTCHAR 0325
ENCODING 805
SWIDTH 0 0
DWIDTH 0 0
BBX 6 6 -13 -6
BITMAP
38
7C
CC
CC
F8
70
ENDCHAR
STARTCHAR 0326
ENCODING 806
SWIDTH 0 0
DWIDTH 0 0
BBX 5 4 -13 -6
BITMAP
78
70
E0
C0
ENDCHAR
STARTCHAR 0327
ENCODING 807
SWIDTH 0 0
DWIDTH 0 0
BBX 6 5 -13 -5
BITMAP
18
0C
0C
F8
F0
ENDCHAR
STARTCHAR 0328
ENCODING 808
SWIDTH 0 0
DWIDTH 0 0
BBX 5 5 -12 -5
BITMAP
60
C0
C0
F8
F0
ENDCHAR
STARTCHAR 0329
ENCODING 809
SWIDTH 0 0
DWIDTH 0 0
BBX 3 5 -9 -8
BITMAP
60
60
E0
C0
C0
ENDCHAR
STARTCHAR 032A
ENCODING 810
SWIDTH 0 0
DWIDTH 0 0
BBX 9 5 -12 -7
BITMAP
7F80
7F80
7F00
E300
E300
ENDCHAR
STARTCHAR 032B
ENCODING 811
SWIDTH 0 0
DWIDTH 0 0
BBX 10 4 -12 -6
BITMAP
CCC0
DD80
FF80
7700
ENDCHAR
STARTCHAR 032C
ENCODING 812
SWIDTH 0 0
DWIDTH 0 0
BBX 9 5 -14 -6
BITMAP
C180
E300
6600
7C00
3800
ENDCHAR
STARTCHAR 032D
ENCODING 813
SWIDTH 0 0
DWIDTH 0 0
BBX 9 5 -15 -6
BITMAP
0E00
1E00
3F00
7300
E180
ENDCHAR
STARTCHAR 032E
ENCODING 814
SWIDTH 0 0
DWIDTH 0 0
BBX 8 4 -14 -6
BITMAP
C1
C3
FE
7C
ENDCHAR
STARTCHAR 032F
ENCODING 815
SWIDTH 0 0
DWIDTH 0 0
BBX 9 3 -15 -5
BITMAP
1E00
7F00
E180
ENDCHAR
STARTCHAR 0330
ENCODING 816
SWIDTH 0 0
DWIDTH 0 0
BBX 9 4 -15 -6
BITMAP
3080
7D80
4F80
C700
ENDCHAR
STARTCHAR 0331
ENCODING 817
SWIDTH 0 0
DWIDTH 0 0
BBX 8 3 -14 -5
BITMAP
FF
FF
FF
ENDCHAR
STARTCHAR 0332
ENCODING 818
SWIDTH 0 0
DWIDTH 0 0
BBX 15 3 -15 -6
BITMAP
FFFE
FFFE
FFFE
ENDCHAR
STARTCHAR 0333
ENCODING 819
SWIDTH 0 0
DWIDTH 0 0
BBX 15 6 -15 -6
BITMAP
FFFE
FFFE
FFFE
FFFE
FFFE
FFFE
ENDCHAR
STARTCHAR 0334
ENCODING 820
SWIDTH 0 0
DWIDTH 0 0
BBX 13 4 -14 6
BITMAP
3E08
FFF8
FFF8
83E0
ENDCHAR
STARTCHAR 0335
ENCODING 821
SWIDTH 0 0
DWIDTH 0 0
BBX 10 3 -13 5
BITMAP
FFC0
FFC0
FFC0
ENDCHAR
STARTCHAR 0336
ENCODING 822
SWIDTH 0 0
DWIDTH 0 0
BBX 15 3 -15 5
BITMAP
FFFE
FFFE
FFFE
ENDCHAR
STARTCHAR 0337
ENCODING 823
SWIDTH 0 0
DWIDTH 0 0
BBX 17 16 -16 -1
BITMAP
000100
000380
000700
000E00
001C00
003800
007000
00E000
01C000
038000
070000
0C0000
380000
700000
E00000
C00000
ENDCHAR
STARTCHAR 0338
ENCODING 824
SWIDTH 0 0
DWIDTH 0 0
BBX 19 20 -17 -1
BITMAP
000080
0001E0
0001C0
000380
000700
000E00
001C00
003800
007000
00E000
01C000
038000
038000
070000
0E0000
1C0000
380000
700000
E00000
400000
ENDCHAR
STARTCHAR 0339
ENCODING 825
SWIDTH 0 0
DWIDTH 0 0
BBX 3 6 -12 -6
BITMAP
40
60
20
20
E0
C0
ENDCHAR
STARTCHAR 033A
ENCODING 826
SWIDTH 0 0
DWIDTH 0 0
BBX 9 5 -12 -6
BITMAP
6380
6380
7F00
FF00
FF00
ENDCHAR
STARTCHAR 033B
ENCODING 827
SWIDTH 0 0
DWIDTH 0 0
BBX 9 7 -12 -10
BITMAP
3F80
7F00
6300
6300
6300
7F00
FE00
ENDCHAR
STARTCHAR 033C
ENCODING 828
SWIDTH 0 0
DWIDTH 0 0
BBX 10 4 -13 -6
BITMAP
3B80
7FC0
6EC0
CCC0
ENDCHAR
STARTCHAR 033D
ENCODING 829
SWIDTH 0 0
DWIDTH 0 0
BBX 7 6 -11 15
BITMAP
24
7E
7C
38
FC
CC
ENDCHAR
STARTCHAR 033E
ENCODING 830
SWIDTH 0 0
DWIDTH 0 0
BBX 5 6 -10 15
BITMAP
38
60
60
30
30
E0
ENDCHAR
STARTCHAR 033F
ENCODING 831
SWIDTH 0 0
DWIDTH 0 0
BBX 15 3 -15 13
BITMAP
FFFE
FFFE
FFFE
ENDCHAR
STARTCHAR 0358
ENCODING 856
SWIDTH 0 0
DWIDTH 0 0
BBX 4 3 0 16
BITMAP
F0
E0
E0
ENDCHAR
STARTCHAR 0361
ENCODING 865
SWIDTH 0 0
DWIDTH 0 0
BBX 21 3 -18 19
BITMAP
07FF00
7FFFE0
F00078
ENDCHAR
STARTCHAR 0384
ENCODING 900
SWIDTH 600 0
DWIDTH 15 0
BBX 8 5 7 15
BITMAP
0F
1E
38
70
E0
ENDCHAR
STARTCHAR 0385
ENCODING 901
SWIDTH 600 0
DWIDTH 15 0
BBX 12 8 4 16
BITMAP
00F0
01C0
0380
0700
0E00
71C0
E180
E380
ENDCHAR
STARTCHAR 0386
ENCODING 902
SWIDTH 600 0
DWIDTH 15 0
BBX 14 19 -1 0
BITMAP
0F00
1EF8
3CF8
39F8
71F8
83F8
03B8
07B8
0738
0F3C
0F3C
0E3C
1FFC
1FFC
3FFC
381C
781C
701C
F01C
ENDCHAR
STARTCHAR 0388
ENCODING 904
SWIDTH 600 0
DWIDTH 15 0
BBX 20 18 -5 0
BITMAP
0F7FF0
1CFFF0
38FFE0
70F000
80E000
00E000
01E000
01FFC0
01FFC0
01FF80
01C000
03C000
03C000
03C000
038000
03FF80
07FF80
07FF80
ENDCHAR
STARTCHAR 0389
ENCODING 905
SWIDTH 600 0
DWIDTH 15 0
BBX 20 18 -5 0
BITMAP
0FF0F0
1CF0F0
38F0F0
70E0E0
E0E0E0
01E1E0
01E1E0
01FFE0
01FFC0
01FFC0
03C3C0
03C3C0
03C3C0
0383C0
038380
078780
078780
078780
ENDCHAR
STARTCHAR 038A
ENCODING 906
SWIDTH 600 0
DWIDTH 15 0
BBX 19 18 -4 0
BITMAP
1EFFE0
38FFC0
71FFC0
E01C00
001C00
003C00
003C00
003C00
003800
003800
007800
007800
007800
007000
007000
07FF00
07FF00
0FFE00
ENDCHAR
STARTCHAR 038C
ENCODING 908
SWIDTH 600 0
DWIDTH 15 0
BBX 17 18 -3 0
BITMAP
0F7C00
1DFF00
3BFF80
73C780
878780
078780
070780
0F0780
0F0780
0F0780
0F0780
0E0F00
0E0F00
0E0F00
0F1E00
0FFC00
07F800
03F000
ENDCHAR
STARTCHAR 038E
ENCODING 910
SWIDTH 600 0
DWIDTH 15 0
BBX 23 18 -7 0
BITMAP
0F781E
1C7C3E
387E7E
700EEE
800FEC
000FC0
000F80
000780
000780
000F00
000F00
000F00
000F00
000E00
000E00
001E00
001E00
001E00
ENDCHAR
STARTCHAR 038F
ENCODING 911
SWIDTH 600 0
DWIDTH 15 0
BBX 16 18 -2 0
BITMAP
1F7C
3DFE
73FF
E78F
078F
0F07
0F07
0E0F
1E0F
1E0F
1E0F
1E1E
1E1E
0E3C
0F78
3F7E
3F7E
3E7E
ENDCHAR
STARTCHAR 0390
ENCODING 912
SWIDTH 600 0
DWIDTH 15 0
BBX 12 23 4 0
BITMAP
01F0
03C0
0700
0E00
7180
6380
E380
0000
0000
FC00
FC00
FC00
3C00
3800
3800
3800
7800
7800
7800
7800
7E00
7E00
3C00
ENDCHAR
STARTCHAR 0391
ENCODING 913
SWIDTH 600 0
DWIDTH 15 0
BBX 14 18 -1 0
BITMAP
00F8
01F8
01F8
01F8
03B8
03B8
07B8
0738
0F38
0E38
1E38
1FF8
3FFC
3FFC
783C
783C
F03C
F03C
ENDCHAR
STARTCHAR 0392
ENCODING 914
SWIDTH 600 0
DWIDTH 15 0
BBX 14 18 0 0
BITMAP
1FF0
1FFC
1FFC
1C1C
3C1C
3C1C
3C3C
3FF8
3FC0
7FF0
7878
783C
703C
7038
7078
FFF8
FFF0
FFC0
ENDCHAR
STARTCHAR 0393
ENCODING 915
SWIDTH 600 0
DWIDTH 15 0
BBX 15 18 1 0
BITMAP
1FFE
1FFC
1FFC
3C00
3C00
3C00
3800
3800
7800
7800
7800
7800
7000
7000
F000
F000
F000
E000
ENDCHAR
STARTCHAR 0394
ENCODING 916
SWIDTH 600 0
DWIDTH 15 0
BBX 14 18 -1 0
BITMAP
00F8
01F8
01F8
03F8
03B8
03B8
0738
0738
0E38
0E38
1E38
1C38
3C38
383C
783C
7FFC
FFFC
FFFC
ENDCHAR
STARTCHAR 0395
ENCODING 917
SWIDTH 600 0
DWIDTH 15 0
BBX 15 18 0 0
BITMAP
0FFE
0FFE
1FFE
1E00
1E00
1C00
1C00
3FF8
3FF8
3FF8
3800
3800
7800
7800
7800
7FF0
7FF0
FFF0
ENDCHAR
STARTCHAR 0396
ENCODING 918
SWIDTH 600 0
DWIDTH 15 0
BBX 16 18 0 0
BITMAP
1FFF
1FFE
1FFE
003E
007C
00F8
00F0
01E0
03C0
0780
0F80
1F00
3E00
7C00
7800
FFF8
FFF8
FFF8
ENDCHAR
STARTCHAR 0397
ENCODING 919
SWIDTH 600 0
DWIDTH 15 0
BBX 15 18 0 0
BITMAP
1E1E
1E1E
1E1E
1C1C
1C1C
3C3C
3C3C
3FFC
3FF8
3FF8
7878
7878
7878
7078
7070
F0F0
F0F0
F0F0
ENDCHAR
STARTCHAR 0398
ENCODING 920
SWIDTH 600 0
DWIDTH 15 0
BBX 15 18 0 0
BITMAP
01F0
0FF8
1FFC
3E3E
381E
780E
700E
F00E
F7CE
E7DE
E7DE
E01C
E03C
F038
F078
FFF0
7FE0
1F80
ENDCHAR
STARTCHAR 0399
ENCODING 921
SWIDTH 600 0
DWIDTH 15 0
BBX 15 18 0 0
BITMAP
0FFE
0FFC
1FFC
01C0
01C0
03C0
03C0
03C0
0380
0380
0780
0780
0780
0700
0700
7FF0
7FF0
FFE0
ENDCHAR
STARTCHAR 039A
ENCODING 922
SWIDTH 600 0
DWIDTH 15 0
BBX 17 18 0 0
BITMAP
1E0F80
1E1E00
1C3C00
1C7800
3CF000
3DE000
3FC000
3F8000
3FC000
7FC000
7DC000
79E000
70E000
70F000
F0F000
F07000
F07800
E07800
ENDCHAR
STARTCHAR 039B
ENCODING 923
SWIDTH 600 0
DWIDTH 15 0
BBX 14 18 -1 0
BITMAP
00F8
01F8
01F8
01F8
03B8
03B8
0738
0738
0F38
0E38
1E38
1C38
3C3C
383C
783C
703C
F03C
F03C
ENDCHAR
STARTCHAR 039C
ENCODING 924
SWIDTH 600 0
DWIDTH 15 0
BBX 17 18 -1 0
BITMAP
0F0F80
0F0F00
1F1F00
1F1F00
1F3F00
1FB700
1FFE00
3BEE00
39EE00
39EE00
39CE00
39DE00
701C00
701C00
701C00
701C00
703C00
E03800
ENDCHAR
STARTCHAR 039D
ENCODING 925
SWIDTH 600 0
DWIDTH 15 0
BBX 15 18 0 0
BITMAP
1E0E
1E0E
1E0E
1F1E
3F1C
3B1C
3B1C
3B1C
3BBC
7BB8
71B8
71B8
71B8
71F8
F1F0
E0F0
E0F0
E0F0
ENDCHAR
STARTCHAR 039E
ENCODING 926
SWIDTH 600 0
DWIDTH 15 0
BBX 15 18 0 0
BITMAP
1FFE
1FFE
1FFE
0000
0000
0000
0000
07E0
07E0
0FC0
0000
0000
0000
0000
0000
FFF0
FFF0
FFF0
ENDCHAR
STARTCHAR 039F
ENCODING 927
SWIDTH 600 0
DWIDTH 15 0
BBX 13 19 1 0
BITMAP
07C0
0FF0
1FF8
3C78
3878
7838
7838
F078
F078
F078
F078
F078
E0F0
E0F0
F0F0
F1E0
FFC0
7F80
1F00
ENDCHAR
STARTCHAR 03A0
ENCODING 928
SWIDTH 600 0
DWIDTH 15 0
BBX 15 18 0 0
BITMAP
1FFE
1FFE
1FFE
1C1E
1C1C
3C1C
3C3C
3C3C
383C
3838
7838
7878
7878
7878
7070
7070
F0F0
F0F0
ENDCHAR
STARTCHAR 03A1
ENCODING 929
SWIDTH 600 0
DWIDTH 15 0
BBX 15 18 0 0
BITMAP
0FF0
0FFC
1FFE
1E1E
1E1E
1C1E
1C1E
3C3C
3FFC
3FF8
3FE0
3800
7800
7800
7800
7000
7000
F000
ENDCHAR
STARTCHAR 03A3
ENCODING 931
SWIDTH 600 0
DWIDTH 15 0
BBX 17 18 -1 0
BITMAP
0FFF80
0FFF00
1FFF00
0F0000
0F0000
078000
03C000
03C000
01E000
01E000
03C000
0F8000
1F0000
3E0000
7C0000
7FFC00
7FFC00
FFF800
ENDCHAR
STARTCHAR 03A4
ENCODING 932
SWIDTH 600 0
DWIDTH 15 0
BBX 14 18 2 0
BITMAP
7FFC
7FFC
FFF8
0780
0700
0F00
0F00
0F00
0F00
0E00
0E00
1E00
1E00
1E00
1C00
1C00
3C00
3C00
ENDCHAR
STARTCHAR 03A5
ENCODING 933
SWIDTH 600 0
DWIDTH 15 0
BBX 14 18 2 0
BITMAP
F03C
F87C
FCFC
1DDC
1FD8
1F80
0F00
0F00
0F00
0E00
1E00
1E00
1E00
1E00
1C00
3C00
3C00
3C00
ENDCHAR
STARTCHAR 03A6
ENCODING 934
SWIDTH 600 0
DWIDTH 15 0
BBX 13 18 1 0
BITMAP
07F0
07E0
0FE0
0380
1FE0
3FF0
7FF8
77B8
E738
E738
EF78
FFF0
7FE0
3FC0
0E00
3F80
3F00
7F00
ENDCHAR
STARTCHAR 03A7
ENCODING 935
SWIDTH 600 0
DWIDTH 15 0
BBX 18 18 -2 0
BITMAP
0F03C0
070780
078700
038F00
03DE00
03FC00
01F800
01F800
00F000
01F000
03F000
07F000
07F800
0F3800
1E3C00
3C1C00
781C00
F81E00
ENDCHAR
STARTCHAR 03A8
ENCODING 936
SWIDTH 600 0
DWIDTH 15 0
BBX 14 18 2 0
BITMAP
77BC
F7BC
F7B8
F738
E778
EF78
EF70
EFF0
EEF0
FFE0
FFE0
FFC0
7F80
1C00
1C00
7F00
7E00
FE00
ENDCHAR
STARTCHAR 03A9
ENCODING 937
SWIDTH 600 0
DWIDTH 15 0
BBX 13 18 1 0
BITMAP
0F80
1FC0
3FE0
78F0
7870
F078
F078
F078
F078
F078
F078
7070
78F0
38E0
3DE0
FDF8
FDF8
FDF8
ENDCHAR
STARTCHAR 03AA
ENCODING 938
SWIDTH 600 0
DWIDTH 15 0
BBX 15 23 0 0
BITMAP
039C
0398
0738
0000
0000
0FFE
0FFC
1FFC
01C0
01C0
03C0
03C0
03C0
0380
0380
0780
0780
0780
0700
0700
7FF0
7FF0
FFE0
ENDCHAR
STARTCHAR 03AB
ENCODING 939
SWIDTH 600 0
DWIDTH 15 0
BBX 14 23 2 0
BITMAP
0E70
0E70
0CE0
0000
0000
F03C
F87C
FCFC
1DDC
1FD8
1F80
0F00
0F00
0F00
0E00
1E00
1E00
1E00
1E00
1C00
3C00
3C00
3C00
ENDCHAR
STARTCHAR 03AC
ENCODING 940
SWIDTH 600 0
DWIDTH 15 0
BBX 15 21 0 0
BITMAP
001E
003C
0070
00E0
01C0
0000
0000
07CE
0FFE
1FFC
3CFC
7878
7078
7070
70F0
F0F0
F1F0
F1F0
7FF8
7FF8
3F38
ENDCHAR
STARTCHAR 03AD
ENCODING 941
SWIDTH 600 0
DWIDTH 15 0
BBX 14 21 1 0
BITMAP
003C
0078
00E0
01C0
0380
0000
0000
07F8
1FF0
3FF0
3C00
3800
3F80
0F80
3F80
7000
F000
F020
FFE0
7FE0
3FC0
ENDCHAR
STARTCHAR 03AE
ENCODING 942
SWIDTH 600 0
DWIDTH 15 0
BBX 14 26 1 -5
BITMAP
003C
0070
00E0
01C0
0380
0000
0000
3CF0
3FF0
3FF8
3C78
3878
7878
7870
7870
78F0
70F0
70F0
F0E0
F0E0
F1E0
01E0
01E0
01C0
01C0
03C0
ENDCHAR
STARTCHAR 03AF
ENCODING 943
SWIDTH 600 0
DWIDTH 15 0
BBX 10 20 4 0
BITMAP
03C0
0780
0E00
1C00
1800
0000
FC00
FC00
FC00
3C00
3800
3800
7800
7800
7800
7000
7800
7E00
7E00
3C00
ENDCHAR
STARTCHAR 03B0
ENCODING 944
SWIDTH 600 0
DWIDTH 15 0
BBX 15 24 1 0
BITMAP
001E
0038
0070
00E0
01C0
0E38
1C30
1C70
0000
0000
7E78
7C38
FC38
3C38
3C38
3C38
3878
3878
7870
78F0
79E0
7FE0
7FC0
3F00
ENDCHAR
STARTCHAR 03B1
ENCODING 945
SWIDTH 600 0
DWIDTH 15 0
BBX 15 14 0 0
BITMAP
07CE
0FFE
1FFC
3CFC
7878
7078
7070
70F0
F0F0
F1F0
F1F0
7FF8
7FF8
3F38
ENDCHAR
STARTCHAR 03B2
ENCODING 946
SWIDTH 600 0
DWIDTH 15 0
BBX 15 24 -1 -5
BITMAP
00F8
03FC
07FE
079E
0F0E
0F0E
0F1E
0E3C
0E78
1EFC
1EFE
1E1E
1C1E
1C1E
3C1E
3E3C
3FFC
3FF8
3BE0
7800
7800
7800
7000
F000
ENDCHAR
STARTCHAR 03B3
ENCODING 947
SWIDTH 600 0
DWIDTH 15 0
BBX 13 19 2 -5
BITMAP
E038
F078
F070
78F0
79E0
79C0
3BC0
3B80
3F80
3F00
3F00
3E00
3E00
3C00
3C00
3C00
3800
3800
7800
ENDCHAR
STARTCHAR 03B4
ENCODING 948
SWIDTH 600 0
DWIDTH 15 0
BBX 13 19 1 0
BITMAP
03F8
0FF8
1FF8
1C00
1C00
1FC0
1FF0
3FF0
7C78
7878
F078
F078
F078
E070
F0F0
F1E0
FFE0
7FC0
3F00
ENDCHAR
STARTCHAR 03B5
ENCODING 949
SWIDTH 600 0
DWIDTH 15 0
BBX 13 14 1 0
BITMAP
07F8
1FF0
3FF0
3C00
3800
3F80
0F80
3F80
7000
F000
F020
FFE0
7FE0
3FC0
ENDCHAR
STARTCHAR 03B6
ENCODING 950
SWIDTH 600 0
DWIDTH 15 0
BBX 13 24 2 -5
BITMAP
1FF8
3FF8
3FF8
01F0
03C0
0F80
1E00
1C00
3C00
7800
7000
F000
F000
E000
F000
F000
FF00
7F80
1FC0
01C0
01C0
0380
0780
0600
ENDCHAR
STARTCHAR 03B7
ENCODING 951
SWIDTH 600 0
DWIDTH 15 0
BBX 13 19 1 -5
BITMAP
3CF0
3FF0
3FF8
3C78
3878
7870
7870
78F0
70F0
70F0
F0E0
F0E0
F0E0
F1E0
01E0
01E0
01C0
01C0
03C0
ENDCHAR
STARTCHAR 03B8
ENCODING 952
SWIDTH 600 0
DWIDTH 15 0
BBX 14 19 1 0
BITMAP
01E0
07F0
0FF8
1E38
3C3C
383C
783C
783C
7FFC
7FF8
FFF8
F078
F078
F070
F0F0
71E0
7FC0
3F80
1E00
ENDCHAR
STARTCHAR 03B9
ENCODING 953
SWIDTH 600 0
DWIDTH 15 0
BBX 7 14 4 0
BITMAP
FC
FC
FC
3C
3C
38
38
78
78
78
78
7E
7E
3C
ENDCHAR
STARTCHAR 03BA
ENCODING 954
SWIDTH 600 0
DWIDTH 15 0
BBX 15 14 1 0
BITMAP
3C3E
3C78
3CF0
39E0
3B80
7F80
7F80
7F80
7BC0
71C0
F1E0
F1E0
F0F0
E0F0
ENDCHAR
STARTCHAR 03BB
ENCODING 955
SWIDTH 600 0
DWIDTH 15 0
BBX 13 19 0 0
BITMAP
0F80
0FC0
0FC0
01E0
01E0
01E0
01E0
01E0
03E0
07F0
07F0
0FF0
0EF0
1E70
3C70
3C70
7878
7078
F078
ENDCHAR
STARTCHAR 03BC
ENCODING 956
SWIDTH 600 0
DWIDTH 15 0
BBX 15 19 -1 -5
BITMAP
0F1E
0E1E
1E1E
1E1C
1E1C
1C3C
1C3C
1C3C
3C38
3C78
3C78
3FFC
3FFC
7F3C
7800
7800
7000
7000
F000
ENDCHAR
STARTCHAR 03BD
ENCODING 957
SWIDTH 600 0
DWIDTH 15 0
BBX 12 14 2 0
BITMAP
F0F0
F0F0
F070
F070
F070
F0F0
F0F0
F1E0
73E0
77C0
7F80
7F00
7E00
7C00
ENDCHAR
STARTCHAR 03BE
ENCODING 958
SWIDTH 600 0
DWIDTH 15 0
BBX 14 24 1 -5
BITMAP
0FFC
1FFC
1FFC
0780
0E00
1E00
1E00
1F00
0FF0
07E0
1FE0
3E00
7800
7000
F000
7800
7F80
3FC0
0FE0
00E0
00C0
03C0
0380
0300
ENDCHAR
STARTCHAR 03BF
ENCODING 959
SWIDTH 600 0
DWIDTH 15 0
BBX 13 14 1 0
BITMAP
07C0
1FF0
3FF0
7C78
7878
F078
F078
F078
F078
F0F0
F1F0
7FE0
7FC0
1F00
ENDCHAR
STARTCHAR 03C0
ENCODING 960
SWIDTH 600 0
DWIDTH 15 0
BBX 15 14 0 0
BITMAP
FFFC
FFFC
FFFC
3C70
3C70
3C70
3C70
3C70
3C70
3C70
3C70
3C78
3C7E
3C3E
ENDCHAR
STARTCHAR 03C1
ENCODING 961
SWIDTH 600 0
DWIDTH 15 0
BBX 15 19 -1 -5
BITMAP
01F8
03FC
07FE
0F1E
1E1E
1E1E
1C1E
1C1E
3C1C
3C3C
3E3C
3FF8
3BF0
79E0
7800
7800
7000
7000
F000
ENDCHAR
STARTCHAR 03C2
ENCODING 962
SWIDTH 600 0
DWIDTH 15 0
BBX 12 19 2 -5
BITMAP
07E0
1FF0
3FF0
7C30
7800
7000
F000
F000
F000
F000
F000
FF00
7F80
3F80
01C0
0180
0780
0700
0600
ENDCHAR
STARTCHAR 03C3
ENCODING 963
SWIDTH 600 0
DWIDTH 15 0
BBX 14 14 1 0
BITMAP
07FC
1FFC
3FFC
79F0
F0F0
F070
E070
E070
E0F0
E0F0
F1E0
FFC0
7F80
3E00
ENDCHAR
STARTCHAR 03C4
ENCODING 964
SWIDTH 600 0
DWIDTH 15 0
BBX 12 14 2 0
BITMAP
7FF0
FFF0
FFF0
0F00
0E00
0E00
0E00
1E00
1E00
1E00
1E00
1F80
1F80
0F00
ENDCHAR
STARTCHAR 03C5
ENCODING 965
SWIDTH 600 0
DWIDTH 15 0
BBX 12 14 2 0
BITMAP
FCF0
F870
F870
7870
7870
7870
70F0
70F0
70F0
F1E0
F1E0
FFC0
FF80
7E00
ENDCHAR
STARTCHAR 03C6
ENCODING 966
SWIDTH 600 0
DWIDTH 15 0
BBX 14 19 1 -5
BITMAP
0CF0
1DF8
3BF8
7BBC
77BC
E7BC
E738
E738
E778
EF78
FFF0
FFE0
7FC0
3F00
1E00
1E00
1E00
1C00
3C00
ENDCHAR
STARTCHAR 03C7
ENCODING 967
SWIDTH 600 0
DWIDTH 15 0
BBX 16 19 -1 -5
BITMAP
1C0F
1E0E
1F1E
073C
07B8
07F8
03F0
03E0
03E0
03C0
03C0
07C0
0FE0
0FE0
1EE0
3CF0
38F8
7878
F038
ENDCHAR
STARTCHAR 03C8
ENCODING 968
SWIDTH 600 0
DWIDTH 15 0
BBX 15 19 1 -5
BITMAP
7BDE
739C
73BC
F7BC
F7BC
F7B8
E738
E778
EF78
EF70
EFF0
FFE0
7FC0
3F00
1E00
1E00
1C00
1C00
3C00
ENDCHAR
STARTCHAR 03C9
ENCODING 969
SWIDTH 600 0
DWIDTH 15 0
BBX 15 14 0 0
BITMAP
1E1E
1C1E
3C1E
381E
781E
781E
739C
739C
739C
F7BC
F7B8
7FF8
7DF0
39E0
ENDCHAR
STARTCHAR 03CA
ENCODING 970
SWIDTH 600 0
DWIDTH 15 0
BBX 9 19 4 0
BITMAP
7380
7380
7700
0000
0000
FC00
FC00
FC00
3C00
3800
3800
3800
7800
7800
7800
7800
7E00
7E00
3C00
ENDCHAR
STARTCHAR 03CB
ENCODING 971
SWIDTH 600 0
DWIDTH 15 0
BBX 13 19 1 0
BITMAP
0E70
0E70
0E70
0000
0000
7E78
7C38
FC38
3C38
3C38
3C38
3878
3878
7870
78F0
79E0
7FE0
7FC0
3F00
ENDCHAR
STARTCHAR 03CC
ENCODING 972
SWIDTH 600 0
DWIDTH 15 0
BBX 14 21 1 0
BITMAP
007C
0070
00E0
01C0
0380
0000
0000
07C0
1FF0
3FF0
7C78
7878
F078
F078
F078
F078
F0F0
F1F0
7FE0
7FC0
1F00
ENDCHAR
STARTCHAR 03CD
ENCODING 973
SWIDTH 600 0
DWIDTH 15 0
BBX 14 20 1 0
BITMAP
007C
00F0
01E0
0180
0300
0000
7E78
7C38
FC38
3C38
3C38
3C38
3878
3878
7870
78F0
79E0
7FE0
7FC0
3F00
ENDCHAR
STARTCHAR 03CE
ENCODING 974
SWIDTH 600 0
DWIDTH 15 0
BBX 15 21 0 0
BITMAP
001E
003C
0070
00E0
01C0
0000
0000
1E1C
1C1E
3C1E
381E
781E
781E
739C
739C
739C
F7BC
F7B8
FFF8
7DF0
39E0
ENDCHAR
STARTCHAR 03F4
ENCODING 1012
SWIDTH 600 0
DWIDTH 15 0
BBX 13 19 1 0
BITMAP
03E0
0FF0
1FF8
3C78
3C78
7838
7838
7038
FFF8
FFF8
FFF8
F070
E0F0
E0F0
F0E0
F1E0
FFC0
7F80
3E00
ENDCHAR
STARTCHAR 0400
ENCODING 1024
SWIDTH 600 0
DWIDTH 15 0
BBX 15 22 0 0
BITMAP
01C0
00E0
0070
0000
0FFE
0FFE
1FFE
1E00
1E00
1C00
1C00
3FF8
3FF8
3FF8
3800
3800
7800
7800
7800
7FF0
7FF0
FFF0
ENDCHAR
STARTCHAR 0401
ENCODING 1025
SWIDTH 600 0
DWIDTH 15 0
BBX 15 23 0 0
BITMAP
039C
039C
039C
0000
0000
0FFE
0FFE
1FFE
1E00
1E00
1C00
1C00
3FF8
3FF8
3FF8
3800
3800
7800
7800
7800
7FF0
7FF0
FFF0
ENDCHAR
STARTCHAR 0402
ENCODING 1026
SWIDTH 600 0
DWIDTH 15 0
BBX 14 24 0 -5
BITMAP
7FF8
7FF8
7FF8
1C00
1C00
1C00
3C00
3CF0
3FFC
3FFC
3E3C
783C
783C
7838
7038
7078
F078
F078
F070
0070
00F0
0FE0
0FE0
0F80
ENDCHAR
STARTCHAR 0403
ENCODING 1027
SWIDTH 600 0
DWIDTH 15 0
BBX 15 23 1 0
BITMAP
003C
0070
00E0
01C0
0000
1FFE
1FFC
1FFC
3C00
3C00
3C00
3800
3800
7800
7800
7800
7800
7000
7000
F000
F000
F000
E000
ENDCHAR
STARTCHAR 0404
ENCODING 1028
SWIDTH 600 0
DWIDTH 15 0
BBX 14 18 1 0
BITMAP
01FC
07F8
0FF8
1E08
3C00
3800
7800
7FF0
7FE0
FFE0
F000
F000
F000
F820
7860
7FE0
3FC0
1F80
ENDCHAR
STARTCHAR 0405
ENCODING 1029
SWIDTH 600 0
DWIDTH 15 0
BBX 14 18 0 0
BITMAP
03F8
0FFC
1FFC
1E0C
3C00
3C00
3E00
1F80
1FE0
07F0
00F8
0078
0078
8078
E0F8
FFF0
FFE0
3F80
ENDCHAR
STARTCHAR 0406
ENCODING 1030
SWIDTH 600 0
DWIDTH 15 0
BBX 15 18 0 0
BITMAP
0FFE
0FFC
1FFC
01C0
01C0
03C0
03C0
03C0
0380
0380
0780
0780
0780
0700
0700
7FF0
7FF0
FFE0
ENDCHAR
STARTCHAR 0407
ENCODING 1031
SWIDTH 600 0
DWIDTH 15 0
BBX 15 23 0 0
BITMAP
039C
039C
03B8
0000
0000
0FFE
0FFC
1FFC
01C0
01C0
03C0
03C0
03C0
0380
0380
0780
0780
0780
0700
0700
7FF0
7FF0
FFE0
ENDCHAR
STARTCHAR 0408
ENCODING 1032
SWIDTH 600 0
DWIDTH 15 0
BBX 14 18 0 0
BITMAP
03FC
03FC
03FC
003C
0038
0038
0078
0078
0078
0070
0070
00F0
00F0
40E0
E1E0
FFE0
FFC0
3F00
ENDCHAR
STARTCHAR 0409
ENCODING 1033
SWIDTH 600 0
DWIDTH 15 0
BBX 17 18 -2 0
BITMAP
03FC00
03FC00
03F800
03B800
033800
073800
073800
077E00
077F00
0E7F00
0E7700
0E7380
0E6700
1CE700
1CEF00
78FE00
F8FC00
E1F000
ENDCHAR
STARTCHAR 040A
ENCODING 1034
SWIDTH 600 0
DWIDTH 15 0
BBX 16 18 -1 0
BITMAP
1E38
1C38
1C38
1C38
1C38
3870
3870
3FFC
3FFE
3FFF
70EF
70E7
70E7
70E7
70EE
61FE
E1FC
E1F0
ENDCHAR
STARTCHAR 040B
ENCODING 1035
SWIDTH 600 0
DWIDTH 15 0
BBX 14 19 0 0
BITMAP
7FF8
7FF8
7FF8
1E00
1E00
1C00
1C00
3CF8
3FFC
3FFC
3E3C
3C1C
783C
783C
783C
7038
7038
F078
F078
ENDCHAR
STARTCHAR 040C
ENCODING 1036
SWIDTH 600 0
DWIDTH 15 0
BBX 17 23 0 0
BITMAP
001C00
003800
007000
00C000
000000
1E0F80
1E1E00
1C3C00
1C7800
3CF000
3DE000
3FC000
3F8000
3FC000
7FC000
7DC000
79E000
70E000
70F000
F0F000
F07000
F07800
E07800
ENDCHAR
STARTCHAR 040D
ENCODING 1037
SWIDTH 600 0
DWIDTH 15 0
BBX 15 22 0 0
BITMAP
03C0
01C0
00E0
0000
1C1E
1C1E
1C3E
1C7E
3C7E
38FC
38DC
39DC
399C
7BBC
7738
7638
7E38
7C38
FC78
F870
F070
F070
ENDCHAR
STARTCHAR 040E
ENCODING 1038
SWIDTH 600 0
DWIDTH 15 0
BBX 16 23 1 0
BITMAP
0618
0638
07F0
01C0
0000
780F
3C1E
3C1C
1C3C
1E78
1E70
1EF0
0EE0
0FE0
0FC0
0780
0780
0700
0F00
1E00
FC00
F800
F000
ENDCHAR
STARTCHAR 040F
ENCODING 1039
SWIDTH 600 0
DWIDTH 15 0
BBX 15 22 0 -4
BITMAP
1E0E
1E1E
1E1E
1E1E
1C1C
3C1C
3C3C
3C3C
3C3C
3838
7838
7878
7878
7878
7070
7FF0
FFF0
FFF0
0E00
0E00
0E00
0E00
ENDCHAR
STARTCHAR 0410
ENCODING 1040
SWIDTH 600 0
DWIDTH 15 0
BBX 14 18 -1 0
BITMAP
00F8
01F8
01F8
03F8
03B8
03B8
0738
0738
0F38
0E38
1E38
1FF8
3FF8
3FFC
783C
783C
F03C
F03C
ENDCHAR
STARTCHAR 0411
ENCODING 1041
SWIDTH 600 0
DWIDTH 15 0
BBX 15 18 0 0
BITMAP
0FFE
1FFE
1FFC
1E00
1C00
1C00
3C00
3FE0
3FF8
3FF8
3878
7838
7878
7878
70F8
7FF0
FFE0
FF80
ENDCHAR
STARTCHAR 0412
ENCODING 1042
SWIDTH 600 0
DWIDTH 15 0
BBX 15 18 0 0
BITMAP
1FF0
1FFC
1FFC
1C1C
1C1E
3C1C
3C3C
3FF8
3FC0
3FF0
7838
783C
703C
703C
7078
FFF8
FFF0
FFC0
ENDCHAR
STARTCHAR 0413
ENCODING 1043
SWIDTH 600 0
DWIDTH 15 0
BBX 15 18 1 0
BITMAP
1FFE
1FFC
1FFC
3C00
3C00
3C00
3800
3800
7800
7800
7800
7800
7000
7000
F000
F000
F000
E000
ENDCHAR
STARTCHAR 0414
ENCODING 1044
SWIDTH 600 0
DWIDTH 15 0
BBX 17 22 -2 -4
BITMAP
03FF80
03FF00
03FF00
038F00
078F00
078F00
078E00
070E00
071E00
0F1E00
0F1E00
0F1C00
0E1C00
0E3C00
1E3C00
7FFE00
7FFE00
7FFE00
700E00
F01E00
E01C00
E01C00
ENDCHAR
STARTCHAR 0415
ENCODING 1045
SWIDTH 600 0
DWIDTH 15 0
BBX 15 18 0 0
BITMAP
0FFE
0FFE
1FFE
1E00
1E00
1C00
1C00
3FF8
3FF8
3FF8
3800
3800
7800
7800
7800
7FF0
7FF0
FFF0
ENDCHAR
STARTCHAR 0416
ENCODING 1046
SWIDTH 600 0
DWIDTH 15 0
BBX 19 18 -2 0
BITMAP
0E39E0
0E31C0
077380
077780
077700
077E00
07FE00
03FC00
07FC00
07FC00
0FFC00
0FFC00
1DEE00
1DCE00
39CE00
39CE00
71CE00
F38E00
ENDCHAR
STARTCHAR 0417
ENCODING 1047
SWIDTH 600 0
DWIDTH 15 0
BBX 14 18 0 0
BITMAP
07E0
0FF8
1FFC
103C
003C
0038
07F0
07C0
07F0
0070
0078
0078
0078
0078
C0F0
FFF0
FFE0
7F80
ENDCHAR
STARTCHAR 0418
ENCODING 1048
SWIDTH 600 0
DWIDTH 15 0
BBX 15 18 0 0
BITMAP
1C1E
1C1E
1C3E
1C7E
3C7E
38FC
38DC
39DC
399C
7BBC
7738
7638
7E38
7C38
FC78
F870
F070
F070
ENDCHAR
STARTCHAR 0419
ENCODING 1049
SWIDTH 600 0
DWIDTH 15 0
BBX 15 23 0 0
BITMAP
030C
031C
03F8
01E0
0000
1C1E
1C1E
1C3E
1C7E
3C7E
38FC
38DC
39DC
399C
7BBC
7738
7638
7E38
7C38
FC78
F870
F070
F070
ENDCHAR
STARTCHAR 041A
ENCODING 1050
SWIDTH 600 0
DWIDTH 15 0
BBX 17 18 0 0
BITMAP
1E0F80
1E1E00
1C3C00
1C7800
3CF000
3DE000
3FC000
3F8000
3FC000
7FC000
7DC000
79E000
70E000
70F000
F0F000
F07000
F07800
E07800
ENDCHAR
STARTCHAR 041B
ENCODING 1051
SWIDTH 600 0
DWIDTH 15 0
BBX 17 18 -2 0
BITMAP
01FF80
03FF80
03FF80
03C780
038700
038700
078F00
078F00
078F00
070E00
070E00
0F1E00
0F1E00
0E1E00
1E1E00
7C1C00
7C3C00
F03C00
ENDCHAR
STARTCHAR 041C
ENCODING 1052
SWIDTH 600 0
DWIDTH 15 0
BBX 17 18 -1 0
BITMAP
0F0F80
0F0F00
1F1F00
1F1F00
1F3F00
1FB700
1FFE00
3BEE00
39EE00
39EE00
39CE00
39DE00
701C00
701C00
701C00
701C00
703C00
E03800
ENDCHAR
STARTCHAR 041D
ENCODING 1053
SWIDTH 600 0
DWIDTH 15 0
BBX 15 18 0 0
BITMAP
1E1E
1E1E
1E1E
1C1C
1C1C
3C3C
3C3C
3FFC
3FF8
3FF8
7878
7878
7878
7078
7070
F0F0
F0F0
F0F0
ENDCHAR
STARTCHAR 041E
ENCODING 1054
SWIDTH 600 0
DWIDTH 15 0
BBX 13 18 1 0
BITMAP
07C0
0FF0
1FF8
3C78
7878
7838
7038
F078
F078
F078
F078
F070
E0F0
F0F0
F1E0
FFC0
7FC0
1F00
ENDCHAR
STARTCHAR 041F
ENCODING 1055
SWIDTH 600 0
DWIDTH 15 0
BBX 15 18 0 0
BITMAP
0FFE
1FFE
1FFE
1C1E
1C1C
1C1C
3C3C
3C3C
3C3C
3838
3838
7878
7878
7878
7078
7070
F0F0
F0F0
ENDCHAR
STARTCHAR 0420
ENCODING 1056
SWIDTH 600 0
DWIDTH 15 0
BBX 15 18 0 0
BITMAP
0FF0
0FFC
1FFE
1E1E
1E1E
1C1E
1C1E
3C3C
3FFC
3FF8
3FE0
3800
7800
7800
7800
7000
7000
F000
ENDCHAR
STARTCHAR 0421
ENCODING 1057
SWIDTH 600 0
DWIDTH 15 0
BBX 14 18 1 0
BITMAP
01FC
07F8
0FF8
1E08
3C08
3C00
7800
7800
7000
F000
F000
F000
F000
F020
7860
7FE0
3FC0
0F80
ENDCHAR
STARTCHAR 0422
ENCODING 1058
SWIDTH 600 0
DWIDTH 15 0
BBX 14 18 2 0
BITMAP
7FFC
7FFC
FFF8
0700
0700
0F00
0F00
0F00
0F00
0E00
0E00
1E00
1E00
1E00
1C00
1C00
3C00
3C00
ENDCHAR
STARTCHAR 0423
ENCODING 1059
SWIDTH 600 0
DWIDTH 15 0
BBX 16 18 1 0
BITMAP
780F
3C1E
3C1C
1C3C
1E78
1E70
1EF0
0EE0
0FE0
0FC0
0780
0780
0700
0F00
1E00
FC00
F800
F000
ENDCHAR
STARTCHAR 0424
ENCODING 1060
SWIDTH 600 0
DWIDTH 15 0
BBX 15 18 0 0
BITMAP
00E0
03F0
0FF8
1FFC
3DFE
39CE
73CE
738E
738E
E38E
E39C
E39C
F738
7FF8
7FF0
3FC0
0700
0E00
ENDCHAR
STARTCHAR 0425
ENCODING 1061
SWIDTH 600 0
DWIDTH 15 0
BBX 19 18 -2 0
BITMAP
0F03E0
078780
078780
038F00
03DE00
01FC00
01F800
01F800
00F000
01F000
03F000
03F800
07B800
0F3800
1E3C00
3C1C00
3C1E00
F81E00
ENDCHAR
STARTCHAR 0426
ENCODING 1062
SWIDTH 600 0
DWIDTH 15 0
BBX 15 22 0 -4
BITMAP
1E1E
1E1E
1E1E
1C1C
3C1C
3C3C
3C3C
3C3C
3838
7838
7878
7878
7878
7070
F070
FFFC
FFFC
FFF8
0038
0078
0078
0078
ENDCHAR
STARTCHAR 0427
ENCODING 1063
SWIDTH 600 0
DWIDTH 15 0
BBX 13 19 2 0
BITMAP
7838
7038
F078
F078
F078
E070
E0F0
F1F0
FFF0
FFF0
7CE0
00E0
01E0
01E0
01E0
01C0
01C0
03C0
03C0
ENDCHAR
STARTCHAR 0428
ENCODING 1064
SWIDTH 600 0
DWIDTH 15 0
BBX 17 18 -1 0
BITMAP
0E7380
0E7380
1CE380
1CE700
1CE700
1CE700
1CE700
39C700
39CE00
39CE00
39CE00
39CE00
718E00
739C00
739C00
7FFC00
7FFC00
FFFC00
ENDCHAR
STARTCHAR 0429
ENCODING 1065
SWIDTH 600 0
DWIDTH 15 0
BBX 17 22 -1 -4
BITMAP
0E7380
0E7380
1CE380
1CE700
1CE700
1CE700
1CE700
38C700
39CE00
39CE00
39CE00
39CE00
718E00
739C00
739C00
7FFE00
7FFE00
FFFC00
001C00
001C00
001C00
001C00
ENDCHAR
STARTCHAR 042A
ENCODING 1066
SWIDTH 600 0
DWIDTH 15 0
BBX 12 18 2 0
BITMAP
FE00
FC00
FC00
1C00
3C00
3C00
3C00
3FC0
3FE0
7FF0
78F0
78F0
70F0
70F0
F1E0
FFE0
FFC0
FE00
ENDCHAR
STARTCHAR 042B
ENCODING 1067
SWIDTH 600 0
DWIDTH 15 0
BBX 17 18 -1 0
BITMAP
1E0380
1C0380
1C0380
1C0380
3C0780
380700
380700
3F8700
3FC700
7FEF00
71EE00
70EE00
70EE00
71CE00
73DE00
FF9C00
FF1C00
FC1C00
ENDCHAR
STARTCHAR 042C
ENCODING 1068
SWIDTH 600 0
DWIDTH 15 0
BBX 14 18 0 0
BITMAP
0E00
1E00
1E00
1E00
1E00
1C00
3C00
3FE0
3FF8
3FF8
387C
383C
7838
7878
7878
7FF0
7FE0
FF80
ENDCHAR
STARTCHAR 042D
ENCODING 1069
SWIDTH 600 0
DWIDTH 15 0
BBX 13 18 1 0
BITMAP
0FC0
1FE0
1FF0
30F8
0078
0078
0078
3FF8
3FF8
3FF8
00F0
00F0
00F0
81E0
C3C0
FF80
FF00
FC00
ENDCHAR
STARTCHAR 042E
ENCODING 1070
SWIDTH 600 0
DWIDTH 15 0
BBX 16 18 -1 0
BITMAP
1C1E
1C3F
1C7F
1CE7
1DE7
39C7
39C7
3FC7
3FC7
3F87
738F
738E
738E
739E
739C
E3F8
E1F0
E0E0
ENDCHAR
STARTCHAR 042F
ENCODING 1071
SWIDTH 600 0
DWIDTH 15 0
BBX 16 18 -1 0
BITMAP
01FF
07FF
0FFF
1F0F
1E0E
1E0E
1E1E
1E1E
1FFE
0FFC
07FC
0F3C
0E3C
1E3C
3C38
7838
7878
F078
ENDCHAR
STARTCHAR 0430
ENCODING 1072
SWIDTH 600 0
DWIDTH 15 0
BBX 13 14 1 0
BITMAP
0FE0
3FF0
3FF8
2078
0FF8
3FF8
7FF8
F870
F0F0
E0F0
F1F0
FFF0
FEE0
3CE0
ENDCHAR
STARTCHAR 0431
ENCODING 1073
SWIDTH 600 0
DWIDTH 15 0
BBX 14 20 1 0
BITMAP
00F8
07F8
1FFC
1F00
3C00
7800
77E0
7FF0
7FF8
7C78
F878
F078
F078
F078
F070
F0F0
F1E0
7FE0
7FC0
1F00
ENDCHAR
STARTCHAR 0432
ENCODING 1074
SWIDTH 600 0
DWIDTH 15 0
BBX 14 14 0 0
BITMAP
1FF0
1FFC
1FFC
3C3C
3C3C
3FF8
3FF0
3FF8
7878
7838
7878
7FF8
7FF0
FFC0
ENDCHAR
STARTCHAR 0433
ENCODING 1075
SWIDTH 600 0
DWIDTH 15 0
BBX 12 14 2 0
BITMAP
3FF0
3FF0
3FF0
3800
7800
7800
7800
7000
7000
7000
F000
F000
F000
E000
ENDCHAR
STARTCHAR 0434
ENCODING 1076
SWIDTH 600 0
DWIDTH 15 0
BBX 15 17 -1 -3
BITMAP
07FE
07FE
0FFE
0F1E
0F1C
0E1C
0E3C
1E3C
1E3C
1E38
1C38
7FFE
7FFC
7FFC
E01C
E01C
E01C
ENDCHAR
STARTCHAR 0435
ENCODING 1077
SWIDTH 600 0
DWIDTH 15 0
BBX 13 14 1 0
BITMAP
07C0
1FF0
3FF0
7878
7038
FFF8
FFF8
FFF8
E000
F000
F030
7FE0
7FE0
1FC0
ENDCHAR
STARTCHAR 0436
ENCODING 1078
SWIDTH 600 0
DWIDTH 15 0
BBX 17 14 -1 0
BITMAP
1CE780
1CE700
0EEE00
0EFE00
0FFC00
0FF800
0FF800
1FF800
1FFC00
3BDC00
3B9C00
739C00
739C00
E39E00
ENDCHAR
STARTCHAR 0437
ENCODING 1079
SWIDTH 600 0
DWIDTH 15 0
BBX 12 14 1 0
BITMAP
1FC0
3FF0
3FF0
0070
00F0
0FE0
0FC0
0FE0
00E0
00F0
80E0
FFE0
FFC0
7F00
ENDCHAR
STARTCHAR 0438
ENCODING 1080
SWIDTH 600 0
DWIDTH 15 0
BBX 14 14 1 0
BITMAP
3C3C
3878
38F8
38F8
79F8
7BF8
7B70
7770
7EF0
FCF0
F8F0
F8E0
F0E0
E1E0
ENDCHAR
STARTCHAR 0439
ENCODING 1081
SWIDTH 600 0
DWIDTH 15 0
BBX 14 19 1 0
BITMAP
0C18
0630
07E0
03C0
0000
3C3C
3878
38F8
38F8
79F8
7BF8
7B70
7770
7EF0
FCF0
F8F0
F8E0
F0E0
E1E0
ENDCHAR
STARTCHAR 043A
ENCODING 1082
SWIDTH 600 0
DWIDTH 15 0
BBX 15 14 1 0
BITMAP
3C3E
3C78
3CF0
3BE0
7F80
7F00
7F80
7F80
7BC0
71C0
F1E0
F1E0
F0F0
E0F0
ENDCHAR
STARTCHAR 043B
ENCODING 1083
SWIDTH 600 0
DWIDTH 15 0
BBX 16 14 -1 0
BITMAP
07FF
07FE
07FE
071E
0F1E
0F1E
0F1C
0E1C
0E1C
1E3C
1C3C
7C3C
F838
F078
ENDCHAR
STARTCHAR 043C
ENCODING 1084
SWIDTH 600 0
DWIDTH 15 0
BBX 15 14 0 0
BITMAP
3E1E
3E3E
3E3E
3E7E
767C
76FC
76DC
76DC
779C
E7B8
E7B8
E738
E038
E038
ENDCHAR
STARTCHAR 043D
ENCODING 1085
SWIDTH 600 0
DWIDTH 15 0
BBX 13 14 1 0
BITMAP
3C38
3C78
3878
3878
7870
7FF0
7FF0
7FF0
70F0
70F0
F0E0
F0E0
F1E0
E1E0
ENDCHAR
STARTCHAR 043E
ENCODING 1086
SWIDTH 600 0
DWIDTH 15 0
BBX 13 14 1 0
BITMAP
07C0
1FF0
3FF0
7C78
7878
F078
F078
F078
F078
F0F0
F1F0
7FE0
7FC0
1F00
ENDCHAR
STARTCHAR 043F
ENCODING 1087
SWIDTH 600 0
DWIDTH 15 0
BBX 13 14 1 0
BITMAP
3FF8
3FF8
3FF8
3878
3878
7870
7870
78F0
70F0
70F0
F0E0
F0E0
F1E0
E1E0
ENDCHAR
STARTCHAR 0440
ENCODING 1088
SWIDTH 600 0
DWIDTH 15 0
BBX 14 19 0 -5
BITMAP
1CF0
1DF8
1FFC
3E3C
3C1C
3C1C
381C
383C
383C
7838
7C78
7FF0
77E0
73C0
F000
F000
F000
E000
E000
ENDCHAR
STARTCHAR 0441
ENCODING 1089
SWIDTH 600 0
DWIDTH 15 0
BBX 12 14 2 0
BITMAP
07E0
1FF0
3FF0
7C20
F000
F000
E000
E000
E000
E000
F040
FFC0
7FC0
1F80
ENDCHAR
STARTCHAR 0442
ENCODING 1090
SWIDTH 600 0
DWIDTH 15 0
BBX 11 14 3 0
BITMAP
FFE0
FFE0
FFE0
1E00
1E00
1E00
1C00
1C00
3C00
3C00
3C00
3800
3800
7800
ENDCHAR
STARTCHAR 0443
ENCODING 1091
SWIDTH 600 0
DWIDTH 15 0
BBX 17 19 -1 -5
BITMAP
1E0780
1E0F00
0E0E00
0E1E00
0E3C00
0F3C00
0F7800
077000
07F000
07E000
07E000
07C000
03C000
038000
070000
0F0000
7E0000
FE0000
F80000
ENDCHAR
STARTCHAR 0444
ENCODING 1092
SWIDTH 600 0
DWIDTH 15 0
BBX 13 24 1 -5
BITMAP
01C0
01C0
01C0
01C0
01C0
07E0
1FF0
3FF8
7BB8
73B8
E738
E738
E738
E738
E770
EE70
FFE0
7FC0
3F80
0E00
1C00
1C00
1C00
1C00
ENDCHAR
STARTCHAR 0445
ENCODING 1093
SWIDTH 600 0
DWIDTH 15 0
BBX 16 14 -1 0
BITMAP
0E0F
0F1E
073C
07F8
03F8
03F0
01E0
03E0
07E0
0FF0
1E70
1E78
3C38
F83C
ENDCHAR
STARTCHAR 0446
ENCODING 1094
SWIDTH 600 0
DWIDTH 15 0
BBX 14 17 0 -3
BITMAP
1E3C
1C3C
1C3C
3C38
3C38
3C78
3878
3878
7870
7870
7870
7FFC
7FFC
FFF8
0018
0038
0038
ENDCHAR
STARTCHAR 0447
ENCODING 1095
SWIDTH 600 0
DWIDTH 15 0
BBX 12 14 2 0
BITMAP
F0F0
F0F0
F0E0
F0E0
E1E0
F1E0
FFE0
7FC0
3FC0
01C0
03C0
03C0
0380
0380
ENDCHAR
STARTCHAR 0448
ENCODING 1096
SWIDTH 600 0
DWIDTH 15 0
BBX 15 14 0 0
BITMAP
39CE
39CE
39CE
39CE
718E
739C
739C
739C
739C
E39C
E718
FFF8
FFF8
FFF8
ENDCHAR
STARTCHAR 0449
ENCODING 1097
SWIDTH 600 0
DWIDTH 15 0
BBX 16 17 -1 -3
BITMAP
1CE7
1CE7
1CE7
38E7
39CE
39CE
39CE
39CE
31CE
738C
739C
7FFE
7FFE
FFFE
000E
000C
001C
ENDCHAR
STARTCHAR 044A
ENCODING 1098
SWIDTH 600 0
DWIDTH 15 0
BBX 13 14 1 0
BITMAP
7F00
7E00
FE00
1E00
1E00
1FE0
1FF0
1FF8
3C78
3C78
3C78
3FF0
3FE0
7F80
ENDCHAR
STARTCHAR 044B
ENCODING 1099
SWIDTH 600 0
DWIDTH 15 0
BBX 17 14 -1 0
BITMAP
1C0780
3C0780
3C0700
3C0700
380F00
3E0F00
7F8F00
7FCE00
7BCE00
71CE00
73DE00
FF9E00
FF9E00
FE1C00
ENDCHAR
STARTCHAR 044C
ENCODING 1100
SWIDTH 600 0
DWIDTH 15 0
BBX 12 14 1 0
BITMAP
1C00
3C00
3C00
3C00
3800
3F80
7FE0
7FF0
78F0
7070
70F0
FFE0
FFE0
FF80
ENDCHAR
STARTCHAR 044D
ENCODING 1101
SWIDTH 600 0
DWIDTH 15 0
BBX 12 14 1 0
BITMAP
0FC0
3FE0
3FF0
20F0
0070
1FF0
1FF0
3FF0
00F0
00E0
43E0
FFC0
FF80
7E00
ENDCHAR
STARTCHAR 044E
ENCODING 1102
SWIDTH 600 0
DWIDTH 15 0
BBX 17 14 -1 0
BITMAP
1C1C00
3C7E00
3CFF00
3DE700
39E780
3FC780
7FC780
7FC700
7B8700
738F00
73CE00
F3FE00
F1FC00
F0F000
ENDCHAR
STARTCHAR 044F
ENCODING 1103
SWIDTH 600 0
DWIDTH 15 0
BBX 15 14 -1 0
BITMAP
03FE
0FFE
0FFE
1E1E
1E1E
1E1C
0FFC
07FC
07FC
0F3C
1E38
3E38
3C78
F878
ENDCHAR
STARTCHAR 0450
ENCODING 1104
SWIDTH 600 0
DWIDTH 15 0
BBX 13 21 1 0
BITMAP
0F00
0700
0380
0180
01C0
0000
0000
07C0
1FF0
3FF0
7878
7038
FFF8
FFF8
FFF8
E000
F000
F030
7FE0
7FE0
1FC0
ENDCHAR
STARTCHAR 0451
ENCODING 1105
SWIDTH 600 0
DWIDTH 15 0
BBX 13 20 1 0
BITMAP
0738
0730
0E70
0000
0000
0000
07C0
1FF0
3FF0
7878
7038
FFF8
FFF8
FFF8
E000
F000
F030
7FE0
7FE0
1FC0
ENDCHAR
STARTCHAR 0452
ENCODING 1106
SWIDTH 600 0
DWIDTH 15 0
BBX 13 24 1 -5
BITMAP
0E00
1E00
1E00
1E00
1C00
FFF0
FFE0
FFE0
3C00
39E0
3BF0
7FF0
7C78
7878
7070
7070
F0F0
F0F0
F0E0
01E0
03C0
0F80
0F00
1C00
ENDCHAR
STARTCHAR 0453
ENCODING 1107
SWIDTH 600 0
DWIDTH 15 0
BBX 13 20 2 0
BITMAP
0078
00E0
01C0
0380
0700
0000
3FF0
3FF0
3FF0
3800
7800
7800
7800
7000
7000
7000
F000
F000
F000
E000
ENDCHAR
STARTCHAR 0454
ENCODING 1108
SWIDTH 600 0
DWIDTH 15 0
BBX 13 14 1 0
BITMAP
03E0
0FF8
1FF0
3C10
7800
7FC0
7F80
FF80
F000
F000
7820
7FE0
3FC0
1F80
ENDCHAR
STARTCHAR 0455
ENCODING 1109
SWIDTH 600 0
DWIDTH 15 0
BBX 12 14 1 0
BITMAP
07E0
1FF0
3FF0
3C10
3800
3C00
3F80
0FE0
01E0
00E0
40E0
FFE0
FFC0
3F00
ENDCHAR
STARTCHAR 0456
ENCODING 1110
SWIDTH 600 0
DWIDTH 15 0
BBX 10 20 3 0
BITMAP
0F00
0F00
0F00
0E00
0000
0000
7E00
FE00
FE00
1C00
1C00
3C00
3C00
3C00
3800
3800
7800
7FC0
3FC0
1FC0
ENDCHAR
STARTCHAR 0457
ENCODING 1111
SWIDTH 600 0
DWIDTH 15 0
BBX 10 19 3 0
BITMAP
3380
7380
7380
0000
0000
FE00
FC00
FC00
1C00
3C00
3C00
3800
3800
7800
7800
7800
7FC0
7F80
3F80
ENDCHAR
STARTCHAR 0458
ENCODING 1112
SWIDTH 600 0
DWIDTH 15 0
BBX 13 25 0 -5
BITMAP
0078
0078
0078
0070
0000
0000
07F0
0FF0
0FF0
00E0
00E0
01E0
01E0
01E0
01C0
01C0
03C0
03C0
03C0
0380
0780
0780
FF80
FF00
FC00
ENDCHAR
STARTCHAR 0459
ENCODING 1113
SWIDTH 600 0
DWIDTH 15 0
BBX 16 14 -1 0
BITMAP
07F0
07F0
0FF0
0E70
0EE0
0EF8
0EFE
1CFE
1CEF
1CC7
39CE
F9FE
F1FC
E1F0
ENDCHAR
STARTCHAR 045A
ENCODING 1114
SWIDTH 600 0
DWIDTH 15 0
BBX 16 14 -1 0
BITMAP
1C78
1C70
1870
3870
3870
3FFC
3FFE
3FFF
70EF
70E7
70EE
71FE
71FC
E1F0
ENDCHAR
STARTCHAR 045B
ENCODING 1115
SWIDTH 600 0
DWIDTH 15 0
BBX 12 19 1 0
BITMAP
1E00
1E00
1E00
1C00
1C00
FFE0
FFE0
FFE0
3800
39E0
3BF0
7FF0
7CF0
78F0
70F0
70F0
F0E0
F0E0
F1E0
ENDCHAR
STARTCHAR 045C
ENCODING 1116
SWIDTH 600 0
DWIDTH 15 0
BBX 15 20 1 0
BITMAP
007C
00F0
00E0
0180
0300
0000
3C3E
3C78
3CF0
3BE0
7F80
7F00
7F80
7F80
7BC0
71C0
F1E0
F1E0
F0F0
E0F0
ENDCHAR
STARTCHAR 045D
ENCODING 1117
SWIDTH 600 0
DWIDTH 15 0
BBX 14 20 1 0
BITMAP
0F00
0780
0380
01C0
00C0
0000
3C3C
3878
38F8
38F8
79F8
7BF8
7B70
7770
7EF0
FCF0
F8F0
F8E0
F0E0
E1E0
ENDCHAR
STARTCHAR 045E
ENCODING 1118
SWIDTH 600 0
DWIDTH 15 0
BBX 17 25 -1 -5
BITMAP
030600
018C00
01FC00
00F800
000000
000000
1E0780
1E0F00
0E0E00
0E1E00
0E3C00
0F3C00
0F7800
077000
07F000
07E000
07E000
07C000
03C000
038000
070000
0F0000
7E0000
FE0000
F80000
ENDCHAR
STARTCHAR 045F
ENCODING 1119
SWIDTH 600 0
DWIDTH 15 0
BBX 13 17 1 -3
BITMAP
3C38
3C38
3878
3878
7878
7870
7870
78F0
70F0
70F0
F0E0
FFE0
FFE0
FFE0
0C00
0C00
1C00
ENDCHAR
STARTCHAR 0462
ENCODING 1122
SWIDTH 600 0
DWIDTH 15 0
BBX 13 18 1 0
BITMAP
0F00
0E00
7FE0
FFE0
FFE0
1E00
1C00
1FC0
3FF0
3FF8
3C78
3878
3878
7870
78F0
7FE0
7FC0
7F00
ENDCHAR
STARTCHAR 0463
ENCODING 1123
SWIDTH 600 0
DWIDTH 15 0
BBX 13 19 1 0
BITMAP
0700
0700
0F00
0F00
0F00
7FF0
7FF0
FFF0
1E00
1C00
1FC0
1FF0
3FF8
3C78
3C78
38F0
3FF0
7FE0
7F80
ENDCHAR
STARTCHAR 0472
ENCODING 1138
SWIDTH 600 0
DWIDTH 15 0
BBX 13 18 1 0
BITMAP
03E0
0FF0
1FF8
3C78
3878
7838
7038
FFF8
FFF8
FFF8
F078
E0F0
E0F0
F0E0
F1E0
FFC0
7F80
3E00
ENDCHAR
STARTCHAR 0473
ENCODING 1139
SWIDTH 600 0
DWIDTH 15 0
BBX 13 14 1 0
BITMAP
07C0
1FF0
3FF0
3C78
7878
7078
FFF8
FFF8
FFF0
F070
F0E0
7FE0
7FC0
1F00
ENDCHAR
STARTCHAR 0490
ENCODING 1168
SWIDTH 600 0
DWIDTH 15 0
BBX 16 22 1 0
BITMAP
000F
000E
000E
000E
1FFE
1FFC
1FFC
1C00
1C00
3C00
3C00
3C00
3800
3800
7800
7800
7800
7000
7000
F000
F000
F000
ENDCHAR
STARTCHAR 0491
ENCODING 1169
SWIDTH 600 0
DWIDTH 15 0
BBX 13 18 2 0
BITMAP
0018
0038
0038
0030
3FF0
3FF0
3FF0
3C00
3800
3800
7800
7800
7800
7000
7000
F000
F000
F000
ENDCHAR
STARTCHAR 0492
ENCODING 1170
SWIDTH 600 0
DWIDTH 15 0
BBX 15 18 1 0
BITMAP
1FFE
1FFE
1FFC
1C00
1C00
3C00
3C00
FFE0
FFE0
FFE0
3800
7800
7800
7800
7000
7000
F000
F000
ENDCHAR
STARTCHAR 0493
ENCODING 1171
SWIDTH 600 0
DWIDTH 15 0
BBX 13 14 2 0
BITMAP
1FF8
1FF0
3FF0
3C00
3C00
3800
FFC0
FF80
FF80
7800
7000
7000
F000
F000
ENDCHAR
STARTCHAR 0494
ENCODING 1172
SWIDTH 600 0
DWIDTH 15 0
BBX 15 23 0 -5
BITMAP
1FFE
1FFE
1FFC
1C00
1C00
3C00
3FF0
3FF8
3FF8
3878
7838
7878
7878
7078
7078
F070
F0F0
F0F0
00F0
01E0
0FE0
0FC0
1F80
ENDCHAR
STARTCHAR 0495
ENCODING 1173
SWIDTH 600 0
DWIDTH 15 0
BBX 13 19 1 -5
BITMAP
1FF8
1FF0
3FF0
3C00
3C00
3800
3FC0
7FE0
7FE0
79E0
78E0
70E0
71E0
F1E0
01C0
03C0
1FC0
1F80
1F00
ENDCHAR
STARTCHAR 0496
ENCODING 1174
SWIDTH 600 0
DWIDTH 15 0
BBX 19 22 -2 -4
BITMAP
0E39E0
0E31C0
077380
077780
077700
077E00
07FE00
03FC00
07FC00
07FC00
0FFC00
0FFC00
1DEE00
1DCE00
39CE00
39CF00
71CE00
F38E00
000E00
000E00
000E00
001C00
ENDCHAR
STARTCHAR 0497
ENCODING 1175
SWIDTH 600 0
DWIDTH 15 0
BBX 17 17 -1 -3
BITMAP
1CE780
1EE700
1EEE00
0EFE00
0FFC00
07F800
0FF800
1FF800
1FFC00
3BDC00
3B9C00
739E00
739E00
E39E00
000C00
000C00
001C00
ENDCHAR
STARTCHAR 0498
ENCODING 1176
SWIDTH 600 0
DWIDTH 15 0
BBX 14 23 0 -5
BITMAP
0FE0
1FF8
1FF8
103C
003C
0038
0078
07F0
07C0
0FF0
00F0
0078
0078
0070
C0F0
FFF0
FFE0
7F80
0600
0600
0600
7E00
7C00
ENDCHAR
STARTCHAR 0499
ENCODING 1177
SWIDTH 600 0
DWIDTH 15 0
BBX 12 19 1 -5
BITMAP
1FC0
3FF0
3FF0
20F0
0070
00F0
0FE0
0FC0
0FE0
00F0
80F0
FFE0
FFC0
FF80
0800
0C00
0C00
FC00
F800
ENDCHAR
STARTCHAR 049A
ENCODING 1178
SWIDTH 600 0
DWIDTH 15 0
BBX 17 23 0 -5
BITMAP
1E0F80
1E1E00
1C3C00
3C7800
3CF000
3DE000
3FC000
3F8000
7FC000
7FC000
7DC000
79E000
71E000
70F000
F0F000
F07C00
F07C00
E07800
003800
007800
007800
007800
007000
ENDCHAR
STARTCHAR 049B
ENCODING 1179
SWIDTH 600 0
DWIDTH 15 0
BBX 14 18 1 -4
BITMAP
3C3C
3C78
39F0
3BE0
7F80
7F00
7F80
7F80
7B80
F3C0
F1C0
F1E0
E1F8
E0F0
00F0
00F0
00F0
00E0
ENDCHAR
STARTCHAR 04A2
ENCODING 1186
SWIDTH 600 0
DWIDTH 15 0
BBX 16 23 -1 -5
BITMAP
0F0F
0E0E
0E0E
1E1E
1E1E
1E1E
1C1C
1FFC
3FFC
3FFC
3C3C
3838
3838
7878
7878
787F
707E
F07E
001E
001E
001E
001C
001C
ENDCHAR
STARTCHAR 04A3
ENCODING 1187
SWIDTH 600 0
DWIDTH 15 0
BBX 15 18 0 -4
BITMAP
1C3C
1C3C
3C38
3C38
3C78
3FF8
3FF8
7FF8
7870
7870
70F0
70F0
F0FE
F0FE
001E
001C
001C
003C
ENDCHAR
STARTCHAR 04A4
ENCODING 1188
SWIDTH 600 0
DWIDTH 15 0
BBX 17 18 1 0
BITMAP
1C3F80
1C3F80
1C3F80
1C7000
387000
387000
387000
3FF000
3FE000
7FE000
70E000
70E000
70E000
71C000
E1C000
E1C000
E1C000
E1C000
ENDCHAR
STARTCHAR 04A5
ENCODING 1189
SWIDTH 600 0
DWIDTH 15 0
BBX 17 14 0 0
BITMAP
1C3F80
387F00
387F00
387000
387000
3FF000
3FE000
7FE000
70E000
70E000
70E000
71C000
E1C000
E1C000
ENDCHAR
STARTCHAR 04AA
ENCODING 1194
SWIDTH 600 0
DWIDTH 15 0
BBX 14 23 1 -5
BITMAP
01FC
07F8
0FF8
1E18
3C08
3C00
7800
7800
7000
F000
F000
F000
F000
F000
7820
7FE0
7FC0
3FC0
0600
0300
0300
3F00
3E00
ENDCHAR
STARTCHAR 04AB
ENCODING 1195
SWIDTH 600 0
DWIDTH 15 0
BBX 12 19 2 -5
BITMAP
07E0
1FF0
3FF0
7C20
F000
F000
E000
E000
E000
E000
F040
FFC0
7FC0
3F80
0C00
0C00
0C00
7C00
F800
ENDCHAR
STARTCHAR 04AC
ENCODING 1196
SWIDTH 600 0
DWIDTH 15 0
BBX 14 23 2 -5
BITMAP
7FFC
7FFC
FFF8
0780
0700
0700
0F00
0F00
0F00
0E00
0E00
1E00
1E00
1E00
1C00
1FC0
3FC0
3F80
0380
0780
0780
0780
0700
ENDCHAR
STARTCHAR 04AD
ENCODING 1197
SWIDTH 600 0
DWIDTH 15 0
BBX 12 18 2 -4
BITMAP
7FF0
7FF0
FFF0
0F00
0E00
0E00
1E00
1E00
1E00
1E00
1C00
1C00
3FC0
3F80
0780
0780
0780
0700
ENDCHAR
STARTCHAR 04AE
ENCODING 1198
SWIDTH 600 0
DWIDTH 15 0
BBX 15 18 2 0
BITMAP
F01E
703C
7078
7870
78F0
39E0
3DC0
3FC0
1F80
1F00
1E00
1E00
1E00
1E00
1C00
1C00
3C00
3C00
ENDCHAR
STARTCHAR 04AF
ENCODING 1199
SWIDTH 600 0
DWIDTH 15 0
BBX 14 19 2 -5
BITMAP
F03C
F078
F070
70F0
71E0
79E0
7BC0
7B80
3F80
3F00
3F00
3E00
3E00
3C00
3C00
3C00
3800
3800
7800
ENDCHAR
STARTCHAR 04B0
ENCODING 1200
SWIDTH 600 0
DWIDTH 15 0
BBX 15 18 2 0
BITMAP
F01E
703C
7878
7870
78F0
39E0
3DC0
3FC0
1F80
1F00
1F00
1E00
FFC0
FFC0
FF80
1C00
3C00
3C00
ENDCHAR
STARTCHAR 04B1
ENCODING 1201
SWIDTH 600 0
DWIDTH 15 0
BBX 15 19 1 -5
BITMAP
781E
783C
7838
3878
38F0
3CF0
3DE0
3DC0
1FC0
1F80
1F80
1F00
1F00
1E00
7F80
7F80
FF80
1C00
3C00
ENDCHAR
STARTCHAR 04B2
ENCODING 1202
SWIDTH 600 0
DWIDTH 15 0
BBX 17 23 -1 -5
BITMAP
1E0780
0E0F00
0F0E00
071E00
07BC00
07F800
03F000
03F000
03E000
03E000
07E000
07E000
0FF000
1EF000
3C7000
787E00
703C00
F03C00
003C00
003C00
003800
003800
007800
ENDCHAR
STARTCHAR 04B3
ENCODING 1203
SWIDTH 600 0
DWIDTH 15 0
BBX 16 18 -1 -4
BITMAP
1F0F
0F1E
073C
07B8
07F8
03F0
03E0
03E0
07E0
0FF0
0EF0
1E70
3C7C
F83C
003C
003C
003C
0038
ENDCHAR
STARTCHAR 04BA
ENCODING 1210
SWIDTH 600 0
DWIDTH 15 0
BBX 14 19 0 0
BITMAP
1E00
1E00
1C00
1C00
3C00
3C00
3DF0
3BFC
3FFC
7E7C
783C
783C
7038
7038
F078
F078
F078
F070
E070
ENDCHAR
STARTCHAR 04BB
ENCODING 1211
SWIDTH 600 0
DWIDTH 15 0
BBX 13 19 1 0
BITMAP
1E00
1E00
1E00
1C00
1C00
3DE0
3FF0
3FF8
3C78
3878
7870
7870
78F0
70F0
70F0
F0E0
F0E0
F1E0
E1E0
ENDCHAR
STARTCHAR 04C0
ENCODING 1216
SWIDTH 600 0
DWIDTH 15 0
BBX 15 18 0 0
BITMAP
0FFE
0FFC
1FFC
01C0
01C0
03C0
03C0
03C0
0380
0380
0780
0780
0780
0700
0700
7FF0
7FF0
FFE0
ENDCHAR
STARTCHAR 04C1
ENCODING 1217
SWIDTH 600 0
DWIDTH 15 0
BBX 19 23 -2 0
BITMAP
00C300
00C700
00FE00
007800
000000
0E39E0
0E31C0
077380
077780
077700
077E00
07FE00
03FC00
07FC00
07FC00
0FFC00
0FFC00
1DEE00
1DCE00
39CE00
39CE00
71CE00
F38E00
ENDCHAR
STARTCHAR 04C2
ENCODING 1218
SWIDTH 600 0
DWIDTH 15 0
BBX 17 19 -1 0
BITMAP
010600
018C00
01FC00
00F000
000000
1CE780
1CE700
0EEE00
0EFE00
0FFC00
0FF800
0FF800
1FF800
1FFC00
3BDC00
3B9C00
739C00
739C00
E39E00
ENDCHAR
STARTCHAR 04C3
ENCODING 1219
SWIDTH 600 0
DWIDTH 15 0
BBX 17 23 0 -5
BITMAP
1E0F80
1E1E00
1C3C00
1C7800
3CF000
3DE000
3FC000
3FF000
3FF800
7FF800
7C7800
787800
787800
707800
F07000
F07000
F0F000
E0F000
00F000
01E000
0FE000
0FC000
1F8000
ENDCHAR
STARTCHAR 04C4
ENCODING 1220
SWIDTH 600 0
DWIDTH 15 0
BBX 15 19 1 -5
BITMAP
3C3E
3C78
3CF0
39E0
3B80
7F00
7FC0
7FE0
7FE0
71E0
F1E0
F1E0
F1E0
F1C0
03C0
03C0
1F80
3F80
3E00
ENDCHAR
STARTCHAR 04C7
ENCODING 1223
SWIDTH 600 0
DWIDTH 15 0
BBX 15 23 0 -5
BITMAP
1E1E
1E1E
1E1E
1C1C
1C1C
3C3C
3C3C
3FFC
3FF8
3FF8
7878
7878
7878
7070
7070
F0F0
F0F0
F0F0
00E0
01E0
0FE0
1FC0
1F00
ENDCHAR
STARTCHAR 04C8
ENCODING 1224
SWIDTH 600 0
DWIDTH 15 0
BBX 13 19 1 -5
BITMAP
3C38
3C38
3C78
3878
3878
7FF0
7FF0
7FF0
70F0
70F0
F0E0
F0E0
F1E0
E1E0
01E0
03C0
1FC0
1F80
1F00
ENDCHAR
STARTCHAR 04CB
ENCODING 1227
SWIDTH 600 0
DWIDTH 15 0
BBX 14 24 1 -5
BITMAP
381C
381C
783C
783C
783C
7038
7038
F078
F9F8
FFF8
7FF0
3E70
00F0
00F0
00F0
00E0
0FE0
0FE0
0FE0
0E00
1E00
1E00
1E00
1C00
ENDCHAR
STARTCHAR 04CC
ENCODING 1228
SWIDTH 600 0
DWIDTH 15 0
BBX 12 18 2 -4
BITMAP
7870
70F0
F0F0
F0F0
F0E0
F0E0
FFE0
7FE0
1FE0
01C0
01C0
1FC0
1FC0
3FC0
3C00
3C00
3800
3800
ENDCHAR
STARTCHAR 04CF
ENCODING 1231
SWIDTH 600 0
DWIDTH 15 0
BBX 7 19 4 0
BITMAP
0E
0E
1E
1E
1E
1C
1C
3C
3C
3C
38
38
78
78
78
70
70
F0
F0
ENDCHAR
STARTCHAR 04D0
ENCODING 1232
SWIDTH 600 0
DWIDTH 15 0
BBX 15 23 -1 0
BITMAP
0186
018E
01FC
0070
0000
00F8
01F8
01F8
03F8
03B8
03B8
0738
0738
0F38
0E38
1E38
1FF8
3FF8
3FFC
783C
783C
F03C
F03C
ENDCHAR
STARTCHAR 04D1
ENCODING 1233
SWIDTH 600 0
DWIDTH 15 0
BBX 13 20 1 0
BITMAP
0C18
0630
07E0
03C0
0000
0000
0FE0
3FF0
3FF8
2078
0FF8
3FF8
7FF8
F870
F0F0
E0F0
F1F0
FFF0
FEE0
3CE0
ENDCHAR
STARTCHAR 04D2
ENCODING 1234
SWIDTH 600 0
DWIDTH 15 0
BBX 15 23 -1 0
BITMAP
01CE
01CE
01DC
0000
0000
00F8
01F8
01F8
03F8
03B8
03B8
0738
0738
0F38
0E38
1E38
1FF8
3FF8
3FFC
783C
783C
F03C
F03C
ENDCHAR
STARTCHAR 04D3
ENCODING 1235
SWIDTH 600 0
DWIDTH 15 0
BBX 13 20 1 0
BITMAP
0738
0730
0E70
0000
0000
0000
0FE0
3FF0
3FF8
2078
0FF8
3FF8
7FF8
F870
F0F0
E0F0
F1F0
FFF0
FEE0
3CE0
ENDCHAR
STARTCHAR 04D4
ENCODING 1236
SWIDTH 600 0
DWIDTH 15 0
BBX 18 18 -2 0
BITMAP
00FFC0
00FFC0
01FFC0
01DC00
039C00
03BC00
07B800
073F80
073F00
0E3F00
0E3800
1FF000
1FF000
3FF000
387000
787F00
70FE00
F0FE00
ENDCHAR
STARTCHAR 04D5
ENCODING 1237
SWIDTH 600 0
DWIDTH 15 0
BBX 15 14 0 0
BITMAP
1E3C
3F7E
3FFE
23CE
01CE
1FFE
7FFE
FFFC
E380
C780
C784
FFF8
FDF8
78F0
ENDCHAR
STARTCHAR 04D6
ENCODING 1238
SWIDTH 600 0
DWIDTH 15 0
BBX 15 23 0 0
BITMAP
030C
030C
01F8
00F0
0000
0FFE
0FFE
1FFE
1E00
1E00
1C00
1C00
3FF8
3FF8
3FF8
3800
3800
7800
7800
7800
7FF0
7FF0
FFF0
ENDCHAR
STARTCHAR 04D7
ENCODING 1239
SWIDTH 600 0
DWIDTH 15 0
BBX 13 20 1 0
BITMAP
0C18
0E30
07E0
03C0
0000
0000
07C0
1FF0
3FF0
7878
7038
FFF8
FFF8
FFF8
E000
F000
F030
7FE0
7FE0
1FC0
ENDCHAR
STARTCHAR 04D8
ENCODING 1240
SWIDTH 600 0
DWIDTH 15 0
BBX 13 18 1 0
BITMAP
07E0
0FF0
0FF8
0878
0038
0038
0078
FFF8
FFF8
FFF8
F078
E0F0
E0F0
F1E0
F1E0
FFC0
7F80
3E00
ENDCHAR
STARTCHAR 04D9
ENCODING 1241
SWIDTH 600 0
DWIDTH 15 0
BBX 13 14 1 0
BITMAP
0FC0
3FF0
3FF8
6078
0038
0038
FFF8
FFF8
FFF8
E070
F0F0
FFE0
7FC0
3F00
ENDCHAR
STARTCHAR 04DA
ENCODING 1242
SWIDTH 600 0
DWIDTH 15 0
BBX 13 23 1 0
BITMAP
0738
0738
0770
0000
0000
07E0
0FF0
0FF8
0878
0038
0038
0078
FFF8
FFF8
FFF8
F078
E0F0
E0F0
F1E0
F1E0
FFC0
7F80
3E00
ENDCHAR
STARTCHAR 04DB
ENCODING 1243
SWIDTH 600 0
DWIDTH 15 0
BBX 13 20 1 0
BITMAP
0670
0E70
0E70
0000
0000
0000
0FC0
3FF0
3FF8
6078
0038
0038
FFF8
FFF8
FFF8
E070
F0F0
FFE0
7FC0
3F00
ENDCHAR
STARTCHAR 04DC
ENCODING 1244
SWIDTH 600 0
DWIDTH 15 0
BBX 19 23 -2 0
BITMAP
00E700
00E700
00E600
000000
000000
0E39E0
0E31C0
077380
077780
077700
077E00
07FE00
03FC00
07FC00
07FC00
0FFC00
0FFC00
1DEE00
1DCE00
39CE00
39CE00
71CE00
F38E00
ENDCHAR
STARTCHAR 04DD
ENCODING 1245
SWIDTH 600 0
DWIDTH 15 0
BBX 17 19 -1 0
BITMAP
01DC00
039C00
039C00
000000
000000
1CE780
1CE700
0EEE00
0EFE00
0FFC00
0FF800
0FF800
1FF800
1FFC00
3BDC00
3B9C00
739C00
739C00
E39E00
ENDCHAR
STARTCHAR 04DE
ENCODING 1246
SWIDTH 600 0
DWIDTH 15 0
BBX 14 23 0 0
BITMAP
0398
0738
0738
0000
0000
07E0
0FF8
1FFC
103C
001C
0038
07F0
07C0
07F0
0070
0078
0078
0078
0078
C0F0
FFF0
FFE0
7F80
ENDCHAR
STARTCHAR 04DF
ENCODING 1247
SWIDTH 600 0
DWIDTH 15 0
BBX 12 20 1 0
BITMAP
0E70
0E70
0E70
0000
0000
0000
1FC0
3FF0
3FF0
0070
00F0
0FE0
0FC0
0FE0
00E0
00F0
80E0
FFE0
FFC0
FF00
ENDCHAR
STARTCHAR 04E0
ENCODING 1248
SWIDTH 600 0
DWIDTH 15 0
BBX 17 18 -1 0
BITMAP
0FFF80
0FFF00
0FFF00
003E00
007C00
00F800
03F000
07E000
07FC00
07FE00
003E00
001E00
001E00
F01E00
F83E00
7FFC00
7FF800
1FE000
ENDCHAR
STARTCHAR 04E1
ENCODING 1249
SWIDTH 600 0
DWIDTH 15 0
BBX 15 19 -1 -5
BITMAP
0FFE
0FFE
0FFE
003C
0078
00E0
01C0
0380
07E0
0FF8
0FF8
007C
007C
0078
0078
40F8
7FF0
FFE0
7F80
ENDCHAR
STARTCHAR 04E2
ENCODING 1250
SWIDTH 600 0
DWIDTH 15 0
BBX 15 23 0 0
BITMAP
03FC
03FC
03FC
0000
0000
1C1E
1C1E
1C3E
1C7E
3C7C
38FC
38DC
39DC
3BBC
7BB8
7738
7638
7E38
7C78
FC78
F870
F070
F070
ENDCHAR
STARTCHAR 04E3
ENCODING 1251
SWIDTH 600 0
DWIDTH 15 0
BBX 14 18 1 0
BITMAP
07F8
07F0
0FF0
0000
3C3C
3878
38F8
38F8
79F8
7BF8
7B70
7770
7EF0
FCF0
F8F0
F8E0
F0E0
E1E0
ENDCHAR
STARTCHAR 04E4
ENCODING 1252
SWIDTH 600 0
DWIDTH 15 0
BBX 15 23 0 0
BITMAP
039C
039C
0398
0000
0000
1C1E
1C1E
1C3E
1C7E
3C7C
38FC
38DC
39DC
3BBC
7BB8
7738
7638
7E38
7C78
FC78
F870
F070
F070
ENDCHAR
STARTCHAR 04E5
ENCODING 1253
SWIDTH 600 0
DWIDTH 15 0
BBX 14 19 1 0
BITMAP
0738
0670
0E70
0000
0000
3C3C
3878
38F8
38F8
79F8
7BF8
7B70
7770
7EF0
FCF0
F8F0
F8E0
F0E0
E1E0
ENDCHAR
STARTCHAR 04E6
ENCODING 1254
SWIDTH 600 0
DWIDTH 15 0
BBX 13 23 1 0
BITMAP
0738
0670
0E70
0000
0000
07C0
0FF0
1FF8
3C78
7878
7838
7038
F078
F078
F078
F078
F070
E0F0
F0F0
F1E0
FFC0
7FC0
1F00
ENDCHAR
STARTCHAR 04E7
ENCODING 1255
SWIDTH 600 0
DWIDTH 15 0
BBX 13 20 1 0
BITMAP
0670
0E70
0E70
0000
0000
0000
07C0
1FF0
3FF0
7C78
7878
F078
F078
F078
F078
F0F0
F1F0
7FE0
7FC0
1F00
ENDCHAR
STARTCHAR 04E8
ENCODING 1256
SWIDTH 600 0
DWIDTH 15 0
BBX 13 18 1 0
BITMAP
03E0
0FF0
1FF8
3C78
3878
7838
7038
FFF8
FFF8
FFF8
F078
E0F0
E0F0
F0E0
F1E0
FFC0
7F80
3E00
ENDCHAR
STARTCHAR 04E9
ENCODING 1257
SWIDTH 600 0
DWIDTH 15 0
BBX 13 14 1 0
BITMAP
07C0
1FF0
3FF0
3C78
7878
7078
FFF8
FFF8
FFF0
F070
F0E0
7FE0
7FC0
1F00
ENDCHAR
STARTCHAR 04EA
ENCODING 1258
SWIDTH 600 0
DWIDTH 15 0
BBX 13 23 1 0
BITMAP
0738
0738
0770
0000
0000
03E0
0FF0
1FF8
3C78
3878
7838
7038
FFF8
FFF8
FFF8
F078
E0F0
E0F0
F0E0
F1E0
FFC0
7F80
3E00
ENDCHAR
STARTCHAR 04EB
ENCODING 1259
SWIDTH 600 0
DWIDTH 15 0
BBX 13 20 1 0
BITMAP
0670
0E70
0E70
0000
0000
0000
07C0
1FF0
3FF0
3C78
7878
7078
FFF8
FFF8
FFF0
F070
F0E0
7FE0
7FC0
1F00
ENDCHAR
STARTCHAR 04EC
ENCODING 1260
SWIDTH 600 0
DWIDTH 15 0
BBX 13 23 1 0
BITMAP
0E70
0E70
0E70
0000
0000
0FC0
1FE0
1FF0
30F8
0078
0078
0078
3FF8
3FF8
3FF0
00F0
00F0
01E0
81E0
C3C0
FF80
FF00
FC00
ENDCHAR
STARTCHAR 04ED
ENCODING 1261
SWIDTH 600 0
DWIDTH 15 0
BBX 12 20 1 0
BITMAP
0E70
0E70
0E70
0000
0000
0000
0FC0
3FE0
3FF0
20F0
0070
1FF0
1FF0
3FF0
00F0
01E0
43E0
FFC0
FF80
7E00
ENDCHAR
STARTCHAR 04EE
ENCODING 1262
SWIDTH 600 0
DWIDTH 15 0
BBX 16 23 1 0
BITMAP
07F8
07F8
07F8
0000
0000
780F
381E
3C3C
3C3C
1C78
1E70
1EF0
0FE0
0FE0
0FC0
0780
0780
0F00
0E00
1E00
FC00
F800
F000
ENDCHAR
STARTCHAR 04EF
ENCODING 1263
SWIDTH 600 0
DWIDTH 15 0
BBX 17 23 -1 -5
BITMAP
01FC00
03FC00
03FC00
000000
1E0780
1E0F00
0E0E00
0E1E00
0E3C00
0F3C00
0F7800
077000
07F000
07E000
07E000
07C000
03C000
038000
070000
0F0000
7E0000
FE0000
F80000
ENDCHAR
STARTCHAR 04F0
ENCODING 1264
SWIDTH 600 0
DWIDTH 15 0
BBX 16 23 1 0
BITMAP
0738
0738
0738
0000
0000
780F
381E
3C3C
3C3C
1C78
1E70
1EF0
0FE0
0FE0
0FC0
0780
0780
0F00
0E00
1E00
FC00
F800
F000
ENDCHAR
STARTCHAR 04F1
ENCODING 1265
SWIDTH 600 0
DWIDTH 15 0
BBX 17 24 -1 -5
BITMAP
01CC00
019C00
039C00
000000
000000
1E0780
1E0F00
0E0E00
0E1E00
0E3C00
0F3C00
0F7800
077000
07F000
07E000
07E000
07C000
03C000
038000
070000
0F0000
7E0000
FE0000
F80000
ENDCHAR
STARTCHAR 04F2
ENCODING 1266
SWIDTH 600 0
DWIDTH 15 0
BBX 16 22 1 0
BITMAP
01EF
039C
0F70
0000
780F
381E
3C3C
3C3C
1C78
1E70
1EF0
0FE0
0FE0
0FC0
0780
0780
0F00
0E00
1E00
FC00
F800
F000
ENDCHAR
STARTCHAR 04F3
ENCODING 1267
SWIDTH 600 0
DWIDTH 15 0
BBX 17 25 -1 -5
BITMAP
007780
00E700
01CE00
018C00
031800
000000
1E0780
1E0F00
0E0E00
0E1E00
0E3C00
0F3C00
0F7800
077000
07F000
07E000
07E000
07C000
03C000
038000
070000
0F0000
7E0000
FE0000
F80000
ENDCHAR
STARTCHAR 04F4
ENCODING 1268
SWIDTH 600 0
DWIDTH 15 0
BBX 14 23 2 0
BITMAP
0E70
0E70
0E70
0004
7838
7038
F078
F078
F078
F078
E0F0
F0F0
FFF0
FFF0
7CF0
00E0
00E0
01E0
01E0
01E0
01C0
01C0
03C0
ENDCHAR
STARTCHAR 04F5
ENCODING 1269
SWIDTH 600 0
DWIDTH 15 0
BBX 12 19 2 0
BITMAP
1CE0
1CE0
1CE0
0000
0000
70F0
F0F0
F0E0
F0E0
F0E0
F1E0
FFE0
7FE0
3FC0
01C0
03C0
03C0
03C0
0380
ENDCHAR
STARTCHAR 04F6
ENCODING 1270
SWIDTH 600 0
DWIDTH 15 0
BBX 15 23 1 -5
BITMAP
1FFE
1FFC
1FFC
1C00
3C00
3C00
3C00
3800
3800
7800
7800
7800
7000
7000
F000
FF00
FE00
FE00
1E00
1E00
1E00
1C00
3C00
ENDCHAR
STARTCHAR 04F7
ENCODING 1271
SWIDTH 600 0
DWIDTH 15 0
BBX 12 18 2 -4
BITMAP
3FF0
3FF0
3FF0
3800
3800
7800
7800
7800
7000
7000
F000
F000
FE00
FE00
1E00
1E00
1C00
1C00
ENDCHAR
STARTCHAR 04F8
ENCODING 1272
SWIDTH 600 0
DWIDTH 15 0
BBX 17 23 -1 0
BITMAP
01CE00
01CE00
01CC00
000000
000000
1C0380
1C0380
1C0380
1C0380
3C0780
380700
380700
3F0700
3FC700
7FEF00
71EE00
70EE00
71EE00
71CE00
F3DE00
FF9C00
FF1C00
FC1C00
ENDCHAR
STARTCHAR 04F9
ENCODING 1273
SWIDTH 600 0
DWIDTH 15 0
BBX 17 19 -1 0
BITMAP
01CE00
019C00
039C00
000000
000000
1C0780
3C0780
3C0780
3C0700
380700
3E0F00
7F8F00
7FCF00
7BCE00
71CE00
73DE00
7FDE00
FF9E00
FE1C00
ENDCHAR
STARTCHAR 0510
ENCODING 1296
SWIDTH 600 0
DWIDTH 15 0
BBX 14 18 1 0
BITMAP
03FC
0FF8
1FF8
3C08
3800
3C00
1FC0
0F80
3F80
7800
F000
E000
E000
E000
F020
FFE0
7FE0
3F80
ENDCHAR
STARTCHAR 0511
ENCODING 1297
SWIDTH 600 0
DWIDTH 15 0
BBX 13 14 1 0
BITMAP
07F8
1FF0
3FF0
3C00
3800
3F80
0F80
3F80
7000
F000
F020
FFE0
7FE0
3FC0
ENDCHAR
STARTCHAR 051A
ENCODING 1306
SWIDTH 600 0
DWIDTH 15 0
BBX 13 22 1 -4
BITMAP
07C0
0FF0
1FF8
3C78
7878
7838
7038
F078
F078
F078
F078
E070
E0F0
F0F0
F1E0
FFE0
7FC0
1F80
0380
03C0
01E0
01F0
ENDCHAR
STARTCHAR 051B
ENCODING 1307
SWIDTH 600 0
DWIDTH 15 0
BBX 13 19 1 -5
BITMAP
0F38
1FB8
3FB8
78F8
7078
F070
F070
E070
E0F0
F0F0
F1E0
FFE0
7FE0
3DE0
01E0
01C0
01C0
01C0
03C0
ENDCHAR
STARTCHAR 051C
ENCODING 1308
SWIDTH 600 0
DWIDTH 15 0
BBX 16 18 1 0
BITMAP
7007
700F
700E
700E
739E
739C
679C
E79C
EFB8
EDB8
EDB8
FDB0
F9F0
F9F0
F1E0
F1E0
F1E0
E1E0
ENDCHAR
STARTCHAR 051D
ENCODING 1309
SWIDTH 600 0
DWIDTH 15 0
BBX 15 14 1 0
BITMAP
E00E
E00E
E01C
E01C
E71C
E738
EF38
EF30
EF70
F970
F9E0
F9E0
F1E0
F1C0
ENDCHAR
STARTCHAR 0531
ENCODING 1329
SWIDTH 600 0
DWIDTH 15 0
BBX 15 18 0 0
BITMAP
1E0E
1C1E
3C1E
3C1E
3C1E
381C
381C
783C
783C
783C
7038
7038
F1F8
F3F8
FBF0
7FF8
7FF0
1FE0
ENDCHAR
STARTCHAR 0532
ENCODING 1330
SWIDTH 600 0
DWIDTH 15 0
BBX 15 18 -1 0
BITMAP
01F8
07FE
0FFE
0F1E
1E0E
1E0E
1C0E
3C1E
3C00
3C00
3FFE
3FFC
7FFC
7800
7800
7000
7000
F000
ENDCHAR
STARTCHAR 0533
ENCODING 1331
SWIDTH 600 0
DWIDTH 15 0
BBX 13 18 1 0
BITMAP
0FC0
1FF0
3FF0
78F8
F078
F078
F070
E070
E0F0
F0F0
FFF8
7FF8
3FF8
01E0
01E0
01E0
01C0
03C0
ENDCHAR
STARTCHAR 0534
ENCODING 1332
SWIDTH 600 0
DWIDTH 15 0
BBX 13 18 1 0
BITMAP
0FC0
3FF0
3FF0
78F8
F078
F078
E070
E0F0
00F0
00F0
00F8
00F8
00F8
01E0
01E0
01E0
01C0
03C0
ENDCHAR
STARTCHAR 0535
ENCODING 1333
SWIDTH 600 0
DWIDTH 15 0
BBX 15 18 0 0
BITMAP
1E00
1C00
3C00
3C00
3FFE
3FFC
3FFC
7800
7800
7800
7038
7078
7078
F070
79F0
7FE0
7FC0
1F80
ENDCHAR
STARTCHAR 0536
ENCODING 1334
SWIDTH 600 0
DWIDTH 15 0
BBX 15 18 0 0
BITMAP
03F0
0FF8
1FFC
1E3C
3C1E
381E
781E
001C
003C
003C
0038
0078
00F0
01E0
F780
FFF0
FFF0
FFF0
ENDCHAR
STARTCHAR 0537
ENCODING 1335
SWIDTH 600 0
DWIDTH 15 0
BBX 15 18 0 0
BITMAP
1E00
1E00
1E00
1C00
1FFE
3FFE
3FFC
3C00
3800
3800
7800
7800
7800
7000
7000
FFE0
FFE0
FFE0
ENDCHAR
STARTCHAR 0538
ENCODING 1336
SWIDTH 600 0
DWIDTH 15 0
BBX 15 18 -1 0
BITMAP
01F8
07FC
0FFE
0F1E
1E0E
1E0E
1C0E
3C1E
3C00
3C00
3C00
3800
7800
7800
7800
7FFC
7FF8
FFF8
ENDCHAR
STARTCHAR 0539
ENCODING 1337
SWIDTH 600 0
DWIDTH 15 0
BBX 16 18 -1 0
BITMAP
01F8
07FE
0FFE
1E0E
1C0E
1C0E
380E
387F
39FF
3BFF
7B9C
771C
771C
771C
7738
F7F8
E7F0
E3E0
ENDCHAR
STARTCHAR 053A
ENCODING 1338
SWIDTH 600 0
DWIDTH 15 0
BBX 15 18 0 0
BITMAP
001E
001C
001C
003C
003C
0FFE
1FFE
3FFE
7878
F078
F078
F070
E070
E0F0
F1E0
FFE0
7FC0
3F00
ENDCHAR
STARTCHAR 053B
ENCODING 1339
SWIDTH 600 0
DWIDTH 15 0
BBX 14 18 0 0
BITMAP
1E00
1E00
1E00
1C00
1FF0
3FF8
3FFC
3C3C
3C3C
383C
783C
783C
7800
7000
7000
F000
F000
F000
ENDCHAR
STARTCHAR 053C
ENCODING 1340
SWIDTH 600 0
DWIDTH 15 0
BBX 11 18 1 0
BITMAP
1E00
1C00
1C00
3C00
3C00
3C00
3800
3800
7800
7800
7800
7000
7000
F000
F000
FFE0
FFE0
FFE0
ENDCHAR
STARTCHAR 053D
ENCODING 1341
SWIDTH 600 0
DWIDTH 15 0
BBX 16 18 -1 0
BITMAP
0E00
1E00
1C00
1C00
1FE7
1FC7
3FCF
39CE
39CE
3BCE
3B8E
7B9E
739C
739C
739C
73F8
F3F8
E1F0
ENDCHAR
STARTCHAR 053E
ENCODING 1342
SWIDTH 600 0
DWIDTH 15 0
BBX 16 18 0 0
BITMAP
383F
39FF
3BFF
3FC3
7FF1
7FF8
3C7C
3C3C
781C
781C
783C
703C
F03C
F038
7878
7FF0
7FE0
1F80
ENDCHAR
STARTCHAR 053F
ENCODING 1343
SWIDTH 600 0
DWIDTH 15 0
BBX 14 18 1 0
BITMAP
3C00
3800
3800
7800
783C
7838
7038
7078
F078
F078
78F0
7FF0
7FF0
1FF0
00F0
00E0
00E0
01E0
ENDCHAR
STARTCHAR 0540
ENCODING 1344
SWIDTH 600 0
DWIDTH 15 0
BBX 15 19 0 -1
BITMAP
0078
003C
003C
003C
007E
00FC
03F0
0FC0
1F00
3E00
7800
F800
FE00
7F80
3FE0
0FF8
03F8
00F0
0010
ENDCHAR
STARTCHAR 0541
ENCODING 1345
SWIDTH 600 0
DWIDTH 15 0
BBX 15 18 0 0
BITMAP
03F0
0FFC
1FFC
1E3E
3C1E
381E
781E
001C
003C
003C
1E78
7FF8
7FF0
F3E0
E3F0
FFF0
FFF8
7C60
ENDCHAR
STARTCHAR 0542
ENCODING 1346
SWIDTH 600 0
DWIDTH 15 0
BBX 13 18 1 0
BITMAP
0FC0
3FF0
3FF0
78F8
F078
F078
E070
E0F0
00F0
00F0
00F0
00E0
00E0
01E0
01E0
01F0
01F0
03F0
ENDCHAR
STARTCHAR 0543
ENCODING 1347
SWIDTH 600 0
DWIDTH 15 0
BBX 16 18 0 0
BITMAP
1E07
1E1F
0F7E
0FF8
07F0
07C0
0780
0FC0
0FC0
1FC0
3DE0
79E0
70F0
F0F0
F0F0
FFF8
FFF8
7FF0
ENDCHAR
STARTCHAR 0544
ENCODING 1348
SWIDTH 600 0
DWIDTH 15 0
BBX 17 18 0 0
BITMAP
3C1F80
3C1F00
381F00
381C00
783C00
783C00
783C00
703800
703800
F07800
F07800
F07000
F07000
F0F000
F1E000
FFE000
7FC000
3F0000
ENDCHAR
STARTCHAR 0545
ENCODING 1349
SWIDTH 600 0
DWIDTH 15 0
BBX 15 18 0 0
BITMAP
01F8
07FC
0FFE
1E1E
001E
003C
7FF8
7FF0
FFF8
003C
003C
003C
703C
7878
7CF8
7FF0
3FE0
1F80
ENDCHAR
STARTCHAR 0546
ENCODING 1350
SWIDTH 600 0
DWIDTH 15 0
BBX 13 18 1 0
BITMAP
7E00
7C00
7C00
3C00
3C00
3C00
3800
7800
7800
7800
7838
7038
7078
F078
78F0
7FE0
7FE0
1F80
ENDCHAR
STARTCHAR 0547
ENCODING 1351
SWIDTH 600 0
DWIDTH 15 0
BBX 14 18 0 0
BITMAP
1F00
1FE0
1FF8
03FC
0FFC
1E1C
3C04
3800
7800
7800
703C
F03C
F038
F078
78F0
7FF0
3FE0
1F80
ENDCHAR
STARTCHAR 0548
ENCODING 1352
SWIDTH 600 0
DWIDTH 15 0
BBX 14 18 0 0
BITMAP
03F0
0FFC
1FFC
1E3C
3C1C
3C1C
381C
383C
783C
783C
7838
7038
7078
F078
F078
F070
E070
E0F0
ENDCHAR
STARTCHAR 0549
ENCODING 1353
SWIDTH 600 0
DWIDTH 15 0
BBX 14 19 1 -1
BITMAP
07E0
1FF8
3FF8
3C7C
783C
703C
703C
8038
0078
0078
0070
40F0
F1E0
FFC0
FF00
7FC0
0FC0
0380
0080
ENDCHAR
STARTCHAR 054A
ENCODING 1354
SWIDTH 600 0
DWIDTH 15 0
BBX 14 18 1 0
BITMAP
07E0
1FF8
3FFC
7BBC
739C
F39C
E79C
E71C
073C
0738
0738
0F38
0E38
0078
0070
0070
0070
0070
ENDCHAR
STARTCHAR 054B
ENCODING 1355
SWIDTH 600 0
DWIDTH 15 0
BBX 15 18 0 0
BITMAP
03F0
0FFC
1FFC
1E3E
3C1E
381E
781E
781C
7FBC
3FBC
07B8
01F8
01F0
03E0
F7C0
FFF0
FFF0
FFF0
ENDCHAR
STARTCHAR 054C
ENCODING 1356
SWIDTH 600 0
DWIDTH 15 0
BBX 16 18 -1 0
BITMAP
01F8
07FC
0FFE
0F1E
1E1E
1C1E
3C1E
3C1E
3C1E
3C1C
381F
783F
783F
783C
7838
7038
F078
F078
ENDCHAR
STARTCHAR 054D
ENCODING 1357
SWIDTH 600 0
DWIDTH 15 0
BBX 15 18 1 0
BITMAP
3C1E
381C
383C
783C
783C
7838
7038
7078
F078
F078
F070
E070
E0F0
E0F0
F1E0
FFE0
FFC0
3F00
ENDCHAR
STARTCHAR 054E
ENCODING 1358
SWIDTH 600 0
DWIDTH 15 0
BBX 14 18 1 0
BITMAP
003C
0038
0038
0078
0078
0078
F070
E070
E0F0
E0F0
F3F0
FFE0
FFE0
3FE0
01E0
01F0
01F0
03F0
ENDCHAR
STARTCHAR 054F
ENCODING 1359
SWIDTH 600 0
DWIDTH 15 0
BBX 15 18 0 0
BITMAP
03F0
07FC
0FFC
1E1E
1C1C
1C00
1E00
1F80
0FE0
07F0
00F8
0078
7078
F078
78F0
7FF0
3FE0
1F80
ENDCHAR
STARTCHAR 0550
ENCODING 1360
SWIDTH 600 0
DWIDTH 15 0
BBX 15 18 0 0
BITMAP
03F8
07FC
0FFC
1F3E
1E1E
3C1E
3C1E
3C1C
3800
3800
7800
7800
7800
7000
7000
F000
F000
F000
ENDCHAR
STARTCHAR 0551
ENCODING 1361
SWIDTH 600 0
DWIDTH 15 0
BBX 15 18 0 0
BITMAP
01F0
07FC
0FFC
0F1E
1E1E
1E1C
1E3C
7FF8
7FF0
FFF8
007C
003C
003C
7038
7878
7FF0
3FE0
1F80
ENDCHAR
STARTCHAR 0552
ENCODING 1362
SWIDTH 600 0
DWIDTH 15 0
BBX 15 18 0 0
BITMAP
1E00
1E00
1E00
1C00
1FFE
3FFE
3FFC
3C00
3800
3800
7800
7800
7800
7000
7000
F000
F000
F000
ENDCHAR
STARTCHAR 0553
ENCODING 1363
SWIDTH 600 0
DWIDTH 15 0
BBX 15 18 0 0
BITMAP
00E0
07F8
1FFC
3FFE
39CE
71CE
738E
738E
E38E
E39C
E39C
E79C
E738
FFF8
7FF0
3FC0
0F00
0E00
ENDCHAR
STARTCHAR 0554
ENCODING 1364
SWIDTH 600 0
DWIDTH 15 0
BBX 16 18 -1 0
BITMAP
00FC
03FE
07FF
078F
0F07
0F0F
0F0F
0F1E
1FFE
1FFC
1FF0
1E00
1C00
7FFC
FFFC
FFFC
3800
3800
ENDCHAR
STARTCHAR 0555
ENCODING 1365
SWIDTH 600 0
DWIDTH 15 0
BBX 13 18 1 0
BITMAP
07C0
0FF0
1FF8
3C78
7878
7838
7838
F078
F078
F078
F078
F070
E0F0
F0F0
F1E0
FFC0
7FC0
1F00
ENDCHAR
STARTCHAR 0556
ENCODING 1366
SWIDTH 600 0
DWIDTH 15 0
BBX 15 18 0 0
BITMAP
07E0
1FE0
1FC0
3DC0
3FF8
1FFC
0FFC
039E
039E
039C
039C
E79C
E71C
E73C
E738
FFF0
7FE0
3F80
ENDCHAR
STARTCHAR 0559
ENCODING 1369
SWIDTH 600 0
DWIDTH 15 0
BBX 4 7 7 12
BITMAP
30
60
C0
80
C0
E0
60
ENDCHAR
STARTCHAR 055A
ENCODING 1370
SWIDTH 600 0
DWIDTH 15 0
BBX 7 8 4 10
BITMAP
1E
1E
3C
3C
38
78
70
E0
ENDCHAR
STARTCHAR 055B
ENCODING 1371
SWIDTH 600 0
DWIDTH 15 0
BBX 9 5 3 15
BITMAP
0F80
1F00
3E00
7C00
F000
ENDCHAR
STARTCHAR 055C
ENCODING 1372
SWIDTH 600 0
DWIDTH 15 0
BBX 13 7 1 15
BITMAP
0038
00F8
0FF0
3FE0
7FC0
7C00
E000
ENDCHAR
STARTCHAR 055D
ENCODING 1373
SWIDTH 600 0
DWIDTH 15 0
BBX 7 5 4 15
BITMAP
F8
78
3C
3C
1E
ENDCHAR
STARTCHAR 055E
ENCODING 1374
SWIDTH 600 0
DWIDTH 15 0
BBX 14 8 0 15
BITMAP
01F0
07F8
1FFC
3C1C
701C
63BC
E1F8
00F0
ENDCHAR
STARTCHAR 055F
ENCODING 1375
SWIDTH 600 0
DWIDTH 15 0
BBX 11 4 2 15
BITMAP
4000
C000
FFE0
FFC0
ENDCHAR
STARTCHAR 0561
ENCODING 1377
SWIDTH 600 0
DWIDTH 15 0
BBX 15 14 0 0
BITMAP
39CE
39CE
39CE
718E
739C
739C
739C
739C
E31C
E738
E738
EFF8
FFF8
73B8
ENDCHAR
STARTCHAR 0562
ENCODING 1378
SWIDTH 600 0
DWIDTH 15 0
BBX 14 19 0 -5
BITMAP
1EF0
1FF8
1FF8
1E3C
3C38
3C38
3C78
3878
3800
7800
7800
7FF8
7FF0
7FF0
F000
F000
F000
E000
E000
ENDCHAR
STARTCHAR 0563
ENCODING 1379
SWIDTH 600 0
DWIDTH 15 0
BBX 14 19 0 -5
BITMAP
079C
1FFC
3FFC
3C78
7878
7878
7078
7078
F078
F0F0
F0F0
7FF8
7FF8
3CF8
00E0
00E0
01E0
01E0
01E0
ENDCHAR
STARTCHAR 0564
ENCODING 1380
SWIDTH 600 0
DWIDTH 15 0
BBX 13 19 0 -5
BITMAP
1CF0
1DF8
3FF8
3E78
3C78
3C78
3878
7878
7870
7870
78F0
70F8
70F8
F0F8
00E0
01E0
01E0
01E0
01C0
ENDCHAR
STARTCHAR 0565
ENCODING 1381
SWIDTH 600 0
DWIDTH 15 0
BBX 14 19 1 0
BITMAP
1E00
1C00
1C00
3C00
3C00
3FFC
3FF8
3FF8
7800
7800
78F0
70F0
70F0
F0E0
F1E0
F1E0
FFE0
FFE0
79E0
ENDCHAR
STARTCHAR 0566
ENCODING 1382
SWIDTH 600 0
DWIDTH 15 0
BBX 14 19 0 -5
BITMAP
079C
1FDC
1FFC
3C7C
7878
7878
7078
7078
7078
F0F0
78F0
7FF0
7FF0
3CF0
00E0
00E0
01F0
01F0
01F0
ENDCHAR
STARTCHAR 0567
ENCODING 1383
SWIDTH 600 0
DWIDTH 15 0
BBX 14 19 0 0
BITMAP
0F00
0E00
0E00
1E00
1E00
1FFC
1FF8
1FF8
3C00
3C00
3C00
3800
3800
7800
7800
7800
7FC0
7FC0
FFC0
ENDCHAR
STARTCHAR 0568
ENCODING 1384
SWIDTH 600 0
DWIDTH 15 0
BBX 14 19 0 -5
BITMAP
1CF0
1DF8
1FF8
1E3C
3C38
3C38
3C78
3878
3878
7870
7870
78F0
70F0
70F0
F000
F000
FFF0
FFE0
FFE0
ENDCHAR
STARTCHAR 0569
ENCODING 1385
SWIDTH 600 0
DWIDTH 15 0
BBX 16 19 -1 -5
BITMAP
1E78
1FFC
1FFE
1E1E
1C0E
3C0E
3C1E
3CFF
39FF
3B1C
7B1C
7F38
7BF0
71E0
7000
F000
F000
F000
E000
ENDCHAR
STARTCHAR 056A
ENCODING 1386
SWIDTH 600 0
DWIDTH 15 0
BBX 15 19 0 0
BITMAP
001E
001C
001C
003C
003C
07FE
1FFE
3FFE
3C38
7878
7078
F078
F070
F0F0
F0F0
F1E0
7FC0
7F80
3F00
ENDCHAR
STARTCHAR 056B
ENCODING 1387
SWIDTH 600 0
DWIDTH 15 0
BBX 14 24 0 -5
BITMAP
0F00
0F00
0E00
0E00
1E00
1EF0
1FF8
1FFC
1E3C
1C38
3C38
3C38
3C78
3878
3878
7870
7870
78F0
70F0
7000
F000
F000
F000
E000
ENDCHAR
STARTCHAR 056C
ENCODING 1388
SWIDTH 600 0
DWIDTH 15 0
BBX 7 19 3 -5
BITMAP
1E
1C
1C
1C
3C
3C
3C
38
38
78
78
78
70
70
F0
F0
FE
FE
FE
ENDCHAR
STARTCHAR 056D
ENCODING 1389
SWIDTH 600 0
DWIDTH 15 0
BBX 16 24 -1 -5
BITMAP
0E00
0E00
0E00
1C00
1C00
1DC7
1FC7
1FC7
1DC7
39CE
39CE
39CE
39CE
39CE
739C
739C
73FC
73FC
71DC
E000
E000
E000
E000
E000
ENDCHAR
STARTCHAR 056E
ENCODING 1390
SWIDTH 600 0
DWIDTH 15 0
BBX 14 19 1 0
BITMAP
0600
0F00
0F00
3E00
1F80
0FFC
1FF8
3FF8
78F0
F070
F070
E070
E070
E0F0
E0F0
F1E0
FFC0
7F80
3E00
ENDCHAR
STARTCHAR 056F
ENCODING 1391
SWIDTH 600 0
DWIDTH 15 0
BBX 13 24 1 -5
BITMAP
1E00
1E00
1C00
1C00
3C00
3C38
3C78
3878
3878
7870
7870
78F0
70F0
70F0
F0F0
F1E0
FFE0
7FE0
3DE0
01E0
01C0
01C0
03C0
03C0
ENDCHAR
STARTCHAR 0570
ENCODING 1392
SWIDTH 600 0
DWIDTH 15 0
BBX 13 19 1 0
BITMAP
1E00
1E00
1C00
1C00
3C00
3DE0
3FF0
3FF8
3C78
3878
7870
7870
78F0
70F0
70F0
F0E0
F0E0
F1E0
E1E0
ENDCHAR
STARTCHAR 0571
ENCODING 1393
SWIDTH 600 0
DWIDTH 15 0
BBX 12 19 1 0
BITMAP
0780
0F00
0E20
0FC0
0FC0
03C0
07C0
0FE0
1CE0
38F0
78F0
70F0
F0F0
F0E0
F1E0
F1E0
FFE0
FFE0
79C0
ENDCHAR
STARTCHAR 0572
ENCODING 1394
SWIDTH 600 0
DWIDTH 15 0
BBX 13 19 0 -5
BITMAP
1CF0
1DF8
1FF8
3E78
3C38
3C78
3878
3878
7870
7870
78F0
70F0
70F0
F0E0
00E0
01E0
01F0
01F0
01F0
ENDCHAR
STARTCHAR 0573
ENCODING 1395
SWIDTH 600 0
DWIDTH 15 0
BBX 14 18 1 0
BITMAP
007C
01F8
03F8
0780
7F80
7FC0
7FE0
3DF0
38F0
7870
70F0
F0F0
F0F0
F0E0
F1E0
FFE0
7FE0
3DE0
ENDCHAR
STARTCHAR 0574
ENCODING 1396
SWIDTH 600 0
DWIDTH 15 0
BBX 15 19 1 0
BITMAP
003E
003E
003E
0078
0078
3878
7878
7870
78F0
70F0
70F0
F0F0
F0E0
F1E0
F1E0
F1E0
FFE0
FDC0
79C0
ENDCHAR
STARTCHAR 0575
ENCODING 1397
SWIDTH 600 0
DWIDTH 15 0
BBX 12 19 -1 -5
BITMAP
0070
00F0
00F0
00F0
00F0
00E0
00E0
01E0
01E0
01E0
01C0
01C0
03C0
03C0
03C0
0780
FF80
FF00
FE00
ENDCHAR
STARTCHAR 0576
ENCODING 1398
SWIDTH 600 0
DWIDTH 15 0
BBX 13 19 2 0
BITMAP
7C00
7C00
7C00
3C00
3800
3878
7870
7870
78F0
70F0
70F0
F0E0
F0E0
F1E0
E1E0
F3E0
FFC0
FDC0
79C0
ENDCHAR
STARTCHAR 0577
ENCODING 1399
SWIDTH 600 0
DWIDTH 15 0
BBX 13 19 0 -5
BITMAP
03E0
0FF0
1FF8
3C78
0838
0038
0078
0070
00E0
01C0
0780
0F00
1E00
3C00
7800
F000
FFE0
FFC0
7FC0
ENDCHAR
STARTCHAR 0578
ENCODING 1400
SWIDTH 600 0
DWIDTH 15 0
BBX 13 14 1 0
BITMAP
39E0
3BF0
3FF0
3C78
7870
7870
78F0
70F0
70F0
F0E0
F0E0
F1E0
E1E0
E1E0
ENDCHAR
STARTCHAR 0579
ENCODING 1401
SWIDTH 600 0
DWIDTH 15 0
BBX 11 20 1 -5
BITMAP
0100
0380
0780
0F00
0E00
0E20
0FE0
07E0
03C0
0780
0F00
1E00
3C00
3800
7000
7000
F000
FFC0
FF80
7F80
ENDCHAR
STARTCHAR 057A
ENCODING 1402
SWIDTH 600 0
DWIDTH 15 0
BBX 15 19 0 -5
BITMAP
39CE
39CE
738C
739C
739C
739C
739C
E318
E738
E738
E738
E738
FFF8
73F0
0070
0070
0070
0070
00E0
ENDCHAR
STARTCHAR 057B
ENCODING 1403
SWIDTH 600 0
DWIDTH 15 0
BBX 14 19 0 -5
BITMAP
03F0
0FF8
1FFC
1C3C
3C3C
383C
3C38
1C78
1EF0
0FE0
0FC0
0F80
1F00
3C00
7800
7000
FFE0
FFE0
7FE0
ENDCHAR
STARTCHAR 057C
ENCODING 1404
SWIDTH 600 0
DWIDTH 15 0
BBX 14 14 0 0
BITMAP
1CF0
1DF8
1FFC
3E3C
3C3C
3C38
3838
3878
7870
7870
78E0
71F8
71F8
F3F8
ENDCHAR
STARTCHAR 057D
ENCODING 1405
SWIDTH 600 0
DWIDTH 15 0
BBX 13 14 1 0
BITMAP
3C38
3C78
3878
3878
7870
7870
7870
70F0
70F0
F0F0
F1E0
FFE0
7FE0
3DE0
ENDCHAR
STARTCHAR 057E
ENCODING 1406
SWIDTH 600 0
DWIDTH 15 0
BBX 14 24 1 -5
BITMAP
003C
003C
003C
0038
0038
3C78
3878
7878
7870
7870
78F0
70F0
70F0
F0E0
F1E0
F1E0
FFE0
FFE0
79C0
01C0
03C0
03F0
03E0
03E0
ENDCHAR
STARTCHAR 057F
ENCODING 1407
SWIDTH 600 0
DWIDTH 15 0
BBX 15 14 0 0
BITMAP
39DC
39FE
39FE
39CE
718E
739C
739C
739C
739C
E39C
E738
FF38
FF38
7738
ENDCHAR
STARTCHAR 0580
ENCODING 1408
SWIDTH 600 0
DWIDTH 15 0
BBX 14 19 0 -5
BITMAP
1EF8
1FF8
1FFC
1E3C
1C3C
3C3C
3C38
3C38
3878
3878
7878
7870
7870
70F0
7000
7000
F000
F000
F000
ENDCHAR
STARTCHAR 0581
ENCODING 1409
SWIDTH 600 0
DWIDTH 15 0
BBX 15 19 0 -5
BITMAP
079E
0FDC
1FFC
3E7C
3C3C
383C
783C
7838
7878
7878
78F8
7FF8
3FF0
1E70
00F0
41E0
7FE0
7FC0
FF00
ENDCHAR
STARTCHAR 0582
ENCODING 1410
SWIDTH 600 0
DWIDTH 15 0
BBX 11 14 2 0
BITMAP
3C00
3C00
3C00
3800
3800
7800
7800
7800
7000
7000
F000
FFE0
FFE0
FFC0
ENDCHAR
STARTCHAR 0583
ENCODING 1411
SWIDTH 600 0
DWIDTH 15 0
BBX 15 24 0 -5
BITMAP
00E0
00E0
00E0
00E0
00C0
39DC
39FE
39FE
39CE
71CE
739C
739C
739C
739C
E39C
E738
FF38
FF38
7738
0700
0E00
0E00
0E00
0E00
ENDCHAR
STARTCHAR 0584
ENCODING 1412
SWIDTH 600 0
DWIDTH 15 0
BBX 16 19 -1 -5
BITMAP
0F7C
0FFE
0FFE
0F0E
0E0F
1E0E
1E0E
1E1E
1E1E
1E1E
3E3C
3FF8
3FF8
39E0
3800
FFF8
FFF8
FFF8
7000
ENDCHAR
STARTCHAR 0585
ENCODING 1413
SWIDTH 600 0
DWIDTH 15 0
BBX 13 14 1 0
BITMAP
07C0
1FF0
3FF0
7C78
7878
F078
F078
F078
F078
F0F0
F1F0
7FE0
7FC0
1F00
ENDCHAR
STARTCHAR 0586
ENCODING 1414
SWIDTH 600 0
DWIDTH 15 0
BBX 15 24 -1 -5
BITMAP
03F0
07F0
0FE0
0CE0
1CE0
1FF8
0FFE
07FE
01DE
01CE
01CE
01CE
018E
039E
239C
73BC
FFF8
3FF0
1FE0
0700
0700
0700
0700
0E00
ENDCHAR
STARTCHAR 0587
ENCODING 1415
SWIDTH 600 0
DWIDTH 15 0
BBX 13 19 1 0
BITMAP
3C00
3C00
3C00
3800
3800
7878
7870
78F0
70F0
70F0
70F0
F0E0
F0E0
E1E0
E1E0
F3E0
FFF8
FDF8
7BF8
ENDCHAR
STARTCHAR 0589
ENCODING 1417
SWIDTH 600 0
DWIDTH 15 0
BBX 7 13 4 0
BITMAP
1E
3E
3C
3C
00
00
00
00
00
78
78
78
F0
ENDCHAR
STARTCHAR 058A
ENCODING 1418
SWIDTH 600 0
DWIDTH 15 0
BBX 9 4 3 5
BITMAP
4080
7F80
7F00
FF00
ENDCHAR
STARTCHAR 0E3F
ENCODING 3647
SWIDTH 600 0
DWIDTH 15 0
BBX 14 22 0 -3
BITMAP
0040
00C0
00C0
1FF0
1FFC
1FFC
1CBC
3D9C
3DBC
3FF8
3FC0
3FF8
3B78
7B38
7338
7378
7EF8
7FF0
FFC0
0600
0600
0C00
ENDCHAR
STARTCHAR 10D0
ENCODING 4304
SWIDTH 600 0
DWIDTH 15 0
BBX 13 14 1 0
BITMAP
0F00
0F00
0780
07E0
03F0
00F0
7078
F078
E070
E0F0
F0F0
FFE0
FFC0
3F00
ENDCHAR
STARTCHAR 10D1
ENCODING 4305
SWIDTH 600 0
DWIDTH 15 0
BBX 13 19 1 0
BITMAP
1E00
1F00
0F80
07C0
03C0
0380
0FC0
1FF0
3CF0
7878
F078
F078
E078
E0F0
E0F0
F1E0
FFE0
7FC0
3F00
ENDCHAR
STARTCHAR 10D2
ENCODING 4306
SWIDTH 600 0
DWIDTH 15 0
BBX 13 18 0 -5
BITMAP
07E0
0FF0
1FF8
1878
1878
1070
01E0
1FF0
3FF8
7878
F038
F038
E038
E078
F0F0
FFF0
7FE0
3F80
ENDCHAR
STARTCHAR 10D3
ENCODING 4307
SWIDTH 600 0
DWIDTH 15 0
BBX 15 18 0 -5
BITMAP
0F7C
1FFE
3FFE
738E
738E
738E
F38E
E31E
E71C
E71C
E3FC
E3F8
71E0
7800
7E00
FF80
47C0
03C0
ENDCHAR
STARTCHAR 10D4
ENCODING 4308
SWIDTH 600 0
DWIDTH 15 0
BBX 14 18 0 -5
BITMAP
03F0
0FF8
1FFC
1C3C
3C3C
3C3C
3C3C
103C
0038
0038
7078
F078
F078
E070
F0F0
FFE0
FFE0
3F80
ENDCHAR
STARTCHAR 10D5
ENCODING 4309
SWIDTH 600 0
DWIDTH 15 0
BBX 14 18 0 -5
BITMAP
03F0
0FF8
1FFC
3C3C
3C1C
3C3C
303C
01F8
01E0
01F0
6078
F078
F078
F070
F0F0
FFF0
7FE0
3F80
ENDCHAR
STARTCHAR 10D6
ENCODING 4310
SWIDTH 600 0
DWIDTH 15 0
BBX 13 19 1 0
BITMAP
07C0
1FE0
1FF0
3CF0
38F0
38E0
38E0
1FE0
1FF0
3C78
7878
7078
F078
F078
F070
F0F0
FFE0
7FC0
3F00
ENDCHAR
STARTCHAR 10D7
ENCODING 4311
SWIDTH 600 0
DWIDTH 15 0
BBX 15 13 0 0
BITMAP
0FBC
1FFE
3FFE
79CE
718E
719E
F19E
F39C
E39C
E31C
FF38
7E30
3CE0
ENDCHAR
STARTCHAR 10D8
ENCODING 4312
SWIDTH 600 0
DWIDTH 15 0
BBX 13 13 1 0
BITMAP
07E0
1FF0
3FF8
7878
7078
F078
F078
F078
E070
E0F0
F0E0
71E0
7BC0
ENDCHAR
STARTCHAR 10D9
ENCODING 4313
SWIDTH 600 0
DWIDTH 15 0
BBX 14 18 0 -5
BITMAP
03C0
07F0
07F8
003C
003C
003C
0038
03F0
03E0
23F0
7078
F078
E070
E070
F0F0
FFE0
FFC0
3F80
ENDCHAR
STARTCHAR 10DA
ENCODING 4314
SWIDTH 600 0
DWIDTH 15 0
BBX 14 18 0 -5
BITMAP
03F0
0FF8
1FFC
3C3C
3C1C
381C
783C
783C
7878
7870
7870
3C00
3C00
3E00
FF80
7780
43C0
03C0
ENDCHAR
STARTCHAR 10DB
ENCODING 4315
SWIDTH 600 0
DWIDTH 15 0
BBX 14 19 1 0
BITMAP
07F0
1FF8
3FFC
3C3C
783C
003C
0FBC
3FF8
7FF8
7878
F078
F078
E070
E070
E0F0
F0F0
FFE0
7FC0
3F00
ENDCHAR
STARTCHAR 10DC
ENCODING 4316
SWIDTH 600 0
DWIDTH 15 0
BBX 14 19 1 0
BITMAP
07FC
1FF8
3FF8
3800
3800
7800
7BE0
7FF0
7FF8
7878
F078
F078
F078
F078
F070
F0F0
FFE0
7FC0
3F00
ENDCHAR
STARTCHAR 10DD
ENCODING 4317
SWIDTH 600 0
DWIDTH 15 0
BBX 15 13 0 0
BITMAP
0F78
1FFC
3FFE
798E
718E
739E
F39E
F39E
E01C
E01C
F038
F078
78F0
ENDCHAR
STARTCHAR 10DE
ENCODING 4318
SWIDTH 600 0
DWIDTH 15 0
BBX 14 19 0 0
BITMAP
0F00
07E0
07F8
00FC
001C
001C
003C
03F8
03F0
01F8
0078
7838
7038
F078
F078
F0F0
7FF0
7FE0
1F80
ENDCHAR
STARTCHAR 10DF
ENCODING 4319
SWIDTH 600 0
DWIDTH 15 0
BBX 15 18 0 -5
BITMAP
007E
3FFE
3FFE
3F1E
0F1C
079C
039C
073C
7F3C
7E38
F838
0038
0078
F078
F0F0
FFF0
7FE0
3F80
ENDCHAR
STARTCHAR 10E0
ENCODING 4320
SWIDTH 600 0
DWIDTH 15 0
BBX 15 19 0 0
BITMAP
0018
00F8
01F8
07C0
0F00
1E00
3F78
3FFC
7FFE
739E
F39E
F39E
E39C
E31C
E01C
E03C
E038
E078
70F0
ENDCHAR
STARTCHAR 10E1
ENCODING 4321
SWIDTH 600 0
DWIDTH 15 0
BBX 13 19 1 0
BITMAP
1C00
3C00
3C00
3C10
3870
38E0
79C0
79C0
79F0
78F8
7078
7038
F078
F078
F078
F0F0
7FE0
7FC0
1F80
ENDCHAR
STARTCHAR 10E2
ENCODING 4322
SWIDTH 600 0
DWIDTH 15 0
BBX 15 21 0 -5
BITMAP
00E0
00E0
00C0
00C0
03F0
0FF8
1FBC
399C
799E
739E
F39E
F39E
E01C
E01C
E03C
E03C
E078
F0F0
FFF0
7FE0
3F80
ENDCHAR
STARTCHAR 10E3
ENCODING 4323
SWIDTH 600 0
DWIDTH 15 0
BBX 13 18 1 -5
BITMAP
4CF0
7FF8
FFF8
6738
0738
0638
0678
0078
2078
7070
F070
E0F0
E0F0
E0F0
E1E0
FFE0
FFC0
3F00
ENDCHAR
STARTCHAR 10E4
ENCODING 4324
SWIDTH 600 0
DWIDTH 15 0
BBX 15 18 0 -5
BITMAP
0FBC
3FFE
3FFE
71CE
71CE
F19E
F19C
F39C
E3B8
FF30
7F78
3C3C
0038
7038
7078
7FF8
3FF0
1FC0
ENDCHAR
STARTCHAR 10E5
ENCODING 4325
SWIDTH 600 0
DWIDTH 15 0
BBX 16 24 0 -5
BITMAP
000F
000F
000E
000E
000E
000E
07DE
0FFC
1FFC
1C3C
3C3C
3C3C
383C
0038
0038
2038
7078
F078
E070
E070
F0F0
FFE0
FFC0
3F00
ENDCHAR
STARTCHAR 10E6
ENCODING 4326
SWIDTH 600 0
DWIDTH 15 0
BBX 15 18 0 -5
BITMAP
0F7C
1FFE
3FFE
79CE
71CE
718E
739E
F39E
F01C
F01C
7038
7870
3C00
3F00
7F80
7FC0
21C0
01E0
ENDCHAR
STARTCHAR 10E7
ENCODING 4327
SWIDTH 600 0
DWIDTH 15 0
BBX 15 18 0 -5
BITMAP
079E
0F1E
1E1E
3C1C
3C1C
781C
783C
783C
7C78
3FF8
3FF8
0778
0078
F078
F0F0
FFF0
7FE0
3F80
ENDCHAR
STARTCHAR 10E8
ENCODING 4328
SWIDTH 600 0
DWIDTH 15 0
BBX 14 19 1 0
BITMAP
3C78
7FFC
7FFC
F33C
E33C
003C
023C
1FB8
7FF8
78F8
F078
E078
E070
E070
E0F0
F0E0
FFE0
7FC0
3F00
ENDCHAR
STARTCHAR 10E9
ENCODING 4329
SWIDTH 600 0
DWIDTH 15 0
BBX 14 19 0 0
BITMAP
03F0
07F8
0FFC
1E3C
1E3C
1C38
1DF0
3FF8
3FFC
3C3C
3C1C
381C
781C
783C
7838
7078
70F0
F1E0
F3C0
ENDCHAR
STARTCHAR 10EA
ENCODING 4330
SWIDTH 600 0
DWIDTH 15 0
BBX 15 19 0 -5
BITMAP
0800
0EF0
1EF0
1C78
3C3C
381E
781C
701C
71F8
F3F0
F3F8
F03C
F03C
F038
F038
F078
7FF0
7FE0
1F80
ENDCHAR
STARTCHAR 10EB
ENCODING 4331
SWIDTH 600 0
DWIDTH 15 0
BBX 16 19 0 0
BITMAP
000F
000E
000E
000E
001E
001E
07DC
1FFC
3FFC
3C3C
783C
783C
7038
F078
F078
F0F0
7FF0
7FE0
1F80
ENDCHAR
STARTCHAR 10EC
ENCODING 4332
SWIDTH 600 0
DWIDTH 15 0
BBX 16 19 0 0
BITMAP
078E
1FFF
1FFF
3C67
3CC7
3800
3880
3FF0
7FF8
7C78
7838
7038
7038
F078
F078
F0F0
7FF0
7FC0
1F80
ENDCHAR
STARTCHAR 10ED
ENCODING 4333
SWIDTH 600 0
DWIDTH 15 0
BBX 14 24 0 -5
BITMAP
0070
0070
00F0
00F0
00E0
01E0
0FE0
1FF0
1C7C
387C
387C
3CE0
3FC0
1FC0
07C0
01E0
21F0
7078
F078
E070
F0F0
FFF0
FFE0
3F80
ENDCHAR
STARTCHAR 10EE
ENCODING 4334
SWIDTH 600 0
DWIDTH 15 0
BBX 13 19 1 0
BITMAP
3C00
3C00
3C00
3C00
3800
3800
7BE0
7FF0
7FF8
7878
7878
F078
F078
F078
F070
F0F0
7FE0
7FC0
1F80
ENDCHAR
STARTCHAR 10EF
ENCODING 4335
SWIDTH 600 0
DWIDTH 15 0
BBX 14 20 0 -5
BITMAP
01E0
01C0
21C0
1DC0
3FE0
3FFC
03FC
039C
0380
03C0
03E0
21F0
78F8
F078
F078
F078
F0F0
FFF0
7FE0
3F80
ENDCHAR
STARTCHAR 10F0
ENCODING 4336
SWIDTH 600 0
DWIDTH 15 0
BBX 15 19 0 0
BITMAP
0380
03E0
03FC
01FE
001E
001C
01FC
01F8
03FC
003C
03F8
03F0
77F0
F078
F078
F078
FFF0
7FE0
1F80
ENDCHAR
STARTCHAR 10F1
ENCODING 4337
SWIDTH 600 0
DWIDTH 15 0
BBX 15 24 0 -5
BITMAP
00E0
00F8
007C
007E
001E
3C1E
3CFC
3CF8
3CFC
3C3C
39FC
39F0
79F8
7038
7078
F3F8
F3E0
E3F0
E0F0
E0F0
E0F0
FFE0
7FE0
3F80
ENDCHAR
STARTCHAR 10F2
ENCODING 4338
SWIDTH 600 0
DWIDTH 15 0
BBX 14 16 0 -3
BITMAP
03E0
0FF8
1FFC
3C3C
383C
783C
783C
7838
7878
78F0
3DE0
3FC0
7FE0
FFF0
F1F0
C060
ENDCHAR
STARTCHAR 10F3
ENCODING 4339
SWIDTH 600 0
DWIDTH 15 0
BBX 15 18 0 -5
BITMAP
1FFE
3FFE
3FFC
3C3C
3838
0078
00F0
0FE0
0FE0
0FF0
0070
F078
F070
E070
E0F0
FFE0
7FC0
3F00
ENDCHAR
STARTCHAR 10F4
ENCODING 4340
SWIDTH 600 0
DWIDTH 15 0
BBX 15 24 0 -5
BITMAP
03C0
0FC0
1FC0
1E00
3C02
3C06
3C1E
1FFE
1FFC
019C
003C
0038
0078
0FF0
0FC0
0FF0
00F0
0078
E070
E070
F0F0
FFE0
FFC0
3F00
ENDCHAR
STARTCHAR 10F5
ENCODING 4341
SWIDTH 600 0
DWIDTH 15 0
BBX 15 19 0 0
BITMAP
03F0
0FFC
1FFC
3C1C
3C1C
3C3C
3FFE
1FFE
03FE
0038
03FC
1FFC
7FFC
7870
F070
F0F0
FFE0
7FE0
3F80
ENDCHAR
STARTCHAR 10F6
ENCODING 4342
SWIDTH 600 0
DWIDTH 15 0
BBX 15 18 0 -5
BITMAP
1F78
3FFC
7FFE
739E
F39E
F39E
F39C
E31C
E73C
E73C
F7F8
F7F8
77E0
0700
0E00
3E00
3C00
7000
ENDCHAR
STARTCHAR 10F7
ENCODING 4343
SWIDTH 600 0
DWIDTH 15 0
BBX 13 18 0 -5
BITMAP
03E0
0FF0
0FF0
1C78
1C70
00F0
07E0
1FC0
3F00
7C10
F078
F078
E078
E078
E0F0
FFF0
FFE0
3F80
ENDCHAR
STARTCHAR 10F8
ENCODING 4344
SWIDTH 600 0
DWIDTH 15 0
BBX 14 19 0 -5
BITMAP
0010
3CF8
3878
383C
783C
783C
783C
783C
7038
F878
FFF0
FFE0
F700
E070
E0F0
E0F0
FFE0
FFC0
3F00
ENDCHAR
STARTCHAR 10F9
ENCODING 4345
SWIDTH 600 0
DWIDTH 15 0
BBX 13 18 1 -5
BITMAP
0FC0
3FF0
7FF8
7878
F038
F078
E078
F0F0
FFE0
7FC0
1F80
3C00
7800
F1C0
F3C0
FF80
FF80
3E00
ENDCHAR
STARTCHAR 10FA
ENCODING 4346
SWIDTH 600 0
DWIDTH 15 0
BBX 13 15 1 -2
BITMAP
07E0
1FF0
3FF8
7878
7878
7078
7070
70F0
70E0
79C0
3C40
3F00
FF80
E700
2200
ENDCHAR
STARTCHAR 10FB
ENCODING 4347
SWIDTH 600 0
DWIDTH 15 0
BBX 10 12 2 1
BITMAP
3800
3800
3800
0000
01C0
01C0
01C0
0000
0000
7000
E000
E000
ENDCHAR
STARTCHAR 10FC
ENCODING 4348
SWIDTH 600 0
DWIDTH 15 0
BBX 7 9 4 10
BITMAP
3E
60
78
7C
6C
CC
CC
C8
70
ENDCHAR
STARTCHAR 1E80
ENCODING 7808
SWIDTH 600 0
DWIDTH 15 0
BBX 16 23 1 0
BITMAP
0700
0380
01C0
0000
0000
700F
700E
700E
F00E
E39C
E79C
E79C
E7B8
EFB8
EDB8
FDB0
F9F0
F9F0
F9F0
F1E0
F1E0
E1E0
E1C0
ENDCHAR
STARTCHAR 1E81
ENCODING 7809
SWIDTH 600 0
DWIDTH 15 0
BBX 15 20 1 0
BITMAP
0E00
0700
0380
0180
01C0
0000
E00E
E00E
E01C
E01C
E71C
E738
EF38
EF30
EF70
F970
F9E0
F9E0
F1E0
F1C0
ENDCHAR
STARTCHAR 1E82
ENCODING 7810
SWIDTH 600 0
DWIDTH 15 0
BBX 16 23 1 0
BITMAP
0070
00E0
01C0
0380
0000
700F
700E
700E
F00E
E39C
E79C
E79C
E7B8
EFB8
EDB8
FDB0
F9F0
F9F0
F9F0
F1E0
F1E0
E1E0
E1C0
ENDCHAR
STARTCHAR 1E83
ENCODING 7811
SWIDTH 600 0
DWIDTH 15 0
BBX 15 20 1 0
BITMAP
0078
00F0
01C0
0380
0700
0000
E00E
E00E
E01C
E01C
E71C
E738
EF38
EF30
EF70
F970
F9E0
F9E0
F1E0
F1C0
ENDCHAR
STARTCHAR 1E84
ENCODING 7812
SWIDTH 600 0
DWIDTH 15 0
BBX 16 22 1 0
BITMAP
0738
0738
0738
0000
700F
700E
700E
F00E
E39C
E79C
E79C
E7B8
EFB8
EDB8
FDB0
F9F0
F9F0
F9F0
F1E0
F1E0
E1E0
E1C0
ENDCHAR
STARTCHAR 1E85
ENCODING 7813
SWIDTH 600 0
DWIDTH 15 0
BBX 15 19 1 0
BITMAP
0738
0670
0E70
0000
0000
E00E
E00E
E01C
E01C
E71C
E738
EF38
EF30
EF70
F970
F9E0
F9E0
F1E0
F1C0
ENDCHAR
STARTCHAR 1EBC
ENCODING 7868
SWIDTH 600 0
DWIDTH 15 0
BBX 15 23 0 0
BITMAP
01C6
03EC
037C
0638
0000
0FFE
0FFE
1FFE
1E00
1E00
1C00
1C00
3FF8
3FF8
3FF8
3800
3800
7800
7800
7800
7FF0
7FF0
FFF0
ENDCHAR
STARTCHAR 1EBD
ENCODING 7869
SWIDTH 600 0
DWIDTH 15 0
BBX 13 19 1 0
BITMAP
0718
0FF0
18E0
0000
0000
07C0
1FF0
3FF0
7878
7038
FFF8
FFF8
FFF8
E000
F000
F030
7FE0
7FE0
1FC0
ENDCHAR
STARTCHAR 1EF2
ENCODING 7922
SWIDTH 600 0
DWIDTH 15 0
BBX 15 23 2 0
BITMAP
0E00
0700
0380
0000
0000
E03E
F03C
7078
70F0
78E0
39E0
3BC0
3F80
1F80
1F00
1E00
1E00
1E00
1C00
1C00
3C00
3C00
3C00
ENDCHAR
STARTCHAR 1EF3
ENCODING 7923
SWIDTH 600 0
DWIDTH 15 0
BBX 17 25 -1 -5
BITMAP
03C000
01C000
00E000
006000
007000
000000
1E0780
1E0F00
0E0E00
0E1E00
0E3C00
0F3C00
0F7800
077000
07F000
07E000
07E000
07C000
03C000
038000
070000
0F0000
7E0000
FE0000
F80000
ENDCHAR
STARTCHAR 1EF8
ENCODING 7928
SWIDTH 600 0
DWIDTH 15 0
BBX 15 23 2 0
BITMAP
0610
0FB0
09F0
18E0
0000
E03E
F03C
7078
70F0
78E0
39E0
3BC0
3F80
3F80
1F00
1E00
1E00
1E00
1C00
1C00
3C00
3C00
3C00
ENDCHAR
STARTCHAR 1EF9
ENCODING 7929
SWIDTH 600 0
DWIDTH 15 0
BBX 17 24 -1 -5
BITMAP
01C600
03FE00
031C00
000000
000000
1E0780
1E0F00
0E0E00
0E1E00
0E3C00
0F3C00
0F7800
077000
07F000
07E000
07E000
07C000
03C000
038000
070000
0F0000
7E0000
FE0000
F80000
ENDCHAR
STARTCHAR 2000
ENCODING 8192
SWIDTH 600 0
DWIDTH 15 0
BBX 0 0 0 0
BITMAP
ENDCHAR
STARTCHAR 2001
ENCODING 8193
SWIDTH 600 0
DWIDTH 15 0
BBX 0 0 0 0
BITMAP
ENDCHAR
STARTCHAR 2002
ENCODING 8194
SWIDTH 600 0
DWIDTH 15 0
BBX 0 0 0 0
BITMAP
ENDCHAR
STARTCHAR 2003
ENCODING 8195
SWIDTH 600 0
DWIDTH 15 0
BBX 0 0 0 0
BITMAP
ENDCHAR
STARTCHAR 2004
ENCODING 8196
SWIDTH 600 0
DWIDTH 15 0
BBX 0 0 0 0
BITMAP
ENDCHAR
STARTCHAR 2005
ENCODING 8197
SWIDTH 600 0
DWIDTH 15 0
BBX 0 0 0 0
BITMAP
ENDCHAR
STARTCHAR 2006
ENCODING 8198
SWIDTH 600 0
DWIDTH 15 0
BBX 0 0 0 0
BITMAP
ENDCHAR
STARTCHAR 2007
ENCODING 8199
SWIDTH 600 0
DWIDTH 15 0
BBX 0 0 0 0
BITMAP
ENDCHAR
STARTCHAR 2008
ENCODING 8200
SWIDTH 600 0
DWIDTH 15 0
BBX 0 0 0 0
BITMAP
ENDCHAR
STARTCHAR 2009
ENCODING 8201
SWIDTH 600 0
DWIDTH 15 0
BBX 0 0 0 0
BITMAP
ENDCHAR
STARTCHAR 200A
ENCODING 8202
SWIDTH 600 0
DWIDTH 15 0
BBX 0 0 0 0
BITMAP
ENDCHAR
STARTCHAR 2010
ENCODING 8208
SWIDTH 600 0
DWIDTH 15 0
BBX 8 4 3 5
BITMAP
7F
FF
FF
FF
ENDCHAR
STARTCHAR 2011
ENCODING 8209
SWIDTH 600 0
DWIDTH 15 0
BBX 8 4 3 5
BITMAP
7F
FF
FF
FF
ENDCHAR
STARTCHAR 2012
ENCODING 8210
SWIDTH 600 0
DWIDTH 15 0
BBX 11 3 2 5
BITMAP
FFE0
FFE0
FFE0
ENDCHAR
STARTCHAR 2013
ENCODING 8211
SWIDTH 600 0
DWIDTH 15 0
BBX 8 3 4 5
BITMAP
FF
FE
FE
ENDCHAR
STARTCHAR 2014
ENCODING 8212
SWIDTH 600 0
DWIDTH 15 0
BBX 15 3 0 5
BITMAP
FFFE
FFFE
FFFE
ENDCHAR
STARTCHAR 2015
ENCODING 8213
SWIDTH 600 0
DWIDTH 15 0
BBX 16 3 -1 5
BITMAP
7FFF
7FFF
FFFE
ENDCHAR
STARTCHAR 2016
ENCODING 8214
SWIDTH 600 0
DWIDTH 15 0
BBX 9 25 3 -6
BITMAP
E380
E380
E380
E380
E380
E380
E380
E380
E380
E380
E380
E380
E380
E380
E380
E380
E380
E380
E380
E380
E380
E380
E380
E380
E380
ENDCHAR
STARTCHAR 2017
ENCODING 8215
SWIDTH 600 0
DWIDTH 15 0
BBX 15 6 0 -6
BITMAP
FFFE
FFFE
FFFE
FFFE
FFFE
FFFE
ENDCHAR
STARTCHAR 2018
ENCODING 8216
SWIDTH 600 0
DWIDTH 15 0
BBX 7 8 5 11
BITMAP
0E
1C
3C
38
78
70
F0
F0
ENDCHAR
STARTCHAR 2019
ENCODING 8217
SWIDTH 600 0
DWIDTH 15 0
BBX 7 8 5 11
BITMAP
1E
1C
3C
3C
38
78
70
E0
ENDCHAR
STARTCHAR 201A
ENCODING 8218
SWIDTH 600 0
DWIDTH 15 0
BBX 7 8 2 -3
BITMAP
1E
1C
3C
3C
38
70
70
E0
ENDCHAR
STARTCHAR 201B
ENCODING 8219
SWIDTH 600 0
DWIDTH 15 0
BBX 5 8 6 11
BITMAP
78
F0
F0
F0
F0
70
70
70
ENDCHAR
STARTCHAR 201C
ENCODING 8220
SWIDTH 600 0
DWIDTH 15 0
BBX 13 8 2 11
BITMAP
0E38
1C38
1C70
38F0
79E0
79E0
79E0
F1E0
ENDCHAR
STARTCHAR 201D
ENCODING 8221
SWIDTH 600 0
DWIDTH 15 0
BBX 13 8 2 11
BITMAP
3C78
3C70
3CF0
3CF0
78E0
71E0
F1C0
E380
ENDCHAR
STARTCHAR 201E
ENCODING 8222
SWIDTH 600 0
DWIDTH 15 0
BBX 13 8 -1 -3
BITMAP
1E78
3C78
3C70
3CF0
38E0
71E0
71C0
E380
ENDCHAR
STARTCHAR 201F
ENCODING 8223
SWIDTH 600 0
DWIDTH 15 0
BBX 11 8 3 11
BITMAP
F1E0
F3C0
F3C0
F3C0
F3C0
F1C0
71C0
71C0
ENDCHAR
STARTCHAR 2020
ENCODING 8224
SWIDTH 600 0
DWIDTH 15 0
BBX 12 20 2 -2
BITMAP
0380
0780
0700
0700
7FF0
FFF0
FFF0
0E00
0E00
0E00
0E00
1E00
1C00
1C00
1C00
1C00
3C00
3800
3800
3800
ENDCHAR
STARTCHAR 2021
ENCODING 8225
SWIDTH 600 0
DWIDTH 15 0
BBX 13 20 1 -2
BITMAP
01C0
03C0
0380
0380
3FF8
7FF8
7FF8
0700
0700
0700
0F00
0E00
FFE0
FFE0
FFE0
0E00
1C00
1C00
1C00
1C00
ENDCHAR
STARTCHAR 2022
ENCODING 8226
SWIDTH 600 0
DWIDTH 15 0
BBX 9 9 3 5
BITMAP
1E00
7F00
7F00
FF80
FF80
FF80
7F00
7F00
1E00
ENDCHAR
STARTCHAR 2023
ENCODING 8227
SWIDTH 600 0
DWIDTH 15 0
BBX 10 11 3 4
BITMAP
8000
C000
F000
FC00
FF00
FFC0
FF00
FE00
F800
E000
8000
ENDCHAR
STARTCHAR 2024
ENCODING 8228
SWIDTH 600 0
DWIDTH 15 0
BBX 4 4 4 0
BITMAP
70
F0
F0
F0
ENDCHAR
STARTCHAR 2025
ENCODING 8229
SWIDTH 600 0
DWIDTH 15 0
BBX 10 4 1 0
BITMAP
79C0
73C0
F3C0
F3C0
ENDCHAR
STARTCHAR 2026
ENCODING 8230
SWIDTH 600 0
DWIDTH 15 0
BBX 14 4 -1 0
BITMAP
7BBC
F7BC
F7BC
F7BC
ENDCHAR
STARTCHAR 2027
ENCODING 8231
SWIDTH 600 0
DWIDTH 15 0
BBX 4 4 6 7
BITMAP
E0
E0
F0
E0
ENDCHAR
STARTCHAR 202F
ENCODING 8239
SWIDTH 600 0
DWIDTH 15 0
BBX 0 0 0 0
BITMAP
ENDCHAR
STARTCHAR 2030
ENCODING 8240
SWIDTH 600 0
DWIDTH 15 0
BBX 15 17 0 0
BITMAP
3800
7C00
C600
C600
C608
7C3C
39E0
0F00
3800
E000
3C38
7E7C
66C6
63C6
66C6
7E7C
3C38
ENDCHAR
STARTCHAR 2031
ENCODING 8241
SWIDTH 600 0
DWIDTH 15 0
BBX 15 17 0 0
BITMAP
3800
7C00
C600
C600
C608
7C3C
39E0
0F00
3800
E000
7BBC
7FFC
CE66
CC66
CEE6
7FFC
7BBC
ENDCHAR
STARTCHAR 2032
ENCODING 8242
SWIDTH 600 0
DWIDTH 15 0
BBX 7 4 7 14
BITMAP
1E
38
30
E0
ENDCHAR
STARTCHAR 2033
ENCODING 8243
SWIDTH 600 0
DWIDTH 15 0
BBX 11 4 5 14
BITMAP
1FE0
3980
7300
E600
ENDCHAR
STARTCHAR 2034
ENCODING 8244
SWIDTH 600 0
DWIDTH 15 0
BBX 15 4 3 14
BITMAP
3DEE
3B9C
6338
CE70
ENDCHAR
STARTCHAR 2035
ENCODING 8245
SWIDTH 600 0
DWIDTH 15 0
BBX 5 4 8 14
BITMAP
F0
70
30
18
ENDCHAR
STARTCHAR 2036
ENCODING 8246
SWIDTH 600 0
DWIDTH 15 0
BBX 9 4 6 14
BITMAP
F700
7300
3380
3980
ENDCHAR
STARTCHAR 2037
ENCODING 8247
SWIDTH 600 0
DWIDTH 15 0
BBX 14 4 4 14
BITMAP
EF70
7738
7398
319C
ENDCHAR
STARTCHAR 2039
ENCODING 8249
SWIDTH 600 0
DWIDTH 15 0
BBX 7 11 3 2
BITMAP
02
06
0E
3C
78
E0
E0
70
3C
18
08
ENDCHAR
STARTCHAR 203A
ENCODING 8250
SWIDTH 600 0
DWIDTH 15 0
BBX 7 11 4 2
BITMAP
20
30
38
1C
0E
06
0E
3C
70
60
80
ENDCHAR
STARTCHAR 203C
ENCODING 8252
SWIDTH 600 0
DWIDTH 15 0
BBX 13 18 2 0
BITMAP
1C78
3C78
3C78
3C70
3C70
3870
3870
3860
30E0
30E0
30E0
30C0
0000
0000
71C0
F1E0
F3E0
E1C0
ENDCHAR
STARTCHAR 203D
ENCODING 8253
SWIDTH 600 0
DWIDTH 15 0
BBX 10 18 4 0
BITMAP
1F00
FF80
FFC0
FFC0
BFC0
3BC0
3F80
3F00
3E00
7C00
7800
7000
7000
7000
6000
F000
F000
E000
ENDCHAR
STARTCHAR 203E
ENCODING 8254
SWIDTH 600 0
DWIDTH 15 0
BBX 15 3 0 17
BITMAP
FFFE
FFFE
FFFE
ENDCHAR
STARTCHAR 203F
ENCODING 8255
SWIDTH 600 0
DWIDTH 15 0
BBX 17 4 -1 -6
BITMAP
800080
F80F80
7FFF00
0FF800
ENDCHAR
STARTCHAR 2045
ENCODING 8261
SWIDTH 600 0
DWIDTH 15 0
BBX 10 23 3 -4
BITMAP
0FC0
0FC0
0FC0
1E00
1E00
1C00
1C00
1C00
3C00
3C00
3F00
3F00
3F00
3800
7800
7000
7000
7000
7000
F000
FC00
FC00
FC00
ENDCHAR
STARTCHAR 2046
ENCODING 8262
SWIDTH 600 0
DWIDTH 15 0
BBX 11 23 1 -4
BITMAP
07E0
0FE0
0FC0
01C0
01C0
01C0
03C0
0380
0380
0380
1F80
3F80
3F00
0700
0700
0700
0F00
0F00
0E00
0E00
7E00
7E00
FE00
ENDCHAR
STARTCHAR 2047
ENCODING 8263
SWIDTH 600 0
DWIDTH 15 0
BBX 15 18 1 0
BITMAP
1E1C
3F7E
7F7E
6F4E
4F8E
0E0E
1E1C
3C38
3878
7870
7070
70F0
70E0
0000
6060
F0F0
F0E0
E0E0
ENDCHAR
STARTCHAR 2048
ENCODING 8264
SWIDTH 600 0
DWIDTH 15 0
BBX 14 18 1 0
BITMAP
1E3C
7E38
7F38
4F38
8E38
0E78
1C70
3C70
3870
7070
7060
70E0
F000
0000
E0E0
F1E0
E1E0
E1C0
ENDCHAR
STARTCHAR 2049
ENCODING 8265
SWIDTH 600 0
DWIDTH 15 0
BBX 15 18 1 0
BITMAP
0E3C
1EFC
1EFE
1C9E
1D1C
1C1C
3C38
3C78
38F0
38E0
38E0
31E0
01C0
0000
70C0
71E0
F1E0
71C0
ENDCHAR
STARTCHAR 204B
ENCODING 8267
SWIDTH 600 0
DWIDTH 15 0
BBX 15 21 0 -3
BITMAP
0FF8
0FFC
0CFE
1CFE
1CFE
18FE
19FE
19FC
39F8
39F0
3180
3380
3380
7300
7300
6300
6300
6700
E600
E600
C600
ENDCHAR
STARTCHAR 205F
ENCODING 8287
SWIDTH 600 0
DWIDTH 15 0
BBX 0 0 0 0
BITMAP
ENDCHAR
STARTCHAR 2070
ENCODING 8304
SWIDTH 600 0
DWIDTH 15 0
BBX 9 10 4 14
BITMAP
1E00
3F00
7380
E380
FB80
CB00
C700
C700
FE00
7C00
ENDCHAR
STARTCHAR 2074
ENCODING 8308
SWIDTH 600 0
DWIDTH 15 0
BBX 9 10 3 14
BITMAP
0380
0780
0F00
1B00
3300
6700
7F80
FF80
0600
0600
ENDCHAR
STARTCHAR 2075
ENCODING 8309
SWIDTH 600 0
DWIDTH 15 0
BBX 10 10 3 14
BITMAP
1FC0
3F80
3000
3E00
7F80
0380
0380
0380
FF00
FC00
ENDCHAR
STARTCHAR 2076
ENCODING 8310
SWIDTH 600 0
DWIDTH 15 0
BBX 9 10 4 14
BITMAP
1F80
3F80
6000
FE00
FF00
E300
C300
C700
FE00
7C00
ENDCHAR
STARTCHAR 2077
ENCODING 8311
SWIDTH 600 0
DWIDTH 15 0
BBX 10 10 3 14
BITMAP
7FC0
7F80
0380
0700
0E00
0C00
1C00
3800
7000
E000
ENDCHAR
STARTCHAR 2078
ENCODING 8312
SWIDTH 600 0
DWIDTH 15 0
BBX 9 10 4 14
BITMAP
1F00
7F80
6180
7F00
7E00
C700
C300
C700
FE00
7C00
ENDCHAR
STARTCHAR 2079
ENCODING 8313
SWIDTH 600 0
DWIDTH 15 0
BBX 9 10 4 14
BITMAP
1E00
7F00
E380
E380
E380
7F00
3B00
0600
FE00
F800
ENDCHAR
STARTCHAR 207A
ENCODING 8314
SWIDTH 600 0
DWIDTH 15 0
BBX 9 8 3 9
BITMAP
0800
0800
0800
FF80
FF80
0800
0800
0800
ENDCHAR
STARTCHAR 207B
ENCODING 8315
SWIDTH 600 0
DWIDTH 15 0
BBX 9 2 3 12
BITMAP
FF80
FF80
ENDCHAR
STARTCHAR 207C
ENCODING 8316
SWIDTH 600 0
DWIDTH 15 0
BBX 9 5 3 11
BITMAP
FF80
FF80
0000
FF80
FF80
ENDCHAR
STARTCHAR 207D
ENCODING 8317
SWIDTH 600 0
DWIDTH 15 0
BBX 5 13 5 6
BITMAP
08
18
30
60
60
C0
C0
C0
C0
C0
C0
C0
60
ENDCHAR
STARTCHAR 207E
ENCODING 8318
SWIDTH 600 0
DWIDTH 15 0
BBX 5 13 5 6
BITMAP
30
18
18
18
18
18
18
18
38
30
70
60
C0
ENDCHAR
STARTCHAR 208A
ENCODING 8330
SWIDTH 600 0
DWIDTH 15 0
BBX 9 8 3 1
BITMAP
0800
0800
0800
FF80
FF80
0800
0800
0800
ENDCHAR
STARTCHAR 208B
ENCODING 8331
SWIDTH 600 0
DWIDTH 15 0
BBX 9 2 3 4
BITMAP
FF80
FF80
ENDCHAR
STARTCHAR 208C
ENCODING 8332
SWIDTH 600 0
DWIDTH 15 0
BBX 9 5 3 2
BITMAP
FF80
FF80
0000
FF80
FF80
ENDCHAR
STARTCHAR 208D
ENCODING 8333
SWIDTH 600 0
DWIDTH 15 0
BBX 5 13 5 -2
BITMAP
08
18
30
60
60
C0
C0
C0
C0
C0
C0
C0
60
ENDCHAR
STARTCHAR 208E
ENCODING 8334
SWIDTH 600 0
DWIDTH 15 0
BBX 5 13 5 -2
BITMAP
30
18
18
18
18
18
18
18
38
30
70
60
C0
ENDCHAR
STARTCHAR 20A0
ENCODING 8352
SWIDTH 600 0
DWIDTH 15 0
BBX 15 18 1 0
BITMAP
0F00
3F80
3F80
7080
60FE
E0FE
E0FE
C0C0
C0C0
E0FC
E1FC
FFFC
7FC0
3DC0
0180
01FC
01FC
01F8
ENDCHAR
STARTCHAR 20A1
ENCODING 8353
SWIDTH 600 0
DWIDTH 15 0
BBX 15 19 1 0
BITMAP
006E
03FC
0FFC
1FFC
3F9C
7DB4
7B30
7B60
F660
F6E0
F6C0
FCC0
FD80
F980
FB08
7F30
7FF0
7FF0
EFC0
ENDCHAR
STARTCHAR 20A2
ENCODING 8354
SWIDTH 600 0
DWIDTH 15 0
BBX 14 18 1 0
BITMAP
03F0
0FFC
1FFC
3E0C
3C00
79CC
79FC
F1FC
F3E4
F3C0
F380
F380
F380
FB90
7FF0
7FF0
3FF0
0FC0
ENDCHAR
STARTCHAR 20A3
ENCODING 8355
SWIDTH 600 0
DWIDTH 15 0
BBX 16 18 0 0
BITMAP
0FFF
0FFE
0FFE
1FFE
1F00
1F00
1E00
1FFC
1FFC
3FFC
3FF8
3C00
FF00
FE00
FE00
7C00
7C00
7800
ENDCHAR
STARTCHAR 20A4
ENCODING 8356
SWIDTH 600 0
DWIDTH 15 0
BBX 15 18 0 0
BITMAP
00FE
03FE
03FE
07C2
0780
0F00
3FF0
3FF0
7FF0
0F00
7FF0
7FE0
7FE0
1E00
1E00
FFF8
FFF0
FFF0
ENDCHAR
STARTCHAR 20A5
ENCODING 8357
SWIDTH 600 0
DWIDTH 15 0
BBX 15 18 0 -2
BITMAP
0010
0030
773C
7FFC
7FFE
73CE
738E
738E
638C
E39C
E39C
E39C
E31C
E71C
E71C
EF1C
0800
1800
ENDCHAR
STARTCHAR 20A6
ENCODING 8358
SWIDTH 600 0
DWIDTH 15 0
BBX 17 18 -1 0
BITMAP
1F8F80
1F8F80
1F8F80
1F8F00
1F8F00
3FFF80
3FFF80
7FFF00
3DDE00
3DDE00
7FFF00
FFFF00
FFFE00
78FC00
78FC00
78FC00
F8FC00
F8FC00
ENDCHAR
STARTCHAR 20A7
ENCODING 8359
SWIDTH 600 0
DWIDTH 15 0
BBX 16 18 0 0
BITMAP
3E00
7E60
7FE0
63C0
63FF
63FF
63FF
67D9
7ED8
7EDC
7CDE
60CF
E0C7
E1C3
C1E3
C1FF
C0FE
C0FC
ENDCHAR
STARTCHAR 20A8
ENCODING 8360
SWIDTH 600 0
DWIDTH 15 0
BBX 15 18 0 0
BITMAP
3F00
3F00
3F80
7380
73BC
73FE
73FE
7362
7FE0
7EF0
7E7C
677C
671E
E70E
E38C
E3FC
E3FC
E3F8
ENDCHAR
STARTCHAR 20A9
ENCODING 8361
SWIDTH 600 0
DWIDTH 15 0
BBX 17 18 0 0
BITMAP
71C380
71C300
7FFF80
FFFF00
73C600
73C600
FFFF00
FFFF00
764C00
766C00
767C00
767C00
7C7800
3C7800
3C7800
3C7800
387000
387000
ENDCHAR
STARTCHAR 20AA
ENCODING 8362
SWIDTH 600 0
DWIDTH 15 0
BBX 17 18 -1 0
BITMAP
1FC380
1FE380
1FF380
1C3380
1C3380
183300
3BB700
3B3700
3B3700
3B7700
3B6700
336E00
730E00
730E00
730E00
73FE00
73FC00
E1FC00
ENDCHAR
STARTCHAR 20AB
ENCODING 8363
SWIDTH 600 0
DWIDTH 15 0
BBX 16 24 5 -5
BITMAP
001C
003C
03FF
03FE
0038
0F38
3FF8
7FF8
78F8
F0F0
F0F0
E0F0
E0F0
E0F0
E1E0
F1E0
FFE0
FFE0
79E0
0000
0000
FF00
FF00
FE00
ENDCHAR
STARTCHAR 20AC
ENCODING 8364
SWIDTH 600 0
DWIDTH 15 0
BBX 15 18 0 0
BITMAP
00FC
03FE
07FE
0F84
1E00
7FF0
7FE0
FFE0
3C00
FFC0
FF80
FF80
3C00
3C08
3E10
1FF0
0FF0
07E0
ENDCHAR
STARTCHAR 20AD
ENCODING 8365
SWIDTH 600 0
DWIDTH 15 0
BBX 16 18 0 0
BITMAP
1E1F
1C3C
1C78
3CF0
3DE0
3FC0
3F80
7FF8
FFF0
7F00
7F80
7FC0
73C0
73E0
71E0
F1F0
F0F0
F078
ENDCHAR
STARTCHAR 20AE
ENCODING 8366
SWIDTH 600 0
DWIDTH 15 0
BBX 14 18 2 0
BITMAP
7FFC
FFF8
FFF8
0700
0F00
0F00
0FC0
0F00
0E00
1E80
3F00
1E00
1E00
7E00
1C00
3C00
3C00
3C00
ENDCHAR
STARTCHAR 20AF
ENCODING 8367
SWIDTH 600 0
DWIDTH 15 0
BBX 16 23 0 -5
BITMAP
0780
0FC0
1EC0
1660
0660
0460
0C60
0C60
0C66
086F
186F
18DB
78D9
F0DB
F993
BF9A
FF3E
6E3C
0020
0020
0060
0060
0040
ENDCHAR
STARTCHAR 20B0
ENCODING 8368
SWIDTH 600 0
DWIDTH 15 0
BBX 16 18 0 0
BITMAP
003C
007E
00EF
00EF
01CE
01CE
01EE
1CFC
7E78
FFFC
67FC
23DE
001E
001C
003C
00F8
00F0
01E0
ENDCHAR
STARTCHAR 20B1
ENCODING 8369
SWIDTH 600 0
DWIDTH 15 0
BBX 16 18 0 0
BITMAP
0FF0
1FFC
1FFC
1E1E
3FFF
1C1E
7FFE
3C3C
3FFC
3FF8
3FE0
7800
7800
7800
7000
7000
F000
F000
ENDCHAR
STARTCHAR 20B2
ENCODING 8370
SWIDTH 600 0
DWIDTH 15 0
BBX 14 22 1 -1
BITMAP
00C0
00C0
01C0
07F0
1FFC
1FFC
3D8C
7980
7180
7180
F180
E378
E378
E378
E338
E338
F630
FE70
7FF0
3FF0
0F80
0E00
ENDCHAR
STARTCHAR 20B3
ENCODING 8371
SWIDTH 600 0
DWIDTH 15 0
BBX 16 18 -1 0
BITMAP
00F0
01F0
01F0
03F0
03F0
07F8
0778
3FFF
3FFE
5E38
1E38
7FFE
7FFE
7FFE
783C
703C
F03C
E01C
ENDCHAR
STARTCHAR 20B4
ENCODING 8372
SWIDTH 600 0
DWIDTH 15 0
BBX 17 18 -1 0
BITMAP
01FC00
07FE00
07FE00
080E00
3FFF80
3FFF80
7FFF00
03FC00
0FF000
1FC000
7FFF00
FFFF00
FFFE00
380400
3C1800
3FF800
3FF800
0FE000
ENDCHAR
STARTCHAR 20B5
ENCODING 8373
SWIDTH 600 0
DWIDTH 15 0
BBX 16 22 0 -3
BITMAP
0018
0018
0078
03FF
0FFF
1FFF
3F32
3E60
7C60
7C60
7860
7860
F8C0
FCC0
7CC4
7EDC
3FF8
1FF8
07F0
0180
0180
0380
ENDCHAR
STARTCHAR 20B7
ENCODING 8375
SWIDTH 600 0
DWIDTH 15 0
BBX 15 21 0 -3
BITMAP
01FC
07FE
0FFE
0F06
1E00
1E00
1E00
1F80
0FE0
07F8
01F8
007C
7B3C
6DBC
6D3C
7978
7FF8
7FF0
DF80
DB00
DA00
ENDCHAR
STARTCHAR 20B8
ENCODING 8376
SWIDTH 600 0
DWIDTH 15 0
BBX 15 18 1 0
BITMAP
3FFE
3FFC
7FFC
0000
7FFC
7FFC
FFF8
0700
0700
0F00
0F00
0F00
0F00
0E00
0E00
1E00
1E00
1E00
ENDCHAR
STARTCHAR 20B9
ENCODING 8377
SWIDTH 600 0
DWIDTH 15 0
BBX 15 18 1 0
BITMAP
1FFE
3FFC
3FF8
3FFC
3FF8
7FF8
03C0
07C0
7F80
7C00
FE00
0F00
0F00
0F00
0780
0780
0780
03C0
ENDCHAR
STARTCHAR 2116
ENCODING 8470
SWIDTH 600 0
DWIDTH 15 0
BBX 17 18 -1 0
BITMAP
1CE700
1CCF80
1CCF80
1CDD80
3DD980
3DD980
3D9980
3D9B00
3D9F00
7F9E00
7F8C00
7F0000
6F3E00
6F7E00
EF0000
EF0000
EF0000
CE0000
ENDCHAR
STARTCHAR 2122
ENCODING 8482
SWIDTH 600 0
DWIDTH 15 0
BBX 14 7 0 11
BITMAP
FB9C
FBDC
33FC
336C
336C
330C
330C
ENDCHAR
STARTCHAR 2126
ENCODING 8486
SWIDTH 600 0
DWIDTH 15 0
BBX 15 18 -1 0
BITMAP
00F8
03FC
07FE
0F1E
0E1E
1E1E
1C1E
3C1E
3C1E
3C1E
3C1C
3C3C
3C38
1C78
1EF0
7EFC
7CFC
FDF8
ENDCHAR
STARTCHAR 2150
ENCODING 8528
SWIDTH 600 0
DWIDTH 15 0
BBX 14 23 0 -3
BITMAP
3F00
3E00
0600
0600
0E00
0E00
0C00
0C00
7F80
FF84
007C
07E0
7E00
63FC
03FC
0018
0038
0070
0060
00E0
01C0
0380
0700
ENDCHAR
STARTCHAR 2151
ENCODING 8529
SWIDTH 600 0
DWIDTH 15 0
BBX 14 24 0 -4
BITMAP
3F00
3E00
0600
0600
0E00
0E00
0C00
0C00
7F80
FF84
007C
07E0
7E00
70F8
01FC
038C
030C
039C
03FC
01FC
001C
0438
07F0
03C0
ENDCHAR
STARTCHAR 2153
ENCODING 8531
SWIDTH 600 0
DWIDTH 15 0
BBX 14 24 0 -3
BITMAP
0700
3E00
3600
0600
0E00
0E00
0C00
0C00
0C00
7F80
FF0C
01F8
1F80
70F8
01FC
010C
000C
00F8
00F8
001C
001C
041C
07F8
07F0
ENDCHAR
STARTCHAR 2154
ENCODING 8532
SWIDTH 600 0
DWIDTH 15 0
BBX 14 24 0 -3
BITMAP
1F00
3F80
2180
0180
0300
0700
0C00
3800
7000
FF00
FF0C
01FC
1F80
70F8
01FC
010C
000C
00F8
00F8
001C
001C
041C
07F8
07F0
ENDCHAR
STARTCHAR 2155
ENCODING 8533
SWIDTH 600 0
DWIDTH 15 0
BBX 14 24 0 -3
BITMAP
0700
3E00
3600
0600
0E00
0E00
0C00
0C00
0C00
7F80
FF0C
00FC
0FC0
7C00
41FC
01FC
0180
01F0
03F8
001C
001C
0038
07F8
07E0
ENDCHAR
STARTCHAR 2156
ENCODING 8534
SWIDTH 600 0
DWIDTH 15 0
BBX 14 24 0 -3
BITMAP
1F00
3F80
2180
0180
0300
0700
0C00
3800
7000
FF00
FF0C
00FC
0FC0
7C00
41FC
01FC
0180
01F0
03F8
001C
001C
0038
07F8
07E0
ENDCHAR
STARTCHAR 2157
ENCODING 8535
SWIDTH 600 0
DWIDTH 15 0
BBX 13 24 1 -3
BITMAP
3F00
3F80
4380
0380
1F00
1E00
0300
0300
8700
FE00
FC38
03F8
1F80
F800
83F8
03F8
0300
03E0
07F0
0038
0038
0070
0FF0
0FC0
ENDCHAR
STARTCHAR 2158
ENCODING 8536
SWIDTH 600 0
DWIDTH 15 0
BBX 13 24 1 -4
BITMAP
0700
0F00
1F00
3600
6600
C600
FF00
FF00
0C00
0C08
00F8
0FC0
FC00
C3F8
03F8
0300
0300
07E0
07F0
0038
0038
0070
0FE0
0F80
ENDCHAR
STARTCHAR 2159
ENCODING 8537
SWIDTH 600 0
DWIDTH 15 0
BBX 14 24 0 -3
BITMAP
0700
3E00
3600
0600
0E00
0E00
0C00
0C00
0C00
7F80
FF0C
01F8
1F80
783C
00FC
01C4
0380
0378
07F8
071C
071C
071C
03F8
01E0
ENDCHAR
STARTCHAR 215A
ENCODING 8538
SWIDTH 600 0
DWIDTH 15 0
BBX 14 24 0 -3
BITMAP
1FC0
1FC0
3800
3000
3F00
3F80
0380
0180
8380
FF00
7C1C
01F8
3F80
703C
00FC
01C4
0380
0378
07F8
071C
071C
071C
03F8
01E0
ENDCHAR
STARTCHAR 215B
ENCODING 8539
SWIDTH 600 0
DWIDTH 15 0
BBX 14 24 0 -3
BITMAP
0700
3E00
3600
0600
0E00
0E00
0C00
0C00
0C00
7F80
FF0C
01F8
1F80
7878
01FC
018C
018C
01F8
01F8
0318
061C
0718
07F8
01F0
ENDCHAR
STARTCHAR 215C
ENCODING 8540
SWIDTH 600 0
DWIDTH 15 0
BBX 13 24 1 -3
BITMAP
3F00
3F80
4380
0380
1F00
1E00
0300
0300
8700
FE00
FC38
03F0
3F00
F0F0
03F8
0318
0318
03F0
03F0
0630
0C38
0E30
0FF0
03E0
ENDCHAR
STARTCHAR 215D
ENCODING 8541
SWIDTH 600 0
DWIDTH 15 0
BBX 14 24 0 -3
BITMAP
1FC0
1FC0
3800
3000
3F00
3F80
0380
0180
8380
FF00
7C1C
01F8
1F80
7878
01FC
018C
018C
01F8
01F8
0318
061C
0718
07F8
01F0
ENDCHAR
STARTCHAR 215E
ENCODING 8542
SWIDTH 600 0
DWIDTH 15 0
BBX 14 24 0 -3
BITMAP
7FC0
7F80
0380
0700
0E00
0C00
1C00
3800
7000
E000
003C
03F0
3F00
7078
01FC
018C
018C
01F8
01F8
0318
061C
0718
07F8
01F0
ENDCHAR
STARTCHAR 215F
ENCODING 8543
SWIDTH 600 0
DWIDTH 15 0
BBX 14 14 0 6
BITMAP
3F00
3E00
0600
0600
0E00
0E00
0C00
0C00
7F80
FF84
007C
07E0
7E00
6000
ENDCHAR
STARTCHAR 2189
ENCODING 8585
SWIDTH 600 0
DWIDTH 15 0
BBX 13 24 1 -3
BITMAP
1E00
3F00
7380
E380
FB80
DB00
C700
C700
CE00
FC00
7838
03F0
7F00
E1F0
03F8
0218
0018
01F0
01F0
0038
0038
0838
0FF0
0FE0
ENDCHAR
STARTCHAR 2190
ENCODING 8592
SWIDTH 600 0
DWIDTH 15 0
BBX 13 9 1 2
BITMAP
1000
3800
7000
FFF8
FFF8
FFF8
7000
3800
1000
ENDCHAR
STARTCHAR 2191
ENCODING 8593
SWIDTH 600 0
DWIDTH 15 0
BBX 9 14 3 0
BITMAP
1C00
3E00
7F00
FF80
5D00
1C00
1C00
1C00
1C00
1C00
1C00
1C00
1C00
1C00
ENDCHAR
STARTCHAR 2192
ENCODING 8594
SWIDTH 600 0
DWIDTH 15 0
BBX 13 9 1 2
BITMAP
0040
00E0
0070
FFF8
FFF8
FFF8
0070
00E0
0040
ENDCHAR
STARTCHAR 2193
ENCODING 8595
SWIDTH 600 0
DWIDTH 15 0
BBX 9 14 3 0
BITMAP
1C00
1C00
1C00
1C00
1C00
1C00
1C00
1C00
1C00
5D00
FF80
7F00
3E00
1C00
ENDCHAR
STARTCHAR 2194
ENCODING 8596
SWIDTH 600 0
DWIDTH 15 0
BBX 13 9 1 2
BITMAP
1040
38E0
7070
FFF8
FFF8
FFF8
7070
38E0
1040
ENDCHAR
STARTCHAR 2195
ENCODING 8597
SWIDTH 600 0
DWIDTH 15 0
BBX 9 14 3 0
BITMAP
1C00
3E00
7F00
FF80
5D00
1C00
1C00
1C00
1C00
5D00
FF80
7F00
3E00
1C00
ENDCHAR
STARTCHAR 2196
ENCODING 8598
SWIDTH 600 0
DWIDTH 15 0
BBX 11 12 2 0
BITMAP
7C00
FC00
FC00
F800
FC00
DE00
CF00
0780
03C0
01E0
00C0
0040
ENDCHAR
STARTCHAR 2197
ENCODING 8599
SWIDTH 600 0
DWIDTH 15 0
BBX 11 12 2 0
BITMAP
07C0
07E0
07E0
03E0
07E0
0F60
1E60
3C00
7800
F000
6000
4000
ENDCHAR
STARTCHAR 2198
ENCODING 8600
SWIDTH 600 0
DWIDTH 15 0
BBX 11 11 2 0
BITMAP
6000
F000
7800
3C00
1E60
0F60
07E0
03E0
01E0
07E0
07C0
ENDCHAR
STARTCHAR 2199
ENCODING 8601
SWIDTH 600 0
DWIDTH 15 0
BBX 11 11 2 0
BITMAP
00C0
01E0
03C0
0780
CF00
DE00
FC00
F800
F000
FC00
7C00
ENDCHAR
STARTCHAR 219A
ENCODING 8602
SWIDTH 600 0
DWIDTH 15 0
BBX 13 9 1 2
BITMAP
1020
3870
70F0
FFF8
FFF8
FFF8
73C0
3B80
1100
ENDCHAR
STARTCHAR 219B
ENCODING 8603
SWIDTH 600 0
DWIDTH 15 0
BBX 13 9 1 2
BITMAP
0440
0EE0
0E70
FFF8
FFF8
FFF8
7870
70E0
2040
ENDCHAR
STARTCHAR 219C
ENCODING 8604
SWIDTH 600 0
DWIDTH 15 0
BBX 13 7 1 5
BITMAP
7C60
FDF0
FDF8
F398
FF00
DF00
CE00
ENDCHAR
STARTCHAR 219D
ENCODING 8605
SWIDTH 600 0
DWIDTH 15 0
BBX 13 7 1 5
BITMAP
31F0
7DF8
FC78
CE78
07F8
07D8
0398
ENDCHAR
STARTCHAR 219E
ENCODING 8606
SWIDTH 600 0
DWIDTH 15 0
BBX 13 9 1 2
BITMAP
1100
3B80
7700
FFF8
FFF8
FFF8
7700
3B80
1100
ENDCHAR
STARTCHAR 219F
ENCODING 8607
SWIDTH 600 0
DWIDTH 15 0
BBX 9 14 3 0
BITMAP
1C00
3E00
7F00
FF80
5D00
3E00
7F00
FF80
7D00
1C00
1C00
1C00
1C00
1C00
ENDCHAR
STARTCHAR 21A0
ENCODING 8608
SWIDTH 600 0
DWIDTH 15 0
BBX 13 9 1 2
BITMAP
0440
0EE0
0770
FFF8
FFF8
FFF8
0770
0EE0
0440
ENDCHAR
STARTCHAR 21A1
ENCODING 8609
SWIDTH 600 0
DWIDTH 15 0
BBX 9 14 3 0
BITMAP
1C00
1C00
1C00
1C00
1C00
5D00
FF80
7F00
3E00
5D00
FF80
7F00
3E00
1C00
ENDCHAR
STARTCHAR 21A2
ENCODING 8610
SWIDTH 600 0
DWIDTH 15 0
BBX 13 9 1 2
BITMAP
1010
3838
7070
FFE0
FFC0
FFE0
7070
3838
1010
ENDCHAR
STARTCHAR 21A3
ENCODING 8611
SWIDTH 600 0
DWIDTH 15 0
BBX 13 9 1 2
BITMAP
4040
E0E0
7070
3FF8
1FF8
3FF8
7070
E0E0
4040
ENDCHAR
STARTCHAR 21A4
ENCODING 8612
SWIDTH 600 0
DWIDTH 15 0
BBX 13 9 1 2
BITMAP
1018
3818
7018
FFF8
FFF8
FFF8
7018
3818
1018
ENDCHAR
STARTCHAR 21A5
ENCODING 8613
SWIDTH 600 0
DWIDTH 15 0
BBX 9 14 3 0
BITMAP
1C00
3E00
7F00
FF80
5D00
1C00
1C00
1C00
1C00
1C00
1C00
1C00
FF80
FF80
ENDCHAR
STARTCHAR 21A6
ENCODING 8614
SWIDTH 600 0
DWIDTH 15 0
BBX 13 9 1 2
BITMAP
C040
C0E0
C070
FFF8
FFF8
FFF8
C070
C0E0
C040
ENDCHAR
STARTCHAR 21A7
ENCODING 8615
SWIDTH 600 0
DWIDTH 15 0
BBX 9 14 3 0
BITMAP
FF80
FF80
FF80
1C00
1C00
1C00
1C00
1C00
1C00
5D00
FF80
7F00
3E00
1C00
ENDCHAR
STARTCHAR 21A8
ENCODING 8616
SWIDTH 600 0
DWIDTH 15 0
BBX 9 14 3 0
BITMAP
1C00
3E00
7F00
FF80
5D00
1C00
5D00
FF80
7F00
3E00
1C00
0C00
FF80
FF80
ENDCHAR
STARTCHAR 21A9
ENCODING 8617
SWIDTH 600 0
DWIDTH 15 0
BBX 13 10 1 2
BITMAP
0020
0038
3838
7018
FFF8
FFF8
FFE0
7000
3800
1000
ENDCHAR
STARTCHAR 21AA
ENCODING 8618
SWIDTH 600 0
DWIDTH 15 0
BBX 13 10 1 2
BITMAP
2000
E000
E0E0
E070
FFF8
FFF8
3FF8
0070
00E0
0040
ENDCHAR
STARTCHAR 21AB
ENCODING 8619
SWIDTH 600 0
DWIDTH 15 0
BBX 13 10 1 2
BITMAP
00E0
01F8
3BF8
73B8
FFF8
FFF8
FFF0
7380
3B80
1000
ENDCHAR
STARTCHAR 21AC
ENCODING 8620
SWIDTH 600 0
DWIDTH 15 0
BBX 13 10 1 2
BITMAP
3800
FC00
FEE0
EE70
FFF8
FFF8
3FF8
0E70
0EE0
0040
ENDCHAR
STARTCHAR 21AD
ENCODING 8621
SWIDTH 600 0
DWIDTH 15 0
BBX 13 9 1 2
BITMAP
1040
3AF0
E738
FFF8
FDF8
F8F8
7070
38E0
1040
ENDCHAR
STARTCHAR 21AE
ENCODING 8622
SWIDTH 600 0
DWIDTH 15 0
BBX 13 9 1 2
BITMAP
1340
3BE0
7370
FFF8
FFF8
FFF8
7670
3EE0
1640
ENDCHAR
STARTCHAR 21AF
ENCODING 8623
SWIDTH 600 0
DWIDTH 15 0
BBX 13 18 1 0
BITMAP
4000
3000
7010
7070
70F0
73F0
6FE0
FEE0
F8E0
F0E0
C0E0
80E0
04C0
0FD0
07F8
03F8
03E0
01C0
ENDCHAR
STARTCHAR 21B0
ENCODING 8624
SWIDTH 600 0
DWIDTH 15 0
BBX 11 17 2 0
BITMAP
1000
3800
7000
FFE0
FFE0
FFE0
70E0
38E0
10E0
00E0
00E0
00E0
00E0
00E0
00E0
00E0
00E0
ENDCHAR
STARTCHAR 21B1
ENCODING 8625
SWIDTH 600 0
DWIDTH 15 0
BBX 11 17 2 0
BITMAP
0100
0380
01C0
FFE0
FFE0
FFE0
E1C0
E380
E100
E000
E000
E000
E000
E000
E000
E000
E000
ENDCHAR
STARTCHAR 21B2
ENCODING 8626
SWIDTH 600 0
DWIDTH 15 0
BBX 11 17 2 0
BITMAP
00E0
00E0
00E0
00E0
00E0
00E0
00E0
00E0
10E0
38E0
70E0
FFE0
FFE0
FFE0
7000
3800
1000
ENDCHAR
STARTCHAR 21B3
ENCODING 8627
SWIDTH 600 0
DWIDTH 15 0
BBX 11 17 2 0
BITMAP
E000
E000
E000
E000
E000
E000
E000
E000
E100
E380
E1C0
FFE0
FFE0
FFE0
01C0
0380
0100
ENDCHAR
STARTCHAR 21B4
ENCODING 8628
SWIDTH 600 0
DWIDTH 15 0
BBX 11 14 2 0
BITMAP
FF00
FF00
FF00
0700
0700
0700
0700
0700
0700
1740
3FE0
1FC0
0F80
0700
ENDCHAR
STARTCHAR 21B5
ENCODING 8629
SWIDTH 600 0
DWIDTH 15 0
BBX 14 11 1 0
BITMAP
001C
001C
101C
381C
701C
FFFC
FFFC
FFFC
7000
3800
1000
ENDCHAR
STARTCHAR 21B6
ENCODING 8630
SWIDTH 600 0
DWIDTH 15 0
BBX 13 9 1 4
BITMAP
03C0
07F0
0FF0
1E38
DF38
FF18
7E00
3C00
1800
ENDCHAR
STARTCHAR 21B7
ENCODING 8631
SWIDTH 600 0
DWIDTH 15 0
BBX 13 9 1 4
BITMAP
1E00
7F00
7F80
E3C0
E7D8
C7F8
03F0
01E0
00C0
ENDCHAR
STARTCHAR 21B8
ENCODING 8632
SWIDTH 600 0
DWIDTH 15 0
BBX 13 14 1 0
BITMAP
FFF8
FFF8
3E00
7E00
7E00
7C00
7E00
6F00
6700
0380
01C0
00E0
0070
0020
ENDCHAR
STARTCHAR 21B9
ENCODING 8633
SWIDTH 600 0
DWIDTH 15 0
BBX 13 16 1 0
BITMAP
C400
CE00
DC00
FFF8
FFF8
FFF8
DC00
CF18
C798
01D8
FFF8
FFF8
FFF8
01D8
0398
0118
ENDCHAR
STARTCHAR 21BA
ENCODING 8634
SWIDTH 600 0
DWIDTH 15 0
BBX 13 14 1 0
BITMAP
00F8
01F8
01F8
61F0
F1F0
E1B0
E1B8
E038
E038
E070
F0F0
7FE0
3FC0
0F80
ENDCHAR
STARTCHAR 21BB
ENCODING 8635
SWIDTH 600 0
DWIDTH 15 0
BBX 13 14 1 0
BITMAP
F800
FC00
FC00
7C10
7C78
7C38
EC38
E038
E038
7038
7878
3FF0
1FE0
0F80
ENDCHAR
STARTCHAR 21BC
ENCODING 8636
SWIDTH 600 0
DWIDTH 15 0
BBX 13 6 1 5
BITMAP
1000
3800
7000
FFF8
FFF8
FFF8
ENDCHAR
STARTCHAR 21BD
ENCODING 8637
SWIDTH 600 0
DWIDTH 15 0
BBX 13 6 1 2
BITMAP
FFF8
FFF8
FFF8
7000
3800
1000
ENDCHAR
STARTCHAR 21BE
ENCODING 8638
SWIDTH 600 0
DWIDTH 15 0
BBX 6 14 6 0
BITMAP
E0
F0
F8
FC
E8
E0
E0
E0
E0
E0
E0
E0
E0
E0
ENDCHAR
STARTCHAR 21BF
ENCODING 8639
SWIDTH 600 0
DWIDTH 15 0
BBX 6 14 3 0
BITMAP
1C
3C
7C
FC
5C
1C
1C
1C
1C
1C
1C
1C
1C
1C
ENDCHAR
STARTCHAR 21C0
ENCODING 8640
SWIDTH 600 0
DWIDTH 15 0
BBX 13 6 1 5
BITMAP
0040
00E0
0070
FFF8
FFF8
FFF8
ENDCHAR
STARTCHAR 21C1
ENCODING 8641
SWIDTH 600 0
DWIDTH 15 0
BBX 13 6 1 2
BITMAP
FFF8
FFF8
FFF8
0070
00E0
0040
ENDCHAR
STARTCHAR 21C2
ENCODING 8642
SWIDTH 600 0
DWIDTH 15 0
BBX 6 14 6 0
BITMAP
E0
E0
E0
E0
E0
E0
E0
E0
E0
E8
FC
F8
F0
E0
ENDCHAR
STARTCHAR 21C3
ENCODING 8643
SWIDTH 600 0
DWIDTH 15 0
BBX 6 14 3 0
BITMAP
1C
1C
1C
1C
1C
1C
1C
1C
1C
5C
FC
7C
3C
1C
ENDCHAR
STARTCHAR 21C4
ENCODING 8644
SWIDTH 600 0
DWIDTH 15 0
BBX 13 15 1 0
BITMAP
0040
00E0
0070
FFF8
FFF8
FFF8
1070
38E0
7040
FFF8
FFF8
FFF8
7000
3800
1000
ENDCHAR
STARTCHAR 21C5
ENCODING 8645
SWIDTH 600 0
DWIDTH 15 0
BBX 15 14 0 0
BITMAP
1C70
3E70
7F70
FFF0
5D70
1C70
1C70
1C70
1C70
1D74
1FFE
1DFC
1CF8
1C70
ENDCHAR
STARTCHAR 21C6
ENCODING 8646
SWIDTH 600 0
DWIDTH 15 0
BBX 13 15 1 0
BITMAP
1000
3800
7000
FFF8
FFF8
FFF8
7040
38E0
1070
FFF8
FFF8
FFF8
0070
00E0
0040
ENDCHAR
STARTCHAR 21C7
ENCODING 8647
SWIDTH 600 0
DWIDTH 15 0
BBX 13 15 1 0
BITMAP
1000
3800
7000
FFF8
FFF8
FFF8
7000
3800
7000
FFF8
FFF8
FFF8
7000
3800
1000
ENDCHAR
STARTCHAR 21C8
ENCODING 8648
SWIDTH 600 0
DWIDTH 15 0
BBX 15 14 0 0
BITMAP
1C70
3EF8
7FFC
FFFE
5D74
1C70
1C70
1C70
1C70
1C70
1C70
1C70
1C70
1C70
ENDCHAR
STARTCHAR 21C9
ENCODING 8649
SWIDTH 600 0
DWIDTH 15 0
BBX 13 15 1 0
BITMAP
0040
00E0
0070
FFF8
FFF8
FFF8
0070
00E0
0070
FFF8
FFF8
FFF8
0070
00E0
0040
ENDCHAR
STARTCHAR 21CA
ENCODING 8650
SWIDTH 600 0
DWIDTH 15 0
BBX 15 14 0 0
BITMAP
1C70
1C70
1C70
1C70
1C70
1C70
1C70
1C70
1C70
5D74
FFFE
7FFC
3EF8
1C70
ENDCHAR
STARTCHAR 21CB
ENCODING 8651
SWIDTH 600 0
DWIDTH 15 0
BBX 13 15 1 0
BITMAP
1000
3800
7000
FFF8
FFF8
FFF8
0000
0000
0000
FFF8
FFF8
FFF8
0070
00E0
0040
ENDCHAR
STARTCHAR 21CC
ENCODING 8652
SWIDTH 600 0
DWIDTH 15 0
BBX 13 15 1 0
BITMAP
0040
00E0
0070
FFF8
FFF8
FFF8
0000
0000
0000
FFF8
FFF8
FFF8
7000
3800
1000
ENDCHAR
STARTCHAR 21CD
ENCODING 8653
SWIDTH 600 0
DWIDTH 15 0
BBX 13 8 1 3
BITMAP
1040
3860
7FF8
C080
C180
FFF8
7300
3A00
ENDCHAR
STARTCHAR 21CE
ENCODING 8654
SWIDTH 600 0
DWIDTH 15 0
BBX 13 9 1 2
BITMAP
1240
3AE0
7FF0
C218
C218
FFF8
7270
3AE0
1240
ENDCHAR
STARTCHAR 21CF
ENCODING 8655
SWIDTH 600 0
DWIDTH 15 0
BBX 13 8 1 3
BITMAP
0240
06F0
FFF8
0C18
0818
FFF8
1070
30E0
ENDCHAR
STARTCHAR 21D0
ENCODING 8656
SWIDTH 600 0
DWIDTH 15 0
BBX 13 8 1 3
BITMAP
1000
3800
7FF8
C000
C000
FFF8
7000
3800
ENDCHAR
STARTCHAR 21D1
ENCODING 8657
SWIDTH 600 0
DWIDTH 15 0
BBX 9 14 3 0
BITMAP
1C00
3E00
7700
F780
7700
3600
3600
3600
3600
3600
3600
3600
3600
3600
ENDCHAR
STARTCHAR 21D2
ENCODING 8658
SWIDTH 600 0
DWIDTH 15 0
BBX 13 8 1 3
BITMAP
0040
00F0
FFF8
0018
0018
FFF8
0070
00E0
ENDCHAR
STARTCHAR 21D3
ENCODING 8659
SWIDTH 600 0
DWIDTH 15 0
BBX 9 14 3 0
BITMAP
3600
3600
3600
3600
3600
3600
3600
3600
3600
7700
F780
7700
3E00
1C00
ENDCHAR
STARTCHAR 21D4
ENCODING 8660
SWIDTH 600 0
DWIDTH 15 0
BBX 13 8 1 3
BITMAP
1040
38F0
7FF8
C018
C018
FFF8
7070
38E0
ENDCHAR
STARTCHAR 21D5
ENCODING 8661
SWIDTH 600 0
DWIDTH 15 0
BBX 9 14 3 0
BITMAP
1C00
3E00
7700
F780
7700
3600
3600
3600
3600
7700
F780
7700
3E00
1C00
ENDCHAR
STARTCHAR 21D6
ENCODING 8662
SWIDTH 600 0
DWIDTH 15 0
BBX 11 12 2 0
BITMAP
7C00
FC00
FC00
D800
CC00
E600
D300
0980
04C0
0220
0100
0080
ENDCHAR
STARTCHAR 21D7
ENCODING 8663
SWIDTH 600 0
DWIDTH 15 0
BBX 12 12 2 0
BITMAP
07C0
07E0
07F0
0370
0670
0CF0
1970
3200
6400
C800
1000
2000
ENDCHAR
STARTCHAR 21D8
ENCODING 8664
SWIDTH 600 0
DWIDTH 15 0
BBX 12 12 2 0
BITMAP
2000
3000
9800
CC00
6600
3370
19F0
0CF0
0670
0370
07F0
07E0
ENDCHAR
STARTCHAR 21D9
ENCODING 8665
SWIDTH 600 0
DWIDTH 15 0
BBX 11 12 2 0
BITMAP
0080
0180
0320
0660
0CC0
D980
F300
E600
CC00
D800
FC00
FC00
ENDCHAR
STARTCHAR 21DA
ENCODING 8666
SWIDTH 600 0
DWIDTH 15 0
BBX 13 9 1 2
BITMAP
1000
3FF8
6000
E000
FFF8
E000
7FF8
3800
1000
ENDCHAR
STARTCHAR 21DB
ENCODING 8667
SWIDTH 600 0
DWIDTH 15 0
BBX 13 9 1 2
BITMAP
0060
FFE0
0030
0038
FFF8
0038
FFF0
0060
0040
ENDCHAR
STARTCHAR 21DC
ENCODING 8668
SWIDTH 600 0
DWIDTH 15 0
BBX 13 9 1 2
BITMAP
1000
3800
7080
FDC8
FFF8
FF78
7630
3A20
1000
ENDCHAR
STARTCHAR 21DD
ENCODING 8669
SWIDTH 600 0
DWIDTH 15 0
BBX 13 9 1 2
BITMAP
0040
00E0
0870
DDF8
FFF8
F7F8
6370
22E0
0040
ENDCHAR
STARTCHAR 21E0
ENCODING 8672
SWIDTH 600 0
DWIDTH 15 0
BBX 13 9 1 2
BITMAP
1000
3800
7000
FD98
FD98
FD98
7000
3800
1000
ENDCHAR
STARTCHAR 21E1
ENCODING 8673
SWIDTH 600 0
DWIDTH 15 0
BBX 9 14 3 0
BITMAP
1C00
3E00
7F00
FF80
5D00
1C00
0000
0000
1C00
1C00
1C00
1C00
1C00
1C00
ENDCHAR
STARTCHAR 21E2
ENCODING 8674
SWIDTH 600 0
DWIDTH 15 0
BBX 13 9 1 2
BITMAP
0040
00E0
0070
CDF8
CDF8
CDF8
0070
00E0
0040
ENDCHAR
STARTCHAR 21E3
ENCODING 8675
SWIDTH 600 0
DWIDTH 15 0
BBX 9 14 3 0
BITMAP
1C00
1C00
1C00
0000
1C00
1C00
1C00
0000
1C00
5D00
FF80
7F00
3E00
1C00
ENDCHAR
STARTCHAR 21E4
ENCODING 8676
SWIDTH 600 0
DWIDTH 15 0
BBX 13 9 1 2
BITMAP
C400
CE00
DC00
FFF8
FFF8
FFF8
DC00
CE00
C400
ENDCHAR
STARTCHAR 21E5
ENCODING 8677
SWIDTH 600 0
DWIDTH 15 0
BBX 13 9 1 2
BITMAP
0118
0398
01D8
FFF8
FFF8
FFF8
01D8
0398
0118
ENDCHAR
STARTCHAR 21E6
ENCODING 8678
SWIDTH 600 0
DWIDTH 15 0
BBX 14 10 0 2
BITMAP
0800
0800
1800
2FFC
4004
C004
6FFC
3800
1800
0800
ENDCHAR
STARTCHAR 21E7
ENCODING 8679
SWIDTH 600 0
DWIDTH 15 0
BBX 11 14 2 0
BITMAP
0400
0E00
1180
70C0
F120
1100
1100
1100
1100
1100
1100
1100
1100
1F00
ENDCHAR
STARTCHAR 21E8
ENCODING 8680
SWIDTH 600 0
DWIDTH 15 0
BBX 14 10 1 2
BITMAP
0040
0040
0060
FFD0
8008
800C
FFD8
0070
0060
0040
ENDCHAR
STARTCHAR 21E9
ENCODING 8681
SWIDTH 600 0
DWIDTH 15 0
BBX 11 14 2 0
BITMAP
1F00
1100
1100
1100
1100
1100
1100
1100
1100
F1E0
31C0
1180
0A00
0400
ENDCHAR
STARTCHAR 21EB
ENCODING 8683
SWIDTH 600 0
DWIDTH 15 0
BBX 11 14 2 0
BITMAP
0400
0A00
1180
70C0
F120
1100
1100
1100
1100
1100
11C0
41C0
4040
7FC0
ENDCHAR
STARTCHAR 21EC
ENCODING 8684
SWIDTH 600 0
DWIDTH 15 0
BBX 11 14 2 0
BITMAP
0400
0E00
1B00
3180
7FC0
9120
1100
1100
1100
1100
1100
71C0
4040
7FC0
ENDCHAR
STARTCHAR 21ED
ENCODING 8685
SWIDTH 600 0
DWIDTH 15 0
BBX 11 14 2 0
BITMAP
0400
0E00
1580
74C0
F520
1500
1500
1500
1500
1500
15C0
45C0
4440
7FC0
ENDCHAR
STARTCHAR 21EE
ENCODING 8686
SWIDTH 600 0
DWIDTH 15 0
BBX 11 14 2 0
BITMAP
0400
0A00
1580
6EC0
FB20
3180
71C0
F120
1100
1100
1100
1100
1100
1F00
ENDCHAR
STARTCHAR 21EF
ENCODING 8687
SWIDTH 600 0
DWIDTH 15 0
BBX 11 14 2 0
BITMAP
0400
0A00
1580
6EC0
FB20
3180
71C0
F120
1100
1100
11C0
41C0
4040
7FC0
ENDCHAR
STARTCHAR 21F0
ENCODING 8688
SWIDTH 600 0
DWIDTH 15 0
BBX 14 9 1 2
BITMAP
E040
A060
BFD0
8008
800C
BFD8
A070
A060
E040
ENDCHAR
STARTCHAR 21F1
ENCODING 8689
SWIDTH 600 0
DWIDTH 15 0
BBX 14 14 0 0
BITMAP
FFFC
C000
C000
CFC0
CFC0
DFC0
DF00
DF80
DFC0
DDE0
C070
C038
C01C
C008
ENDCHAR
STARTCHAR 21F2
ENCODING 8690
SWIDTH 600 0
DWIDTH 15 0
BBX 14 14 1 0
BITMAP
400C
E00C
F00C
780C
3C0C
1EEC
0FEC
07EC
03EC
0FEC
0FCC
000C
000C
FFFC
ENDCHAR
STARTCHAR 21F3
ENCODING 8691
SWIDTH 600 0
DWIDTH 15 0
BBX 11 15 2 0
BITMAP
0400
0E00
1B00
3180
71C0
9120
1100
1100
1100
9120
71C0
3180
1B00
0E00
0400
ENDCHAR
STARTCHAR 21F4
ENCODING 8692
SWIDTH 600 0
DWIDTH 15 0
BBX 13 8 1 3
BITMAP
3CE0
7F70
FFF8
FFF8
FFF8
7F70
7EE0
3C60
ENDCHAR
STARTCHAR 21F5
ENCODING 8693
SWIDTH 600 0
DWIDTH 15 0
BBX 15 14 0 0
BITMAP
1C70
1CF8
1DFC
1FFE
1D74
1C70
1C70
1C70
1C70
5D70
FFF0
7F70
3E70
1C70
ENDCHAR
STARTCHAR 21F6
ENCODING 8694
SWIDTH 600 0
DWIDTH 15 0
BBX 13 20 1 -3
BITMAP
0040
00E0
0070
FFF8
FFF8
FFF8
0070
00F0
FFF8
FFF8
FFF8
0070
00E0
0070
FFF8
FFF8
FFF8
0070
00E0
0040
ENDCHAR
STARTCHAR 21F7
ENCODING 8695
SWIDTH 600 0
DWIDTH 15 0
BBX 13 9 1 2
BITMAP
1180
3980
7180
FFF8
FFF8
FFF8
7180
3980
1180
ENDCHAR
STARTCHAR 21F8
ENCODING 8696
SWIDTH 600 0
DWIDTH 15 0
BBX 13 9 1 2
BITMAP
0C40
0CE0
0C70
FFF8
FFF8
FFF8
0C70
0CE0
0C40
ENDCHAR
STARTCHAR 21F9
ENCODING 8697
SWIDTH 600 0
DWIDTH 15 0
BBX 13 9 1 2
BITMAP
1740
3FE0
7770
FFF8
FFF8
FFF8
7770
3FE0
1740
ENDCHAR
STARTCHAR 21FA
ENCODING 8698
SWIDTH 600 0
DWIDTH 15 0
BBX 13 9 1 2
BITMAP
1370
3B70
7370
FFF8
FFF8
FFF8
7370
3B70
1370
ENDCHAR
STARTCHAR 21FB
ENCODING 8699
SWIDTH 600 0
DWIDTH 15 0
BBX 13 9 1 2
BITMAP
7640
76E0
7670
FFF8
FFF8
FFF8
7670
76E0
7640
ENDCHAR
STARTCHAR 21FC
ENCODING 8700
SWIDTH 600 0
DWIDTH 15 0
BBX 13 9 1 2
BITMAP
1540
3DE0
7570
FFF8
FFF8
FFF8
7570
3DE0
1540
ENDCHAR
STARTCHAR 21FD
ENCODING 8701
SWIDTH 600 0
DWIDTH 15 0
BBX 14 11 0 1
BITMAP
0800
0800
1800
3800
6FFC
CFFC
6FFC
2800
1800
0800
0800
ENDCHAR
STARTCHAR 21FE
ENCODING 8702
SWIDTH 600 0
DWIDTH 15 0
BBX 14 11 1 1
BITMAP
0040
0040
0060
0050
FFD8
FFCC
FFD8
0050
0060
0040
0040
ENDCHAR
STARTCHAR 21FF
ENCODING 8703
SWIDTH 600 0
DWIDTH 15 0
BBX 15 11 0 1
BITMAP
0820
0820
1830
3828
6FEC
CFE6
6FEC
2828
1830
0820
0820
ENDCHAR
STARTCHAR 2200
ENCODING 8704
SWIDTH 600 0
DWIDTH 15 0
BBX 15 18 0 0
BITMAP
F01E
701C
783C
783C
3FF8
3FF8
3FF8
3C78
1C70
1C70
1EF0
0EF0
0EE0
0EE0
0FE0
07C0
07C0
07C0
ENDCHAR
STARTCHAR 2201
ENCODING 8705
SWIDTH 600 0
DWIDTH 15 0
BBX 15 18 0 0
BITMAP
07E0
1FF0
3FF8
7C7C
7C3E
7800
F800
F800
F800
F800
F800
F800
7800
7C3E
7C7C
3FFC
1FF8
07E0
ENDCHAR
STARTCHAR 2202
ENCODING 8706
SWIDTH 600 0
DWIDTH 15 0
BBX 11 17 2 0
BITMAP
0F00
1F80
3CC0
1060
0060
0060
1EE0
71E0
71E0
E1E0
E1E0
E1E0
E1C0
E1C0
E380
6300
3E00
ENDCHAR
STARTCHAR 2203
ENCODING 8707
SWIDTH 600 0
DWIDTH 15 0
BBX 11 18 2 0
BITMAP
FFE0
FFE0
FFE0
00E0
00E0
00E0
00E0
FFE0
FFE0
FFE0
00E0
00E0
00E0
00E0
00E0
FFE0
FFE0
FFE0
ENDCHAR
STARTCHAR 2204
ENCODING 8708
SWIDTH 600 0
DWIDTH 15 0
BBX 11 20 2 -1
BITMAP
0300
FFE0
FFE0
FFE0
06E0
06E0
0EE0
0CE0
FFE0
FFE0
FFE0
18E0
18E0
38E0
38E0
30E0
FFE0
FFE0
FFE0
E000
ENDCHAR
STARTCHAR 2205
ENCODING 8709
SWIDTH 600 0
DWIDTH 15 0
BBX 13 13 1 1
BITMAP
0F98
3FF8
78F0
60F0
E1F8
C398
C718
CE18
FC38
7830
7070
FFE0
CF80
ENDCHAR
STARTCHAR 2206
ENCODING 8710
SWIDTH 600 0
DWIDTH 15 0
BBX 15 18 -1 0
BITMAP
0380
03C0
03C0
07C0
07E0
0FE0
0EE0
0E70
1E70
1C70
1C38
3C38
383C
381C
781C
7FFE
7FFE
FFFE
ENDCHAR
STARTCHAR 2207
ENCODING 8711
SWIDTH 600 0
DWIDTH 15 0
BBX 15 17 0 0
BITMAP
FFFE
FFFE
7FFC
701C
383C
3838
3838
1C78
1C70
1C70
0EE0
0EE0
0EE0
07C0
07C0
07C0
0380
ENDCHAR
STARTCHAR 2208
ENCODING 8712
SWIDTH 600 0
DWIDTH 15 0
BBX 13 18 1 0
BITMAP
07F8
1FF8
3FF8
3800
7000
7000
E000
FFF8
FFF8
FFF8
E000
E000
7000
7000
3800
3FF8
1FF8
07F8
ENDCHAR
STARTCHAR 2209
ENCODING 8713
SWIDTH 600 0
DWIDTH 15 0
BBX 13 23 1 -3
BITMAP
0038
0038
07F8
1FF8
3FF8
38E0
70E0
71C0
E1C0
FFF8
FFF8
FFF8
E700
E700
7E00
7E00
3E00
3FF8
1FF8
1FF8
3800
3800
0800
ENDCHAR
STARTCHAR 220A
ENCODING 8714
SWIDTH 600 0
DWIDTH 15 0
BBX 13 13 1 1
BITMAP
0FF8
1FF8
3FF8
7800
E000
FFF8
FFF8
FFF8
7000
7800
3FF8
1FF8
07F8
ENDCHAR
STARTCHAR 220B
ENCODING 8715
SWIDTH 600 0
DWIDTH 15 0
BBX 13 18 1 0
BITMAP
FF00
FFC0
FFE0
00E0
0070
0070
0038
FFF8
FFF8
FFF8
0038
0038
0070
0070
00E0
FFE0
FFC0
FF00
ENDCHAR
STARTCHAR 220C
ENCODING 8716
SWIDTH 600 0
DWIDTH 15 0
BBX 13 22 1 -2
BITMAP
0060
00E0
FFE0
FFC0
FFE0
03E0
03F0
03B0
0738
FFF8
FFF8
FFF8
0E38
1C38
1C70
3870
38F0
FFE0
FFC0
FF80
7000
E000
ENDCHAR
STARTCHAR 220D
ENCODING 8717
SWIDTH 600 0
DWIDTH 15 0
BBX 13 13 1 1
BITMAP
FF80
FFC0
FFE0
00F0
0038
FFF8
FFF8
FFF8
0070
00F0
FFE0
FFC0
FF80
ENDCHAR
STARTCHAR 220E
ENCODING 8718
SWIDTH 600 0
DWIDTH 15 0
BBX 9 16 3 0
BITMAP
FF80
FF80
FF80
FF80
FF80
FF80
FF80
FF80
FF80
FF80
FF80
FF80
FF80
FF80
FF80
FF80
ENDCHAR
STARTCHAR 220F
ENCODING 8719
SWIDTH 600 0
DWIDTH 15 0
BBX 11 23 2 -5
BITMAP
FFE0
FFE0
FFE0
E0E0
E0E0
E0E0
E0E0
E0E0
E0E0
E0E0
E0E0
E0E0
E0E0
E0E0
E0E0
E0E0
E0E0
E0E0
E0E0
E0E0
E0E0
E0E0
E0E0
ENDCHAR
STARTCHAR 2210
ENCODING 8720
SWIDTH 600 0
DWIDTH 15 0
BBX 11 23 2 -5
BITMAP
E0E0
E0E0
E0E0
E0E0
E0E0
E0E0
E0E0
E0E0
E0E0
E0E0
E0E0
E0E0
E0E0
E0E0
E0E0
E0E0
E0E0
E0E0
E0E0
E0E0
FFE0
FFE0
FFE0
ENDCHAR
STARTCHAR 2211
ENCODING 8721
SWIDTH 600 0
DWIDTH 15 0
BBX 11 23 2 -5
BITMAP
FFE0
FFE0
FFE0
7000
7000
3800
1C00
1C00
0E00
0F00
0700
0780
0700
0E00
0E00
1C00
3C00
3800
7000
7000
FFE0
FFE0
FFE0
ENDCHAR
STARTCHAR 2212
ENCODING 8722
SWIDTH 600 0
DWIDTH 15 0
BBX 13 3 1 6
BITMAP
FFF8
FFF8
FFF8
ENDCHAR
STARTCHAR 2213
ENCODING 8723
SWIDTH 600 0
DWIDTH 15 0
BBX 13 16 1 0
BITMAP
FFF8
FFF8
FFF8
0000
0700
0700
0700
0700
0700
FFF8
FFF8
FFF8
0700
0700
0700
0700
ENDCHAR
STARTCHAR 2215
ENCODING 8725
SWIDTH 600 0
DWIDTH 15 0
BBX 13 20 0 -2
BITMAP
0038
0030
0070
0060
00E0
00C0
01C0
0180
0380
0300
0700
0600
0E00
0C00
1C00
1800
3800
3000
7000
E000
ENDCHAR
STARTCHAR 2217
ENCODING 8727
SWIDTH 600 0
DWIDTH 15 0
BBX 13 12 1 2
BITMAP
0700
0700
4710
F778
3FE0
0F80
0F80
3FE0
F778
4710
0700
0700
ENDCHAR
STARTCHAR 2218
ENCODING 8728
SWIDTH 600 0
DWIDTH 15 0
BBX 9 8 3 5
BITMAP
1C00
7F00
6300
E180
C180
6300
7F00
3C00
ENDCHAR
STARTCHAR 2219
ENCODING 8729
SWIDTH 600 0
DWIDTH 15 0
BBX 5 4 5 6
BITMAP
78
78
F0
F0
ENDCHAR
STARTCHAR 221A
ENCODING 8730
SWIDTH 600 0
DWIDTH 15 0
BBX 13 22 1 0
BITMAP
0018
0038
0038
0038
0070
0070
0070
0060
00E0
10E0
70E0
F1C0
F9C0
39C0
1980
1F80
1F80
1F00
0F00
0F00
0F00
0600
ENDCHAR
STARTCHAR 221B
ENCODING 8731
SWIDTH 600 0
DWIDTH 15 0
BBX 13 23 1 0
BITMAP
FC00
7F18
0738
0638
3C38
3F70
0770
0370
8760
FEE0
7CE0
10E0
71C0
F9C0
F9C0
3980
1F80
1F80
1F00
0F00
0F00
0F00
0600
ENDCHAR
STARTCHAR 221C
ENCODING 8732
SWIDTH 600 0
DWIDTH 15 0
BBX 13 23 1 0
BITMAP
0E00
1E18
3E38
6E38
4E38
CE70
FF70
FF70
0E60
0EE0
00E0
30E0
F1C0
F9C0
B9C0
1980
1F80
1F80
1F00
0F00
0F00
0F00
0600
ENDCHAR
STARTCHAR 221D
ENCODING 8733
SWIDTH 600 0
DWIDTH 15 0
BBX 11 10 2 3
BITMAP
3C60
7EE0
7EE0
E7C0
C380
C380
E7C0
7EE0
7EE0
3C60
ENDCHAR
STARTCHAR 221E
ENCODING 8734
SWIDTH 600 0
DWIDTH 15 0
BBX 15 10 0 3
BITMAP
3C78
7EFC
7EFC
E7CE
C386
C386
E7CE
7EFC
7EFC
3C78
ENDCHAR
STARTCHAR 221F
ENCODING 8735
SWIDTH 600 0
DWIDTH 15 0
BBX 13 13 1 3
BITMAP
E000
E000
E000
E000
E000
E000
E000
E000
E000
E000
FFF8
FFF8
FFF8
ENDCHAR
STARTCHAR 2220
ENCODING 8736
SWIDTH 600 0
DWIDTH 15 0
BBX 13 13 1 3
BITMAP
0078
0070
00E0
01C0
0380
0380
0700
0E00
1C00
1C00
3FF8
7FF8
FFF8
ENDCHAR
STARTCHAR 2223
ENCODING 8739
SWIDTH 600 0
DWIDTH 15 0
BBX 3 25 6 -6
BITMAP
E0
E0
E0
E0
E0
E0
E0
E0
E0
E0
E0
E0
E0
E0
E0
E0
E0
E0
E0
E0
E0
E0
E0
E0
E0
ENDCHAR
STARTCHAR 2227
ENCODING 8743
SWIDTH 600 0
DWIDTH 15 0
BBX 11 14 2 0
BITMAP
1F00
1F00
1F00
1F80
3B80
3B80
3B80
3B80
7BC0
7BC0
71C0
71C0
71C0
F1E0
ENDCHAR
STARTCHAR 2228
ENCODING 8744
SWIDTH 600 0
DWIDTH 15 0
BBX 11 14 2 0
BITMAP
F1E0
71C0
71C0
71C0
7BC0
7BC0
3B80
3B80
3B80
3B80
1F80
1F00
1F00
1F00
ENDCHAR
STARTCHAR 2229
ENCODING 8745
SWIDTH 600 0
DWIDTH 15 0
BBX 11 14 2 0
BITMAP
1F00
3F80
7FC0
71C0
E0E0
E0E0
E0E0
E0E0
E0E0
E0E0
E0E0
E0E0
E0E0
E0E0
ENDCHAR
STARTCHAR 222A
ENCODING 8746
SWIDTH 600 0
DWIDTH 15 0
BBX 11 15 2 0
BITMAP
E0E0
E0E0
E0E0
E0E0
E0E0
E0E0
E0E0
E0E0
E0E0
E0E0
E0E0
71C0
7FC0
3F80
1F00
ENDCHAR
STARTCHAR 222B
ENCODING 8747
SWIDTH 600 0
DWIDTH 15 0
BBX 13 23 1 -4
BITMAP
00F0
01B8
01B8
0390
0300
0300
0700
0700
0700
0700
0700
0700
0700
0700
0700
0700
0700
0700
0600
0E00
EE00
EC00
F800
ENDCHAR
STARTCHAR 222C
ENCODING 8748
SWIDTH 600 0
DWIDTH 15 0
BBX 15 27 0 -5
BITMAP
0FBE
1F3E
1D72
1C70
1C70
1C70
1C70
1C70
1C70
1C70
1C70
1C70
1C70
1C70
1C70
1C70
1C70
1C70
1C70
1C70
1C70
1C70
1C70
1C70
5D70
F9F0
7BE0
ENDCHAR
STARTCHAR 222D
ENCODING 8749
SWIDTH 600 0
DWIDTH 15 0
BBX 17 27 -1 -5
BITMAP
0EE780
1FFF00
1DCE00
3DCE00
3DCE00
3DCE00
3DCE00
3DCE00
3DCE00
3DCE00
3DCE00
3DCE00
3DCE00
3DCE00
3DCE00
3DCE00
3DCE00
3DCE00
3DCE00
3DCE00
3DCE00
3DCE00
3DCE00
3DCE00
39DC00
7FFC00
F3B800
ENDCHAR
STARTCHAR 2234
ENCODING 8756
SWIDTH 600 0
DWIDTH 15 0
BBX 11 13 2 1
BITMAP
1F00
1F00
1F00
1F00
0000
0000
0000
0000
0000
F1E0
F1E0
F1E0
F1E0
ENDCHAR
STARTCHAR 2235
ENCODING 8757
SWIDTH 600 0
DWIDTH 15 0
BBX 11 13 2 1
BITMAP
F1E0
F1E0
F1E0
F1E0
0000
0000
0000
0000
0000
0F00
0F00
0F00
0F00
ENDCHAR
STARTCHAR 2236
ENCODING 8758
SWIDTH 600 0
DWIDTH 15 0
BBX 5 13 5 1
BITMAP
F8
F8
F8
F8
00
00
00
00
00
78
78
78
78
ENDCHAR
STARTCHAR 2237
ENCODING 8759
SWIDTH 600 0
DWIDTH 15 0
BBX 11 13 2 1
BITMAP
F1E0
F1E0
F1E0
F1E0
0000
0000
0000
0000
0000
F1E0
F1E0
F1E0
F1E0
ENDCHAR
STARTCHAR 2238
ENCODING 8760
SWIDTH 600 0
DWIDTH 15 0
BBX 13 9 1 6
BITMAP
0F80
0F80
0F80
0F80
0000
0000
FFF8
FFF8
FFF8
ENDCHAR
STARTCHAR 2239
ENCODING 8761
SWIDTH 600 0
DWIDTH 15 0
BBX 13 13 1 1
BITMAP
0078
0078
0078
0078
0000
FF80
FF80
FF80
0000
0078
0078
0078
0078
ENDCHAR
STARTCHAR 223A
ENCODING 8762
SWIDTH 600 0
DWIDTH 15 0
BBX 14 14 1 1
BITMAP
F078
F078
F078
F078
0000
FFF8
FFF8
FFF8
0000
0000
F07C
F07C
F07C
F07C
ENDCHAR
STARTCHAR 223B
ENCODING 8763
SWIDTH 600 0
DWIDTH 15 0
BBX 13 15 1 0
BITMAP
0F80
0F80
0F80
0F80
0000
7E08
FFF8
FFF8
81F0
0000
0000
0F80
0F80
0F80
0F80
ENDCHAR
STARTCHAR 223C
ENCODING 8764
SWIDTH 600 0
DWIDTH 15 0
BBX 13 4 1 6
BITMAP
7E08
FFF8
FFF8
81F0
ENDCHAR
STARTCHAR 223D
ENCODING 8765
SWIDTH 600 0
DWIDTH 15 0
BBX 13 4 1 6
BITMAP
83F0
FFF8
FFF8
7C08
ENDCHAR
STARTCHAR 2241
ENCODING 8769
SWIDTH 600 0
DWIDTH 15 0
BBX 13 13 1 1
BITMAP
01C0
0180
0380
0380
7F08
FFF8
FFF8
87F0
0E00
0E00
0C00
1C00
0400
ENDCHAR
STARTCHAR 2242
ENCODING 8770
SWIDTH 600 0
DWIDTH 15 0
BBX 13 9 1 3
BITMAP
FFF8
FFF8
FFF8
0000
0000
7E08
FFF8
FFF8
81F0
ENDCHAR
STARTCHAR 2243
ENCODING 8771
SWIDTH 600 0
DWIDTH 15 0
BBX 13 9 1 4
BITMAP
3C08
FF18
FFF8
C3F8
80E0
0000
FFF8
FFF8
FFF8
ENDCHAR
STARTCHAR 2244
ENCODING 8772
SWIDTH 600 0
DWIDTH 15 0
BBX 13 15 1 1
BITMAP
0060
0060
00C0
3CC8
FF98
FFF8
C3F8
87E0
0600
FFF8
FFF8
FFF8
3800
3000
6000
ENDCHAR
STARTCHAR 2245
ENCODING 8773
SWIDTH 600 0
DWIDTH 15 0
BBX 13 14 1 1
BITMAP
7E08
FFF8
FFF8
81F0
0000
0000
FFF8
FFF8
FFF8
0000
0000
FFF8
FFF8
FFF8
ENDCHAR
STARTCHAR 2246
ENCODING 8774
SWIDTH 600 0
DWIDTH 15 0
BBX 13 16 1 -1
BITMAP
7E08
FFF8
FFF8
81F0
0040
00E0
FFF8
FFF8
FFF8
0700
0700
FFF8
FFF8
FFF8
3800
1000
ENDCHAR
STARTCHAR 2247
ENCODING 8775
SWIDTH 600 0
DWIDTH 15 0
BBX 13 19 1 -1
BITMAP
0040
00F0
3CE8
FFF8
FFF8
C3F0
0380
0380
FFF8
FFF8
FFF8
0E00
0E00
1E00
FFF8
FFF8
FFF8
3800
3800
ENDCHAR
STARTCHAR 2248
ENCODING 8776
SWIDTH 600 0
DWIDTH 15 0
BBX 13 9 1 3
BITMAP
7E08
FFF8
FFF8
81F0
0000
7E08
FFF8
FFF8
81F0
ENDCHAR
STARTCHAR 2249
ENCODING 8777
SWIDTH 600 0
DWIDTH 15 0
BBX 13 13 1 1
BITMAP
01C0
01C0
7FC8
FFF8
FFF8
87F0
0700
7F08
FFF8
FFF8
9DF0
1C00
1C00
ENDCHAR
STARTCHAR 224A
ENCODING 8778
SWIDTH 600 0
DWIDTH 15 0
BBX 13 14 1 1
BITMAP
7E08
FFF8
FFF8
81F0
0000
3C08
FF18
FFF8
C3F8
80E0
0000
FFF8
FFF8
FFF8
ENDCHAR
STARTCHAR 224B
ENCODING 8779
SWIDTH 600 0
DWIDTH 15 0
BBX 13 14 1 0
BITMAP
7E08
FFF8
FFF8
81F0
0000
7E08
FFF8
FFF8
81F0
0000
7E08
FFF8
FFF8
81F0
ENDCHAR
STARTCHAR 224C
ENCODING 8780
SWIDTH 600 0
DWIDTH 15 0
BBX 13 14 1 1
BITMAP
83F0
FFF8
FFF8
7C08
0000
0000
FFF8
FFF8
FFF8
0000
0000
FFF8
FFF8
FFF8
ENDCHAR
STARTCHAR 224D
ENCODING 8781
SWIDTH 600 0
DWIDTH 15 0
BBX 13 12 1 2
BITMAP
8008
E038
FFF8
7FF0
0F80
0000
0000
0F80
7FF0
FFF8
F078
8008
ENDCHAR
STARTCHAR 224E
ENCODING 8782
SWIDTH 600 0
DWIDTH 15 0
BBX 13 15 1 0
BITMAP
0700
1FC0
1FC0
F8F8
F8F8
F078
0000
0000
0000
F078
F8F8
F8F8
1FC0
1FC0
0700
ENDCHAR
STARTCHAR 224F
ENCODING 8783
SWIDTH 600 0
DWIDTH 15 0
BBX 13 12 1 4
BITMAP
0700
1F80
1FC0
F8F8
F8F8
F078
0000
0000
0000
FFF8
FFF8
FFF8
ENDCHAR
STARTCHAR 2250
ENCODING 8784
SWIDTH 600 0
DWIDTH 15 0
BBX 13 14 1 4
BITMAP
0F80
0F80
0F80
0F80
0000
FFF8
FFF8
FFF8
0000
0000
0000
FFF8
FFF8
FFF8
ENDCHAR
STARTCHAR 2251
ENCODING 8785
SWIDTH 600 0
DWIDTH 15 0
BBX 13 19 1 -2
BITMAP
0F80
0F80
0F80
0F80
0000
FFF8
FFF8
FFF8
0000
0000
FFF8
FFF8
FFF8
0000
0000
0F80
0F80
0F80
0F80
ENDCHAR
STARTCHAR 2252
ENCODING 8786
SWIDTH 600 0
DWIDTH 15 0
BBX 13 19 1 -2
BITMAP
F000
F000
F000
F000
0000
FFF8
FFF8
FFF8
0000
0000
FFF8
FFF8
FFF8
0000
0000
0078
0078
0078
0078
ENDCHAR
STARTCHAR 2253
ENCODING 8787
SWIDTH 600 0
DWIDTH 15 0
BBX 13 19 1 -2
BITMAP
0078
0078
0078
0078
0000
FFF8
FFF8
FFF8
0000
0000
FFF8
FFF8
FFF8
0000
0000
F000
F000
F000
F000
ENDCHAR
STARTCHAR 2254
ENCODING 8788
SWIDTH 600 0
DWIDTH 15 0
BBX 13 9 1 3
BITMAP
EFF8
EFF8
EFF8
E000
0000
E000
EFF8
EFF8
EFF8
ENDCHAR
STARTCHAR 2255
ENCODING 8789
SWIDTH 600 0
DWIDTH 15 0
BBX 13 9 1 3
BITMAP
FFB8
FFB8
FFB8
0038
0000
0038
FFB8
FFB8
FFB8
ENDCHAR
STARTCHAR 2256
ENCODING 8790
SWIDTH 600 0
DWIDTH 15 0
BBX 13 9 1 4
BITMAP
FFF8
FFF8
FFF8
18C0
18C0
18C0
FFF8
FFF8
FFF8
ENDCHAR
STARTCHAR 2257
ENCODING 8791
SWIDTH 600 0
DWIDTH 15 0
BBX 13 17 1 4
BITMAP
0700
0FC0
1DC0
18C0
18C0
1FC0
0F80
0000
FFF8
FFF8
FFF8
0000
0000
0000
FFF8
FFF8
FFF8
ENDCHAR
STARTCHAR 2258
ENCODING 8792
SWIDTH 600 0
DWIDTH 15 0
BBX 13 14 1 4
BITMAP
0F80
3FE0
7FF0
7070
4010
0000
FFF8
FFF8
FFF8
0000
0000
FFF8
FFF8
FFF8
ENDCHAR
STARTCHAR 2259
ENCODING 8793
SWIDTH 600 0
DWIDTH 15 0
BBX 13 17 1 4
BITMAP
0700
0700
0700
0F80
0D80
1DC0
1CC0
18C0
FFF8
FFF8
FFF8
0000
0000
0000
FFF8
FFF8
FFF8
ENDCHAR
STARTCHAR 225A
ENCODING 8794
SWIDTH 600 0
DWIDTH 15 0
BBX 13 17 1 4
BITMAP
18C0
1DC0
0D80
0D80
0F80
0700
0700
0300
FFF8
FFF8
FFF8
0000
0000
0000
FFF8
FFF8
FFF8
ENDCHAR
STARTCHAR 225B
ENCODING 8795
SWIDTH 600 0
DWIDTH 15 0
BBX 13 20 1 4
BITMAP
0200
0200
0200
0700
7FF0
0FC0
0F80
0F80
0880
1040
0000
FFF8
FFF8
FFF8
0000
0000
0000
FFF8
FFF8
FFF8
ENDCHAR
STARTCHAR 225C
ENCODING 8796
SWIDTH 600 0
DWIDTH 15 0
BBX 13 19 1 4
BITMAP
0200
0700
0700
0700
0D80
0D80
18C0
1FC0
3FE0
0000
FFF8
FFF8
FFF8
0000
0000
0000
FFF8
FFF8
FFF8
ENDCHAR
STARTCHAR 225D
ENCODING 8797
SWIDTH 600 0
DWIDTH 15 0
BBX 13 15 1 3
BITMAP
1838
7B38
DCA0
DFA0
7BA0
0000
FFF8
FFF8
FFF8
0000
0000
0000
FFF8
FFF8
FFF8
ENDCHAR
STARTCHAR 225E
ENCODING 8798
SWIDTH 600 0
DWIDTH 15 0
BBX 13 16 1 4
BITMAP
6EE0
7770
6730
6730
6730
6730
6730
FFF8
FFF8
FFF8
0000
0000
0000
FFF8
FFF8
FFF8
ENDCHAR
STARTCHAR 225F
ENCODING 8799
SWIDTH 600 0
DWIDTH 15 0
BBX 13 19 1 4
BITMAP
0F00
0F80
1180
0180
0300
0600
0000
0600
0600
0000
FFF8
FFF8
FFF8
0000
0000
0000
FFF8
FFF8
FFF8
ENDCHAR
STARTCHAR 2260
ENCODING 8800
SWIDTH 600 0
DWIDTH 15 0
BBX 13 17 1 0
BITMAP
0010
0030
0078
00F0
FFF8
FFF8
FFF8
0380
0700
0F00
FFF8
FFF8
FFF8
3800
7000
E000
4000
ENDCHAR
STARTCHAR 2261
ENCODING 8801
SWIDTH 600 0
DWIDTH 15 0
BBX 13 14 1 1
BITMAP
FFF8
FFF8
FFF8
0000
0000
FFF8
FFF8
FFF8
0000
0000
0000
FFF8
FFF8
FFF8
ENDCHAR
STARTCHAR 2262
ENCODING 8802
SWIDTH 600 0
DWIDTH 15 0
BBX 13 18 1 -1
BITMAP
0060
00F0
FFF8
FFF8
FFF8
03C0
0380
FFF8
FFF8
FFF8
0E00
0E00
1C00
FFF8
FFF8
FFF8
7800
1000
ENDCHAR
STARTCHAR 2263
ENCODING 8803
SWIDTH 600 0
DWIDTH 15 0
BBX 13 18 1 -1
BITMAP
FFF8
FFF8
FFF8
0000
0000
FFF8
FFF8
FFF8
0000
0000
FFF8
FFF8
FFF8
0000
0000
FFF8
FFF8
FFF8
ENDCHAR
STARTCHAR 2264
ENCODING 8804
SWIDTH 600 0
DWIDTH 15 0
BBX 13 15 1 0
BITMAP
0008
0038
01F8
1FF8
FF80
FC00
FC00
FF80
1FF8
01F8
0038
0008
FFF8
FFF8
FFF8
ENDCHAR
STARTCHAR 2265
ENCODING 8805
SWIDTH 600 0
DWIDTH 15 0
BBX 13 15 1 0
BITMAP
8000
E000
FC00
FFC0
0FF8
01F8
01F8
0FF8
FFC0
FC00
E000
8000
FFF8
FFF8
FFF8
ENDCHAR
STARTCHAR 2266
ENCODING 8806
SWIDTH 600 0
DWIDTH 15 0
BBX 13 19 1 -3
BITMAP
0008
0078
03F8
1FF0
FF80
F800
FC00
7FC0
0FF8
01F8
0038
0000
FFF8
FFF8
FFF8
0000
FFF8
FFF8
FFF8
ENDCHAR
STARTCHAR 2267
ENCODING 8807
SWIDTH 600 0
DWIDTH 15 0
BBX 13 19 1 -3
BITMAP
8000
F000
FE00
7FC0
0FF8
00F8
01F8
1FF0
FF80
FC00
E000
0000
FFF8
FFF8
FFF8
0000
FFF8
FFF8
FFF8
ENDCHAR
STARTCHAR 2268
ENCODING 8808
SWIDTH 600 0
DWIDTH 15 0
BBX 13 21 1 -5
BITMAP
0008
0078
03F8
1FF0
FF80
F800
FC00
7FC0
0FF8
01F8
0078
00E0
FFF8
FFF8
FFF8
0700
FFF8
FFF8
FFF8
3800
1000
ENDCHAR
STARTCHAR 2269
ENCODING 8809
SWIDTH 600 0
DWIDTH 15 0
BBX 13 21 1 -5
BITMAP
8000
F000
FE00
7FC0
0FF8
00F8
01F8
1FF0
FF80
FC00
E040
00E0
FFF8
FFF8
FFF8
0700
FFF8
FFF8
FFF8
3800
1000
ENDCHAR
STARTCHAR 226D
ENCODING 8813
SWIDTH 600 0
DWIDTH 15 0
BBX 13 17 1 -1
BITMAP
00E0
00E0
00C0
81C8
F1F8
FFF8
3FE0
0700
0700
0700
3FE0
FFF8
FC78
9C08
1800
3800
3800
ENDCHAR
STARTCHAR 226E
ENCODING 8814
SWIDTH 600 0
DWIDTH 15 0
BBX 13 16 1 0
BITMAP
0040
00E0
00D8
00F8
03F8
1FE0
7F80
FB00
F300
FF00
3FC0
07F8
0DF8
0C38
0C08
1800
ENDCHAR
STARTCHAR 226F
ENCODING 8815
SWIDTH 600 0
DWIDTH 15 0
BBX 13 13 1 1
BITMAP
C000
F800
FE00
3FC0
07F0
00F8
0078
03F8
1FE0
FF00
FC00
E000
8000
ENDCHAR
STARTCHAR 2270
ENCODING 8816
SWIDTH 600 0
DWIDTH 15 0
BBX 13 18 1 -2
BITMAP
0060
00E8
00F8
01F8
1FF8
FFC0
FD80
FF80
FF80
1FF8
07F8
0638
0608
FFF8
FFF8
FFF8
1C00
1800
ENDCHAR
STARTCHAR 2271
ENCODING 8817
SWIDTH 600 0
DWIDTH 15 0
BBX 13 18 1 -2
BITMAP
01C0
8180
E380
FF80
FFC0
0FF8
07F8
07F8
0FF8
FFC0
FC00
FC00
9800
FFF8
FFF8
FFF8
7000
7000
ENDCHAR
STARTCHAR 2272
ENCODING 8818
SWIDTH 600 0
DWIDTH 15 0
BBX 13 15 1 -1
BITMAP
0018
01F8
0FF8
7FC0
FE00
F800
FF00
1FF0
03F8
0078
0008
7E08
FFF8
FFF8
81F0
ENDCHAR
STARTCHAR 2273
ENCODING 8819
SWIDTH 600 0
DWIDTH 15 0
BBX 13 15 1 -1
BITMAP
C000
FC00
FF80
1FF0
03F8
00F8
07F8
7FC0
FE00
F000
8000
7E08
FFF8
FFF8
81F0
ENDCHAR
STARTCHAR 2274
ENCODING 8820
SWIDTH 600 0
DWIDTH 15 0
BBX 13 18 1 -2
BITMAP
0060
00E0
00F8
01F8
0FF8
7FC0
FF80
FB80
FF80
1FF0
07F8
0678
0608
7E08
FFF8
FFF8
9DF0
1800
ENDCHAR
STARTCHAR 2275
ENCODING 8821
SWIDTH 600 0
DWIDTH 15 0
BBX 13 19 1 -2
BITMAP
0100
01C0
8180
F380
FF00
7FC0
0FF8
06F8
0FF8
1FF0
FF80
FC00
FC00
1800
7E08
FFF8
FFF8
F1F0
7000
ENDCHAR
STARTCHAR 2276
ENCODING 8822
SWIDTH 600 0
DWIDTH 15 0
BBX 13 20 1 -3
BITMAP
0018
00F8
07F8
3FE0
FE00
F000
FF00
3FE0
07F8
C0F8
F808
FF00
3FE0
03F8
0078
07F8
3FE0
FF00
F800
C000
ENDCHAR
STARTCHAR 2277
ENCODING 8823
SWIDTH 600 0
DWIDTH 15 0
BBX 13 20 1 -3
BITMAP
C000
F800
FF00
3FE0
03F8
0078
07F8
3FE0
FF00
F818
80F8
07F8
3FE0
FE00
F000
FF00
3FE0
07F8
00F8
0008
ENDCHAR
STARTCHAR 2278
ENCODING 8824
SWIDTH 600 0
DWIDTH 15 0
BBX 13 24 1 -5
BITMAP
0070
00E0
00F8
00F8
07F8
3FE0
FFC0
F380
FF80
3FE0
07F8
C7F8
FF08
FF00
3FE0
0FF8
0E78
1FF8
3FE0
FF00
F800
F800
3800
7000
ENDCHAR
STARTCHAR 2279
ENCODING 8825
SWIDTH 600 0
DWIDTH 15 0
BBX 13 24 1 -5
BITMAP
0070
00E0
C0E0
F8E0
FFC0
3FF0
03F8
03F8
07F8
3FE0
FF00
FF18
87F8
07F8
3FE0
FE00
FE00
FF00
3FE0
1FF8
38F8
3818
3800
7000
ENDCHAR
STARTCHAR 227A
ENCODING 8826
SWIDTH 600 0
DWIDTH 15 0
BBX 13 18 1 -1
BITMAP
0008
0008
0018
0038
0078
01F0
0FE0
7FC0
FF00
FE00
FF80
0FE0
03F0
00F8
0038
0018
0008
0008
ENDCHAR
STARTCHAR 227B
ENCODING 8827
SWIDTH 600 0
DWIDTH 15 0
BBX 13 18 1 -1
BITMAP
8000
8000
C000
E000
F000
7C00
3F80
1FF0
07F8
03F8
0FF8
3F80
7E00
F800
E000
C000
8000
8000
ENDCHAR
STARTCHAR 227C
ENCODING 8828
SWIDTH 600 0
DWIDTH 15 0
BBX 13 24 1 -5
BITMAP
0008
0008
0018
0038
0078
01F0
0FE0
FF80
FE00
FF00
FFC0
07E0
01F0
F078
FC38
FF18
0F88
03E0
01F0
0070
0038
0018
0008
0008
ENDCHAR
STARTCHAR 227D
ENCODING 8829
SWIDTH 600 0
DWIDTH 15 0
BBX 13 24 1 -5
BITMAP
8000
8000
C000
E000
F000
7C00
3F80
0FF8
03F8
07F8
1FF8
3F00
7C00
F078
E1F8
C7F8
8F80
3E00
7C00
7000
E000
C000
8000
8000
ENDCHAR
STARTCHAR 227E
ENCODING 8830
SWIDTH 600 0
DWIDTH 15 0
BBX 13 21 1 -2
BITMAP
0008
0008
0018
0078
00F8
03E0
FFC0
FF00
FC00
FF80
1FC0
03F0
00F8
0078
0018
0008
0008
7E08
FFF8
FFF8
81F0
ENDCHAR
STARTCHAR 227F
ENCODING 8831
SWIDTH 600 0
DWIDTH 15 0
BBX 13 21 1 -2
BITMAP
8000
8000
C000
F000
F800
3E00
1FF8
07F8
01F8
0FF8
1FC0
7E00
F800
F000
C000
8000
8000
7E08
FFF8
FFF8
81F0
ENDCHAR
STARTCHAR 2280
ENCODING 8832
SWIDTH 600 0
DWIDTH 15 0
BBX 13 22 1 -3
BITMAP
0040
0070
0078
00F8
00F8
00F8
01F8
01F0
0FE0
7FC0
FF80
FF80
FF80
0FE0
07F0
07F8
0E38
0E18
0E08
1C08
1C00
0C00
ENDCHAR
STARTCHAR 2281
ENCODING 8833
SWIDTH 600 0
DWIDTH 15 0
BBX 13 22 1 -3
BITMAP
0100
01C0
81C0
83C0
C380
E380
F380
7F00
3F00
1FF0
0FF8
0FF8
0FF8
3FC0
7E00
FC00
F800
F800
B800
F000
7000
3000
ENDCHAR
STARTCHAR 2282
ENCODING 8834
SWIDTH 600 0
DWIDTH 15 0
BBX 13 13 1 1
BITMAP
0FF8
3FF8
7FF8
7000
E000
E000
E000
E000
E000
7000
7FF8
3FF8
0FF8
ENDCHAR
STARTCHAR 2283
ENCODING 8835
SWIDTH 600 0
DWIDTH 15 0
BBX 13 13 1 1
BITMAP
FF80
FFE0
FFF0
0070
0038
0038
0038
0038
0038
0070
FFF0
FFE0
FF80
ENDCHAR
STARTCHAR 2284
ENCODING 8836
SWIDTH 600 0
DWIDTH 15 0
BBX 13 19 1 -2
BITMAP
0040
00E0
00C0
0FF8
3FF8
7FF8
7380
E380
E300
E700
E600
EE00
7E00
7FF8
3FF8
1FF8
1800
3800
1000
ENDCHAR
STARTCHAR 2285
ENCODING 8837
SWIDTH 600 0
DWIDTH 15 0
BBX 13 19 1 -2
BITMAP
0040
00E0
00C0
FFC0
FFE0
FFF0
03F0
03B8
0338
0738
0638
0E38
0E70
FFF0
FFE0
FF80
1800
3800
1000
ENDCHAR
STARTCHAR 2286
ENCODING 8838
SWIDTH 600 0
DWIDTH 15 0
BBX 13 17 1 0
BITMAP
0FF8
3FF8
7FF8
7000
E000
E000
E000
E000
E000
7000
7FF8
3FF8
0FF8
0000
FFF8
FFF8
FFF8
ENDCHAR
STARTCHAR 2287
ENCODING 8839
SWIDTH 600 0
DWIDTH 15 0
BBX 13 17 1 0
BITMAP
FF80
FFE0
FFF0
0070
0038
0038
0038
0038
0038
0070
FFF0
FFE0
FF80
0000
FFF8
FFF8
FFF8
ENDCHAR
STARTCHAR 2288
ENCODING 8840
SWIDTH 600 0
DWIDTH 15 0
BBX 13 21 1 -2
BITMAP
0040
00E0
0FF8
3FF8
7FF8
7180
E380
E380
E300
E700
E600
7600
7FF8
3FF8
1FF8
1C00
FFF8
FFF8
FFF8
7000
7000
ENDCHAR
STARTCHAR 2289
ENCODING 8841
SWIDTH 600 0
DWIDTH 15 0
BBX 13 21 1 -2
BITMAP
0040
00E0
FFC0
FFE0
FFF0
01F0
03B8
03B8
0338
0738
0638
0670
FFF0
FFE0
FF80
1C00
FFF8
FFF8
FFF8
7000
7000
ENDCHAR
STARTCHAR 228A
ENCODING 8842
SWIDTH 600 0
DWIDTH 15 0
BBX 13 20 1 -3
BITMAP
0FF8
3FF8
7FF8
7000
E000
E000
E000
E000
E000
7000
7FF8
3FF8
0FF8
03C0
FFF8
FFF8
FFF8
1E00
0C00
0400
ENDCHAR
STARTCHAR 228B
ENCODING 8843
SWIDTH 600 0
DWIDTH 15 0
BBX 13 20 1 -3
BITMAP
FF80
FFE0
FFF0
0070
0038
0038
0038
0038
0038
0070
FFF0
FFE0
FF80
03C0
FFF8
FFF8
FFF8
1E00
0C00
0400
ENDCHAR
STARTCHAR 228D
ENCODING 8845
SWIDTH 600 0
DWIDTH 15 0
BBX 13 16 1 0
BITMAP
E038
E038
E038
E038
E038
E038
E738
E738
E738
E038
E038
E038
7070
7FF0
3FE0
1FC0
ENDCHAR
STARTCHAR 228E
ENCODING 8846
SWIDTH 600 0
DWIDTH 15 0
BBX 13 16 1 0
BITMAP
E038
E038
E038
E038
E038
E238
E238
EFB8
EFB8
E238
E038
E038
7070
7FF0
3FE0
1FC0
ENDCHAR
STARTCHAR 228F
ENCODING 8847
SWIDTH 600 0
DWIDTH 15 0
BBX 13 14 1 1
BITMAP
FFF8
FFF8
FFF8
E000
E000
E000
E000
E000
E000
E000
E000
FFF8
FFF8
FFF8
ENDCHAR
STARTCHAR 2290
ENCODING 8848
SWIDTH 600 0
DWIDTH 15 0
BBX 13 14 1 1
BITMAP
FFF8
FFF8
FFF8
0038
0038
0038
0038
0038
0038
0038
0038
FFF8
FFF8
FFF8
ENDCHAR
STARTCHAR 2291
ENCODING 8849
SWIDTH 600 0
DWIDTH 15 0
BBX 13 16 1 0
BITMAP
FFF8
FFF8
FFF8
E000
E000
E000
E000
E000
FFF8
FFF8
FFF8
0000
0000
FFF8
FFF8
FFF8
ENDCHAR
STARTCHAR 2292
ENCODING 8850
SWIDTH 600 0
DWIDTH 15 0
BBX 13 16 1 0
BITMAP
FFF8
FFF8
FFF8
0038
0038
0038
0038
0038
FFF8
FFF8
FFF8
0000
0000
FFF8
FFF8
FFF8
ENDCHAR
STARTCHAR 2293
ENCODING 8851
SWIDTH 600 0
DWIDTH 15 0
BBX 13 16 1 0
BITMAP
FFF8
FFF8
FFF8
E038
E038
E038
E038
E038
E038
E038
E038
E038
E038
E038
E038
E038
ENDCHAR
STARTCHAR 2294
ENCODING 8852
SWIDTH 600 0
DWIDTH 15 0
BBX 13 16 1 0
BITMAP
E038
E038
E038
E038
E038
E038
E038
E038
E038
E038
E038
E038
E038
FFF8
FFF8
FFF8
ENDCHAR
STARTCHAR 2295
ENCODING 8853
SWIDTH 600 0
DWIDTH 15 0
BBX 15 15 0 1
BITMAP
07C0
1FF0
3FF8
783C
739C
638C
E38E
FFFE
FFFE
638C
739C
7BBC
3FF8
1FF0
07C0
ENDCHAR
STARTCHAR 2296
ENCODING 8854
SWIDTH 600 0
DWIDTH 15 0
BBX 15 15 0 1
BITMAP
07C0
1FF0
3FF8
783C
701C
600C
E00E
FFFE
FFFE
600C
701C
783C
3FF8
1FF0
07C0
ENDCHAR
STARTCHAR 2297
ENCODING 8855
SWIDTH 600 0
DWIDTH 15 0
BBX 15 15 0 1
BITMAP
07C0
1FF0
3FF8
783C
745C
6EEC
E7CE
E38E
E7CE
6EEC
745C
783C
3FF8
1FF0
07C0
ENDCHAR
STARTCHAR 2298
ENCODING 8856
SWIDTH 600 0
DWIDTH 15 0
BBX 15 15 0 1
BITMAP
07C0
1FF0
3FF8
783C
705C
60EC
E1CE
E38E
E70E
6E0C
741C
783C
3FF8
1FF0
07C0
ENDCHAR
STARTCHAR 2299
ENCODING 8857
SWIDTH 600 0
DWIDTH 15 0
BBX 15 15 0 1
BITMAP
07C0
1FF0
3FF8
783C
701C
600C
E7CE
E7CE
E7CE
67CC
701C
783C
3FF8
1FF0
07C0
ENDCHAR
STARTCHAR 229A
ENCODING 8858
SWIDTH 600 0
DWIDTH 15 0
BBX 15 15 0 1
BITMAP
07C0
1FF0
3FF8
783C
701C
638C
E7CE
EC6E
EC6E
67CC
739C
783C
3FF8
1FF0
07C0
ENDCHAR
STARTCHAR 229B
ENCODING 8859
SWIDTH 600 0
DWIDTH 15 0
BBX 15 14 0 1
BITMAP
07C0
1FF0
3FF8
739C
739C
FFFE
EFEE
E7CE
FFFE
7BBC
739C
3FF8
1FF0
07C0
ENDCHAR
STARTCHAR 229C
ENCODING 8860
SWIDTH 600 0
DWIDTH 15 0
BBX 15 15 0 1
BITMAP
07C0
1FF0
3FF8
783C
701C
6FEC
EFEE
E00E
EFEE
6FEC
701C
783C
3FF8
1FF0
07C0
ENDCHAR
STARTCHAR 229D
ENCODING 8861
SWIDTH 600 0
DWIDTH 15 0
BBX 15 15 0 1
BITMAP
07C0
1FF0
3FF8
783C
701C
600C
E00E
E7CE
E7CE
600C
701C
783C
3FF8
1FF0
07C0
ENDCHAR
STARTCHAR 229E
ENCODING 8862
SWIDTH 600 0
DWIDTH 15 0
BBX 13 14 1 1
BITMAP
FFF8
FFF8
C018
C718
C718
C718
FFF8
FFF8
C718
C718
C718
C018
FFF8
FFF8
ENDCHAR
STARTCHAR 229F
ENCODING 8863
SWIDTH 600 0
DWIDTH 15 0
BBX 13 14 1 1
BITMAP
FFF8
FFF8
C018
C018
C018
C018
FFF8
FFF8
C018
C018
C018
C018
FFF8
FFF8
ENDCHAR
STARTCHAR 22A0
ENCODING 8864
SWIDTH 600 0
DWIDTH 15 0
BBX 13 14 1 1
BITMAP
FFF8
FFF8
C018
D858
FCF8
CDD8
C798
C718
CF98
FCF8
D858
C018
FFF8
FFF8
ENDCHAR
STARTCHAR 22A1
ENCODING 8865
SWIDTH 600 0
DWIDTH 15 0
BBX 13 14 1 1
BITMAP
FFF8
FFF8
C018
C018
C018
CF98
CF98
CF98
CF98
C018
C018
C018
FFF8
FFF8
ENDCHAR
STARTCHAR 22A2
ENCODING 8866
SWIDTH 600 0
DWIDTH 15 0
BBX 13 16 1 0
BITMAP
E000
E000
E000
E000
E000
E000
E000
FFF8
FFF8
FFF8
E000
E000
E000
E000
E000
E000
ENDCHAR
STARTCHAR 22A3
ENCODING 8867
SWIDTH 600 0
DWIDTH 15 0
BBX 13 16 1 0
BITMAP
0038
0038
0038
0038
0038
0038
0038
FFF8
FFF8
FFF8
0038
0038
0038
0038
0038
0038
ENDCHAR
STARTCHAR 22A4
ENCODING 8868
SWIDTH 600 0
DWIDTH 15 0
BBX 13 16 1 0
BITMAP
FFF8
FFF8
FFF8
0700
0700
0700
0700
0700
0700
0700
0700
0700
0700
0700
0700
0700
ENDCHAR
STARTCHAR 22B2
ENCODING 8882
SWIDTH 600 0
DWIDTH 15 0
BBX 13 13 1 1
BITMAP
0018
00F8
03F8
1FF8
7F38
F838
F038
FE38
3FF8
07F8
01F8
0038
0008
ENDCHAR
STARTCHAR 22B3
ENCODING 8883
SWIDTH 600 0
DWIDTH 15 0
BBX 13 13 1 1
BITMAP
C000
F800
FE00
FFC0
E7F0
E0F8
E078
E3F8
FFE0
FF00
FC00
E000
8000
ENDCHAR
STARTCHAR 22B4
ENCODING 8884
SWIDTH 600 0
DWIDTH 15 0
BBX 13 15 1 0
BITMAP
0008
0038
01F8
1FF8
FFB8
FC38
FC38
FFB8
1FF8
01F8
0038
0008
FFF8
FFF8
FFF8
ENDCHAR
STARTCHAR 22B5
ENCODING 8885
SWIDTH 600 0
DWIDTH 15 0
BBX 13 15 1 0
BITMAP
8000
E000
FC00
FFC0
EFF8
E1F8
E1F8
EFF8
FFC0
FC00
E000
8000
FFF8
FFF8
FFF8
ENDCHAR
STARTCHAR 22B8
ENCODING 8888
SWIDTH 600 0
DWIDTH 15 0
BBX 15 7 0 4
BITMAP
0078
00FC
FFC6
FFC6
FFC6
00FC
0078
ENDCHAR
STARTCHAR 22C2
ENCODING 8898
SWIDTH 600 0
DWIDTH 15 0
BBX 13 24 1 -5
BITMAP
1FC0
3FE0
7FF0
7070
E038
E038
E038
E038
E038
E038
E038
E038
E038
E038
E038
E038
E038
E038
E038
E038
E038
E038
E038
E038
ENDCHAR
STARTCHAR 22C3
ENCODING 8899
SWIDTH 600 0
DWIDTH 15 0
BBX 13 24 1 -6
BITMAP
E038
E038
E038
E038
E038
E038
E038
E038
E038
E038
E038
E038
E038
E038
E038
E038
E038
E038
E038
E038
7070
7FF0
3FE0
1FC0
ENDCHAR
STARTCHAR 22C4
ENCODING 8900
SWIDTH 600 0
DWIDTH 15 0
BBX 15 15 0 1
BITMAP
0100
0380
06C0
0C60
1830
3018
600C
E00E
301C
1838
0C70
06E0
03C0
0180
0100
ENDCHAR
STARTCHAR 22C5
ENCODING 8901
SWIDTH 600 0
DWIDTH 15 0
BBX 5 4 5 6
BITMAP
F8
F8
F8
F8
ENDCHAR
STARTCHAR 22C6
ENCODING 8902
SWIDTH 600 0
DWIDTH 15 0
BBX 9 9 3 4
BITMAP
0800
0800
0C00
FF80
3E00
1C00
3600
2200
4100
ENDCHAR
STARTCHAR 22CD
ENCODING 8909
SWIDTH 600 0
DWIDTH 15 0
BBX 13 9 1 4
BITMAP
81E0
C7F8
FFF8
FE18
3808
0000
FFF8
FFF8
FFF8
ENDCHAR
STARTCHAR 22CE
ENCODING 8910
SWIDTH 600 0
DWIDTH 15 0
BBX 15 16 0 0
BITMAP
F01E
783C
3C78
1EF0
1EF0
0EE0
0EE0
07C0
07C0
07C0
07C0
0380
0380
0380
0380
0380
ENDCHAR
STARTCHAR 22CF
ENCODING 8911
SWIDTH 600 0
DWIDTH 15 0
BBX 15 16 0 0
BITMAP
0380
0380
0380
0380
0380
03C0
07C0
07C0
07C0
0FE0
0EE0
0EE0
1EF0
3C78
3C78
F83E
ENDCHAR
ENDFONT
